  0
SECTION
  2
HEADER
  9
$ACADVER
  1
AC1027
  9
$ACADMAINTVER
 70
105
  9
$DWGCODEPAGE
  3
ANSI_1252
  9
$LASTSAVEDBY
  1
ezdxf
  9
$REQUIREDVERSIONS
160
0
  9
$INSBASE
 10
0.0
 20
0.0
 30
0.0
  9
$EXTMIN
 10
1e+20
 20
1e+20
 30
1e+20
  9
$EXTMAX
 10
-1e+20
 20
-1e+20
 30
-1e+20
  9
$LIMMIN
 10
0.0
 20
0.0
  9
$LIMMAX
 10
420.0
 20
297.0
  9
$ORTHOMODE
 70
0
  9
$REGENMODE
 70
1
  9
$FILLMODE
 70
1
  9
$QTEXTMODE
 70
0
  9
$MIRRTEXT
 70
1
  9
$LTSCALE
 40
1.0
  9
$ATTMODE
 70
1
  9
$TEXTSIZE
 40
2.5
  9
$TRACEWID
 40
1.0
  9
$TEXTSTYLE
  7
OpenSans
  9
$CLAYER
  8
0
  9
$CELTYPE
  6
ByLayer
  9
$CECOLOR
 62
256
  9
$CELTSCALE
 40
1.0
  9
$DISPSILH
 70
0
  9
$DIMSCALE
 40
1.0
  9
$DIMASZ
 40
0.175
  9
$DIMEXO
 40
0.125
  9
$DIMDLI
 40
3.75
  9
$DIMRND
 40
0.0
  9
$DIMDLE
 40
0.0
  9
$DIMEXE
 40
0.375
  9
$DIMTP
 40
0.0
  9
$DIMTM
 40
0.0
  9
$DIMTXT
 40
0.25
  9
$DIMCEN
 40
2.5
  9
$DIMTSZ
 40
0.0
  9
$DIMTOL
 70
0
  9
$DIMLIM
 70
0
  9
$DIMTIH
 70
0
  9
$DIMTOH
 70
0
  9
$DIMSE1
 70
0
  9
$DIMSE2
 70
0
  9
$DIMTAD
 70
1
  9
$DIMZIN
 70
12
  9
$DIMBLK
  1
ARCHTICK
  9
$DIMASO
 70
1
  9
$DIMSHO
 70
1
  9
$DIMPOST
  1

  9
$DIMAPOST
  1

  9
$DIMALT
 70
0
  9
$DIMALTD
 70
3
  9
$DIMALTF
 40
0.03937007874
  9
$DIMLFAC
 40
100.0
  9
$DIMTOFL
 70
1
  9
$DIMTVP
 40
0.0
  9
$DIMTIX
 70
0
  9
$DIMSOXD
 70
0
  9
$DIMSAH
 70
0
  9
$DIMBLK1
  1

  9
$DIMBLK2
  1

  9
$DIMSTYLE
  2
EZDXF
  9
$DIMCLRD
 70
0
  9
$DIMCLRE
 70
0
  9
$DIMCLRT
 70
0
  9
$DIMTFAC
 40
0.5
  9
$DIMGAP
 40
0.1
  9
$DIMJUST
 70
0
  9
$DIMSD1
 70
0
  9
$DIMSD2
 70
0
  9
$DIMTOLJ
 70
0
  9
$DIMTZIN
 70
8
  9
$DIMALTZ
 70
0
  9
$DIMALTTZ
 70
0
  9
$DIMUPT
 70
1
  9
$DIMDEC
 70
2
  9
$DIMTDEC
 70
2
  9
$DIMALTU
 70
2
  9
$DIMALTTD
 70
3
  9
$DIMTXSTY
  7
OpenSansCondensed-Light
  9
$DIMAUNIT
 70
0
  9
$DIMADEC
 70
2
  9
$DIMALTRND
 40
0.0
  9
$DIMAZIN
 70
3
  9
$DIMDSEP
 70
46
  9
$DIMATFIT
 70
3
  9
$DIMFRAC
 70
0
  9
$DIMLDRBLK
  1

  9
$DIMLUNIT
 70
2
  9
$DIMLWD
 70
-2
  9
$DIMLWE
 70
-2
  9
$DIMTMOVE
 70
2
  9
$DIMFXL
 40
1.0
  9
$DIMFXLON
 70
0
  9
$DIMJOGANG
 40
0.785398163397
  9
$DIMTFILL
 70
0
  9
$DIMTFILLCLR
 70
0
  9
$DIMARCSYM
 70
0
  9
$DIMLTYPE
  6

  9
$DIMLTEX1
  6

  9
$DIMLTEX2
  6

  9
$DIMTXTDIRECTION
 70
0
  9
$LUNITS
 70
2
  9
$LUPREC
 70
4
  9
$SKETCHINC
 40
1.0
  9
$FILLETRAD
 40
10.0
  9
$AUNITS
 70
0
  9
$AUPREC
 70
2
  9
$MENU
  1
.
  9
$ELEVATION
 40
0.0
  9
$PELEVATION
 40
0.0
  9
$THICKNESS
 40
0.0
  9
$LIMCHECK
 70
0
  9
$CHAMFERA
 40
0.0
  9
$CHAMFERB
 40
0.0
  9
$CHAMFERC
 40
0.0
  9
$CHAMFERD
 40
0.0
  9
$SKPOLY
 70
0
  9
$TDCREATE
 40
2461242.484027778
  9
$TDUCREATE
 40
2458532.153996898
  9
$TDUPDATE
 40
2461242.484027778
  9
$TDUUPDATE
 40
2458532.1544311
  9
$TDINDWG
 40
0.0
  9
$TDUSRTIMER
 40
0.0
  9
$USRTIMER
 70
1
  9
$ANGBASE
 50
0.0
  9
$ANGDIR
 70
0
  9
$PDMODE
 70
0
  9
$PDSIZE
 40
0.0
  9
$PLINEWID
 40
0.0
  9
$SPLFRAME
 70
0
  9
$SPLINETYPE
 70
6
  9
$SPLINESEGS
 70
8
  9
$HANDSEED
  5
4BA
  9
$SURFTAB1
 70
6
  9
$SURFTAB2
 70
6
  9
$SURFTYPE
 70
6
  9
$SURFU
 70
6
  9
$SURFV
 70
6
  9
$UCSBASE
  2

  9
$UCSNAME
  2

  9
$UCSORG
 10
0.0
 20
0.0
 30
0.0
  9
$UCSXDIR
 10
1.0
 20
0.0
 30
0.0
  9
$UCSYDIR
 10
0.0
 20
1.0
 30
0.0
  9
$UCSORTHOREF
  2

  9
$UCSORTHOVIEW
 70
0
  9
$UCSORGTOP
 10
0.0
 20
0.0
 30
0.0
  9
$UCSORGBOTTOM
 10
0.0
 20
0.0
 30
0.0
  9
$UCSORGLEFT
 10
0.0
 20
0.0
 30
0.0
  9
$UCSORGRIGHT
 10
0.0
 20
0.0
 30
0.0
  9
$UCSORGFRONT
 10
0.0
 20
0.0
 30
0.0
  9
$UCSORGBACK
 10
0.0
 20
0.0
 30
0.0
  9
$PUCSBASE
  2

  9
$PUCSNAME
  2

  9
$PUCSORG
 10
0.0
 20
0.0
 30
0.0
  9
$PUCSXDIR
 10
1.0
 20
0.0
 30
0.0
  9
$PUCSYDIR
 10
0.0
 20
1.0
 30
0.0
  9
$PUCSORTHOREF
  2

  9
$PUCSORTHOVIEW
 70
0
  9
$PUCSORGTOP
 10
0.0
 20
0.0
 30
0.0
  9
$PUCSORGBOTTOM
 10
0.0
 20
0.0
 30
0.0
  9
$PUCSORGLEFT
 10
0.0
 20
0.0
 30
0.0
  9
$PUCSORGRIGHT
 10
0.0
 20
0.0
 30
0.0
  9
$PUCSORGFRONT
 10
0.0
 20
0.0
 30
0.0
  9
$PUCSORGBACK
 10
0.0
 20
0.0
 30
0.0
  9
$USERI1
 70
0
  9
$USERI2
 70
0
  9
$USERI3
 70
0
  9
$USERI4
 70
0
  9
$USERI5
 70
0
  9
$USERR1
 40
0.0
  9
$USERR2
 40
0.0
  9
$USERR3
 40
0.0
  9
$USERR4
 40
0.0
  9
$USERR5
 40
0.0
  9
$WORLDVIEW
 70
1
  9
$SHADEDGE
 70
3
  9
$SHADEDIF
 70
70
  9
$TILEMODE
 70
1
  9
$MAXACTVP
 70
64
  9
$PINSBASE
 10
0.0
 20
0.0
 30
0.0
  9
$PLIMCHECK
 70
0
  9
$PEXTMIN
 10
1e+20
 20
1e+20
 30
1e+20
  9
$PEXTMAX
 10
-1e+20
 20
-1e+20
 30
-1e+20
  9
$PLIMMIN
 10
0.0
 20
0.0
  9
$PLIMMAX
 10
420.0
 20
297.0
  9
$UNITMODE
 70
0
  9
$VISRETAIN
 70
1
  9
$PLINEGEN
 70
0
  9
$PSLTSCALE
 70
1
  9
$TREEDEPTH
 70
3020
  9
$CMLSTYLE
  2
Standard
  9
$CMLJUST
 70
0
  9
$CMLSCALE
 40
20.0
  9
$PROXYGRAPHICS
 70
1
  9
$MEASUREMENT
 70
1
  9
$CELWEIGHT
370
-1
  9
$ENDCAPS
280
0
  9
$JOINSTYLE
280
0
  9
$LWDISPLAY
290
0
  9
$INSUNITS
 70
4
  9
$HYPERLINKBASE
  1

  9
$STYLESHEET
  1

  9
$XEDIT
290
1
  9
$CEPSNTYPE
380
0
  9
$PSTYLEMODE
290
1
  9
$FINGERPRINTGUID
  2
{AA209A24-DD9C-40BA-A0FF-77C4DFF4D0A8}
  9
$VERSIONGUID
  2
{D1E8971B-B1A0-46B1-8ABB-E9B0BFB306FD}
  9
$EXTNAMES
290
1
  9
$PSVPSCALE
 40
0.0
  9
$OLESTARTUP
290
0
  9
$SORTENTS
280
127
  9
$INDEXCTL
280
0
  9
$HIDETEXT
280
1
  9
$XCLIPFRAME
280
1
  9
$HALOGAP
280
0
  9
$OBSCOLOR
 70
257
  9
$OBSLTYPE
280
0
  9
$INTERSECTIONDISPLAY
280
0
  9
$INTERSECTIONCOLOR
 70
257
  9
$DIMASSOC
280
2
  9
$PROJECTNAME
  1

  9
$CAMERADISPLAY
290
0
  9
$LENSLENGTH
 40
50.0
  9
$CAMERAHEIGHT
 40
0.0
  9
$STEPSPERSEC
 40
24.0
  9
$STEPSIZE
 40
100.0
  9
$3DDWFPREC
 40
2.0
  9
$PSOLWIDTH
 40
0.005
  9
$PSOLHEIGHT
 40
0.08
  9
$LOFTANG1
 40
1.570796326795
  9
$LOFTANG2
 40
1.570796326795
  9
$LOFTMAG1
 40
0.0
  9
$LOFTMAG2
 40
0.0
  9
$LOFTPARAM
 70
7
  9
$LOFTNORMALS
280
1
  9
$LATITUDE
 40
37.795
  9
$LONGITUDE
 40
-122.394
  9
$NORTHDIRECTION
 40
0.0
  9
$TIMEZONE
 70
-8000
  9
$LIGHTGLYPHDISPLAY
280
1
  9
$TILEMODELIGHTSYNCH
280
1
  9
$CMATERIAL
347
20
  9
$SOLIDHIST
280
0
  9
$SHOWHIST
280
1
  9
$DWFFRAME
280
2
  9
$DGNFRAME
280
2
  9
$REALWORLDSCALE
290
1
  9
$INTERFERECOLOR
 62
256
  9
$CSHADOW
280
0
  9
$SHADOWPLANELOCATION
 40
0.0
  0
ENDSEC
  0
SECTION
  2
CLASSES
  0
CLASS
  1
ACDBDICTIONARYWDFLT
  2
AcDbDictionaryWithDefault
  3
ObjectDBX Classes
 90
0
 91
0
280
0
281
0
  0
CLASS
  1
SUN
  2
AcDbSun
  3
SCENEOE
 90
1153
 91
0
280
0
281
0
  0
CLASS
  1
VISUALSTYLE
  2
AcDbVisualStyle
  3
ObjectDBX Classes
 90
4095
 91
0
280
0
281
0
  0
CLASS
  1
MATERIAL
  2
AcDbMaterial
  3
ObjectDBX Classes
 90
1153
 91
0
280
0
281
0
  0
CLASS
  1
SCALE
  2
AcDbScale
  3
ObjectDBX Classes
 90
1153
 91
0
280
0
281
0
  0
CLASS
  1
TABLESTYLE
  2
AcDbTableStyle
  3
ObjectDBX Classes
 90
4095
 91
0
280
0
281
0
  0
CLASS
  1
MLEADERSTYLE
  2
AcDbMLeaderStyle
  3
ACDB_MLEADERSTYLE_CLASS
 90
4095
 91
0
280
0
281
0
  0
CLASS
  1
DICTIONARYVAR
  2
AcDbDictionaryVar
  3
ObjectDBX Classes
 90
0
 91
0
280
0
281
0
  0
CLASS
  1
CELLSTYLEMAP
  2
AcDbCellStyleMap
  3
ObjectDBX Classes
 90
1152
 91
0
280
0
281
0
  0
CLASS
  1
MENTALRAYRENDERSETTINGS
  2
AcDbMentalRayRenderSettings
  3
SCENEOE
 90
1024
 91
0
280
0
281
0
  0
CLASS
  1
ACDBDETAILVIEWSTYLE
  2
AcDbDetailViewStyle
  3
ObjectDBX Classes
 90
1025
 91
0
280
0
281
0
  0
CLASS
  1
ACDBSECTIONVIEWSTYLE
  2
AcDbSectionViewStyle
  3
ObjectDBX Classes
 90
1025
 91
0
280
0
281
0
  0
CLASS
  1
RASTERVARIABLES
  2
AcDbRasterVariables
  3
ISM
 90
0
 91
0
280
0
281
0
  0
CLASS
  1
ACDBPLACEHOLDER
  2
AcDbPlaceHolder
  3
ObjectDBX Classes
 90
0
 91
0
280
0
281
0
  0
CLASS
  1
LAYOUT
  2
AcDbLayout
  3
ObjectDBX Classes
 90
0
 91
0
280
0
281
0
  0
ENDSEC
  0
SECTION
  2
TABLES
  0
TABLE
  2
VPORT
  5
8
330
0
100
AcDbSymbolTable
 70
1
  0
VPORT
  5
23
330
8
100
AcDbSymbolTableRecord
100
AcDbViewportTableRecord
  2
*Active
 70
0
 10
0.0
 20
0.0
 11
1.0
 21
1.0
 12
0.0
 22
0.0
 13
0.0
 23
0.0
 14
0.5
 24
0.5
 15
0.5
 25
0.5
 16
0.0
 26
0.0
 36
1.0
 17
0.0
 27
0.0
 37
0.0
 40
1000.0
 41
1.34
 42
50.0
 43
0.0
 44
0.0
 50
0.0
 51
0.0
 71
0
 72
1000
 73
1
 74
3
 75
0
 76
0
 77
0
 78
0
281
0
 65
0
146
0.0
  0
ENDTAB
  0
TABLE
  2
LTYPE
  5
2
330
0
100
AcDbSymbolTable
 70
21
  0
LTYPE
  5
24
330
2
100
AcDbSymbolTableRecord
100
AcDbLinetypeTableRecord
  2
ByBlock
 70
0
  3

 72
65
 73
0
 40
0.0
  0
LTYPE
  5
25
330
2
100
AcDbSymbolTableRecord
100
AcDbLinetypeTableRecord
  2
ByLayer
 70
0
  3

 72
65
 73
0
 40
0.0
  0
LTYPE
  5
26
330
2
100
AcDbSymbolTableRecord
100
AcDbLinetypeTableRecord
  2
Continuous
 70
0
  3

 72
65
 73
0
 40
0.0
  0
LTYPE
  5
2F
330
2
100
AcDbSymbolTableRecord
100
AcDbLinetypeTableRecord
  2
CENTER
 70
0
  3
Center ____ _ ____ _ ____ _ ____ _ ____ _ ____
 72
65
 73
4
 40
5.08
 49
3.175
 74
0
 49
-0.635
 74
0
 49
0.635
 74
0
 49
-0.635
 74
0
  0
LTYPE
  5
30
330
2
100
AcDbSymbolTableRecord
100
AcDbLinetypeTableRecord
  2
CENTERX2
 70
0
  3
Center (2x) ________  __  ________  __  ________
 72
65
 73
4
 40
8.89
 49
6.35
 74
0
 49
-0.635
 74
0
 49
1.27
 74
0
 49
-0.635
 74
0
  0
LTYPE
  5
31
330
2
100
AcDbSymbolTableRecord
100
AcDbLinetypeTableRecord
  2
CENTER2
 70
0
  3
Center (.5x) ____ _ ____ _ ____ _ ____ _ ____
 72
65
 73
4
 40
2.54
 49
1.587
 74
0
 49
-0.318
 74
0
 49
0.318
 74
0
 49
-0.318
 74
0
  0
LTYPE
  5
32
330
2
100
AcDbSymbolTableRecord
100
AcDbLinetypeTableRecord
  2
DASHED
 70
0
  3
Dashed __ __ __ __ __ __ __ __ __ __ __ __ __ _
 72
65
 73
2
 40
1.524
 49
1.27
 74
0
 49
-0.254
 74
0
  0
LTYPE
  5
33
330
2
100
AcDbSymbolTableRecord
100
AcDbLinetypeTableRecord
  2
DASHEDX2
 70
0
  3
Dashed (2x) ____  ____  ____  ____  ____  ____
 72
65
 73
2
 40
3.048
 49
2.54
 74
0
 49
-0.508
 74
0
  0
LTYPE
  5
34
330
2
100
AcDbSymbolTableRecord
100
AcDbLinetypeTableRecord
  2
DASHED2
 70
0
  3
Dashed (.5x) _ _ _ _ _ _ _ _ _ _ _ _ _ _
 72
65
 73
2
 40
0.762
 49
0.635
 74
0
 49
-0.127
 74
0
  0
LTYPE
  5
35
330
2
100
AcDbSymbolTableRecord
100
AcDbLinetypeTableRecord
  2
PHANTOM
 70
0
  3
Phantom ______  __  __  ______  __  __  ______
 72
65
 73
6
 40
6.35
 49
3.175
 74
0
 49
-0.635
 74
0
 49
0.635
 74
0
 49
-0.635
 74
0
 49
0.635
 74
0
 49
-0.635
 74
0
  0
LTYPE
  5
36
330
2
100
AcDbSymbolTableRecord
100
AcDbLinetypeTableRecord
  2
PHANTOMX2
 70
0
  3
Phantom (2x)____________    ____    ____    ____________
 72
65
 73
6
 40
10.795
 49
6.35
 74
0
 49
-0.635
 74
0
 49
1.27
 74
0
 49
-0.635
 74
0
 49
1.27
 74
0
 49
-0.635
 74
0
  0
LTYPE
  5
37
330
2
100
AcDbSymbolTableRecord
100
AcDbLinetypeTableRecord
  2
PHANTOM2
 70
0
  3
Phantom (.5x) ___ _ _ ___ _ _ ___ _ _ ___ _ _ ___
 72
65
 73
6
 40
3.175
 49
1.587
 74
0
 49
-0.318
 74
0
 49
0.318
 74
0
 49
-0.318
 74
0
 49
0.318
 74
0
 49
-0.318
 74
0
  0
LTYPE
  5
38
330
2
100
AcDbSymbolTableRecord
100
AcDbLinetypeTableRecord
  2
DASHDOT
 70
0
  3
Dash dot __ . __ . __ . __ . __ . __ . __ . __
 72
65
 73
4
 40
3.556
 49
2.54
 74
0
 49
-0.508
 74
0
 49
0.0
 74
0
 49
-0.508
 74
0
  0
LTYPE
  5
39
330
2
100
AcDbSymbolTableRecord
100
AcDbLinetypeTableRecord
  2
DASHDOTX2
 70
0
  3
Dash dot (2x) ____  .  ____  .  ____  .  ____
 72
65
 73
4
 40
6.096
 49
5.08
 74
0
 49
-0.508
 74
0
 49
0.0
 74
0
 49
-0.508
 74
0
  0
LTYPE
  5
3A
330
2
100
AcDbSymbolTableRecord
100
AcDbLinetypeTableRecord
  2
DASHDOT2
 70
0
  3
Dash dot (.5x) _ . _ . _ . _ . _ . _ . _ . _
 72
65
 73
4
 40
1.778
 49
1.27
 74
0
 49
-0.254
 74
0
 49
0.0
 74
0
 49
-0.254
 74
0
  0
LTYPE
  5
3B
330
2
100
AcDbSymbolTableRecord
100
AcDbLinetypeTableRecord
  2
DOT
 70
0
  3
Dot .  .  .  .  .  .  .  .  .  .  .  .  .  .  .  .
 72
65
 73
2
 40
0.508
 49
0.0
 74
0
 49
-0.508
 74
0
  0
LTYPE
  5
3C
330
2
100
AcDbSymbolTableRecord
100
AcDbLinetypeTableRecord
  2
DOTX2
 70
0
  3
Dot (2x) .    .    .    .    .    .    .    . 
 72
65
 73
2
 40
1.016
 49
0.0
 74
0
 49
-1.016
 74
0
  0
LTYPE
  5
3D
330
2
100
AcDbSymbolTableRecord
100
AcDbLinetypeTableRecord
  2
DOT2
 70
0
  3
Dot (.5) . . . . . . . . . . . . . . . . . . . 
 72
65
 73
2
 40
0.254
 49
0.0
 74
0
 49
-0.254
 74
0
  0
LTYPE
  5
3E
330
2
100
AcDbSymbolTableRecord
100
AcDbLinetypeTableRecord
  2
DIVIDE
 70
0
  3
Divide __ . . __ . . __ . . __ . . __ . . __
 72
65
 73
6
 40
4.064
 49
2.54
 74
0
 49
-0.508
 74
0
 49
0.0
 74
0
 49
-0.508
 74
0
 49
0.0
 74
0
 49
-0.508
 74
0
  0
LTYPE
  5
3F
330
2
100
AcDbSymbolTableRecord
100
AcDbLinetypeTableRecord
  2
DIVIDEX2
 70
0
  3
Divide (2x) ____  . .  ____  . .  ____  . .  ____
 72
65
 73
6
 40
6.604
 49
5.08
 74
0
 49
-0.508
 74
0
 49
0.0
 74
0
 49
-0.508
 74
0
 49
0.0
 74
0
 49
-0.508
 74
0
  0
LTYPE
  5
40
330
2
100
AcDbSymbolTableRecord
100
AcDbLinetypeTableRecord
  2
DIVIDE2
 70
0
  3
Divide(.5x) _ . _ . _ . _ . _ . _ . _ . _
 72
65
 73
6
 40
2.032
 49
1.27
 74
0
 49
-0.254
 74
0
 49
0.0
 74
0
 49
-0.254
 74
0
 49
0.0
 74
0
 49
-0.254
 74
0
  0
ENDTAB
  0
TABLE
  2
LAYER
  5
1
330
0
100
AcDbSymbolTable
 70
12
  0
LAYER
  5
27
330
1
100
AcDbSymbolTableRecord
100
AcDbLayerTableRecord
  2
0
 70
0
 62
7
  6
Continuous
370
-3
390
13
347
21
  0
LAYER
  5
28
330
1
100
AcDbSymbolTableRecord
100
AcDbLayerTableRecord
  2
Defpoints
 70
0
 62
7
  6
Continuous
290
0
370
-3
390
13
347
21
  0
LAYER
  5
8A
330
1
100
AcDbSymbolTableRecord
100
AcDbLayerTableRecord
  2
FRAME
 70
0
 62
7
  6
Continuous
370
-3
390
13
347
21
  0
LAYER
  5
8B
330
1
100
AcDbSymbolTableRecord
100
AcDbLayerTableRecord
  2
REBAR
 70
0
 62
7
  6
Continuous
370
-3
390
13
347
21
  0
LAYER
  5
8C
330
1
100
AcDbSymbolTableRecord
100
AcDbLayerTableRecord
  2
SECTION
 70
0
 62
7
  6
Continuous
370
-3
390
13
347
21
  0
LAYER
  5
8D
330
1
100
AcDbSymbolTableRecord
100
AcDbLayerTableRecord
  2
TEXT
 70
0
 62
7
  6
Continuous
370
-3
390
13
347
21
  0
LAYER
  5
8E
330
1
100
AcDbSymbolTableRecord
100
AcDbLayerTableRecord
  2
DIMS
 70
0
 62
7
  6
Continuous
370
-3
390
13
347
21
  0
LAYER
  5
8F
330
1
100
AcDbSymbolTableRecord
100
AcDbLayerTableRecord
  2
TABLE
 70
0
 62
7
  6
Continuous
370
-3
390
13
347
21
  0
LAYER
  5
90
330
1
100
AcDbSymbolTableRecord
100
AcDbLayerTableRecord
  2
TABLE_GRID
 70
0
 62
7
  6
Continuous
370
-3
390
13
347
21
  0
LAYER
  5
91
330
1
100
AcDbSymbolTableRecord
100
AcDbLayerTableRecord
  2
DETAILS
 70
0
 62
7
  6
Continuous
370
-3
390
13
347
21
  0
LAYER
  5
92
330
1
100
AcDbSymbolTableRecord
100
AcDbLayerTableRecord
  2
CENTER
 70
0
 62
7
  6
Continuous
370
-3
390
13
347
21
  0
LAYER
  5
93
330
1
100
AcDbSymbolTableRecord
100
AcDbLayerTableRecord
  2
TITLE
 70
0
 62
7
  6
Continuous
370
-3
390
13
347
21
  0
ENDTAB
  0
TABLE
  2
STYLE
  5
5
330
0
100
AcDbSymbolTable
 70
28
  0
STYLE
  5
29
330
5
100
AcDbSymbolTableRecord
100
AcDbTextStyleTableRecord
  2
Standard
 70
0
 40
0.0
 41
1.0
 50
0.0
 71
0
 42
2.5
  3
GOSTCommon.ttf
  4

  0
STYLE
  5
41
330
5
100
AcDbSymbolTableRecord
100
AcDbTextStyleTableRecord
  2
OpenSans-Light
 70
0
 40
0.0
 41
1.0
 50
0.0
 71
0
 42
2.5
  3
OpenSans-Light.ttf
  4

  0
STYLE
  5
42
330
5
100
AcDbSymbolTableRecord
100
AcDbTextStyleTableRecord
  2
OpenSans-Light-Italic
 70
0
 40
0.0
 41
1.0
 50
0.0
 71
0
 42
2.5
  3
OpenSans-LightItalic.ttf
  4

  0
STYLE
  5
43
330
5
100
AcDbSymbolTableRecord
100
AcDbTextStyleTableRecord
  2
OpenSans
 70
0
 40
0.0
 41
1.0
 50
0.0
 71
0
 42
2.5
  3
OpenSans-Regular.ttf
  4

  0
STYLE
  5
44
330
5
100
AcDbSymbolTableRecord
100
AcDbTextStyleTableRecord
  2
OpenSans-Italic
 70
0
 40
0.0
 41
1.0
 50
0.0
 71
0
 42
2.5
  3
OpenSans-Italic.ttf
  4

  0
STYLE
  5
45
330
5
100
AcDbSymbolTableRecord
100
AcDbTextStyleTableRecord
  2
OpenSans-SemiBold
 70
0
 40
0.0
 41
1.0
 50
0.0
 71
0
 42
2.5
  3
OpenSans-SemiBold.ttf
  4

  0
STYLE
  5
46
330
5
100
AcDbSymbolTableRecord
100
AcDbTextStyleTableRecord
  2
OpenSans-SemiBoldItalic
 70
0
 40
0.0
 41
1.0
 50
0.0
 71
0
 42
2.5
  3
OpenSans-SemiBoldItalic.ttf
  4

  0
STYLE
  5
47
330
5
100
AcDbSymbolTableRecord
100
AcDbTextStyleTableRecord
  2
OpenSans-Bold
 70
0
 40
0.0
 41
1.0
 50
0.0
 71
0
 42
2.5
  3
OpenSans-Bold.ttf
  4

  0
STYLE
  5
48
330
5
100
AcDbSymbolTableRecord
100
AcDbTextStyleTableRecord
  2
OpenSans-BoldItalic
 70
0
 40
0.0
 41
1.0
 50
0.0
 71
0
 42
2.5
  3
OpenSans-BoldItalic.ttf
  4

  0
STYLE
  5
49
330
5
100
AcDbSymbolTableRecord
100
AcDbTextStyleTableRecord
  2
OpenSans-ExtraBold
 70
0
 40
0.0
 41
1.0
 50
0.0
 71
0
 42
2.5
  3
OpenSans-ExtraBold.ttf
  4

  0
STYLE
  5
4A
330
5
100
AcDbSymbolTableRecord
100
AcDbTextStyleTableRecord
  2
OpenSans-ExtraBoldItalic
 70
0
 40
0.0
 41
1.0
 50
0.0
 71
0
 42
2.5
  3
OpenSans-ExtraBoldItalic.ttf
  4

  0
STYLE
  5
4B
330
5
100
AcDbSymbolTableRecord
100
AcDbTextStyleTableRecord
  2
OpenSansCondensed-Bold
 70
0
 40
0.0
 41
1.0
 50
0.0
 71
0
 42
2.5
  3
OpenSansCondensed-Bold.ttf
  4

  0
STYLE
  5
4C
330
5
100
AcDbSymbolTableRecord
100
AcDbTextStyleTableRecord
  2
OpenSansCondensed-Light
 70
0
 40
0.0
 41
1.0
 50
0.0
 71
0
 42
2.5
  3
OpenSansCondensed-Light.ttf
  4

  0
STYLE
  5
4D
330
5
100
AcDbSymbolTableRecord
100
AcDbTextStyleTableRecord
  2
OpenSansCondensed-Italic
 70
0
 40
0.0
 41
1.0
 50
0.0
 71
0
 42
2.5
  3
OpenSansCondensed-LightItalic.ttf
  4

  0
STYLE
  5
4E
330
5
100
AcDbSymbolTableRecord
100
AcDbTextStyleTableRecord
  2
LiberationSans
 70
0
 40
0.0
 41
1.0
 50
0.0
 71
0
 42
2.5
  3
LiberationSans-Regular.ttf
  4

  0
STYLE
  5
4F
330
5
100
AcDbSymbolTableRecord
100
AcDbTextStyleTableRecord
  2
LiberationSans-Bold
 70
0
 40
0.0
 41
1.0
 50
0.0
 71
0
 42
2.5
  3
LiberationSans-Bold.ttf
  4

  0
STYLE
  5
50
330
5
100
AcDbSymbolTableRecord
100
AcDbTextStyleTableRecord
  2
LiberationSans-BoldItalic
 70
0
 40
0.0
 41
1.0
 50
0.0
 71
0
 42
2.5
  3
LiberationSans-BoldItalic.ttf
  4

  0
STYLE
  5
51
330
5
100
AcDbSymbolTableRecord
100
AcDbTextStyleTableRecord
  2
LiberationSans-Italic
 70
0
 40
0.0
 41
1.0
 50
0.0
 71
0
 42
2.5
  3
LiberationSans-Italic.ttf
  4

  0
STYLE
  5
52
330
5
100
AcDbSymbolTableRecord
100
AcDbTextStyleTableRecord
  2
LiberationSerif
 70
0
 40
0.0
 41
1.0
 50
0.0
 71
0
 42
2.5
  3
LiberationSerif-Regular.ttf
  4

  0
STYLE
  5
53
330
5
100
AcDbSymbolTableRecord
100
AcDbTextStyleTableRecord
  2
LiberationSerif-Bold
 70
0
 40
0.0
 41
1.0
 50
0.0
 71
0
 42
2.5
  3
LiberationSerif-Bold.ttf
  4

  0
STYLE
  5
54
330
5
100
AcDbSymbolTableRecord
100
AcDbTextStyleTableRecord
  2
LiberationSerif-BoldItalic
 70
0
 40
0.0
 41
1.0
 50
0.0
 71
0
 42
2.5
  3
LiberationSerif-BoldItalic.ttf
  4

  0
STYLE
  5
55
330
5
100
AcDbSymbolTableRecord
100
AcDbTextStyleTableRecord
  2
LiberationSerif-Italic
 70
0
 40
0.0
 41
1.0
 50
0.0
 71
0
 42
2.5
  3
LiberationSerif-Italic.ttf
  4

  0
STYLE
  5
56
330
5
100
AcDbSymbolTableRecord
100
AcDbTextStyleTableRecord
  2
LiberationMono
 70
0
 40
0.0
 41
1.0
 50
0.0
 71
0
 42
2.5
  3
LiberationMono-Regular.ttf
  4

  0
STYLE
  5
57
330
5
100
AcDbSymbolTableRecord
100
AcDbTextStyleTableRecord
  2
LiberationMono-Bold
 70
0
 40
0.0
 41
1.0
 50
0.0
 71
0
 42
2.5
  3
LiberationMono-Bold.ttf
  4

  0
STYLE
  5
58
330
5
100
AcDbSymbolTableRecord
100
AcDbTextStyleTableRecord
  2
LiberationMono-BoldItalic
 70
0
 40
0.0
 41
1.0
 50
0.0
 71
0
 42
2.5
  3
LiberationMono-BoldItalic.ttf
  4

  0
STYLE
  5
59
330
5
100
AcDbSymbolTableRecord
100
AcDbTextStyleTableRecord
  2
LiberationMono-Italic
 70
0
 40
0.0
 41
1.0
 50
0.0
 71
0
 42
2.5
  3
LiberationMono-Italic.ttf
  4

  0
STYLE
  5
94
330
5
100
AcDbSymbolTableRecord
100
AcDbTextStyleTableRecord
  2
GOST
 70
0
 40
0.0
 41
1.0
 50
0.0
 71
0
 42
2.5
  3
GOSTCommon.ttf
  4

  0
STYLE
  5
95
330
5
100
AcDbSymbolTableRecord
100
AcDbTextStyleTableRecord
  2
GOSTCommon
 70
0
 40
0.0
 41
1.0
 50
0.0
 71
0
 42
2.5
  3
GOSTCommon.ttf
  4

  0
ENDTAB
  0
TABLE
  2
VIEW
  5
7
330
0
100
AcDbSymbolTable
 70
0
  0
ENDTAB
  0
TABLE
  2
UCS
  5
6
330
0
100
AcDbSymbolTable
 70
0
  0
ENDTAB
  0
TABLE
  2
APPID
  5
3
330
0
100
AcDbSymbolTable
 70
3
  0
APPID
  5
2A
330
3
100
AcDbSymbolTableRecord
100
AcDbRegAppTableRecord
  2
ACAD
 70
0
  0
APPID
  5
4B7
330
3
100
AcDbSymbolTableRecord
100
AcDbRegAppTableRecord
  2
HATCHBACKGROUNDCOLOR
 70
0
  0
APPID
  5
4B8
330
3
100
AcDbSymbolTableRecord
100
AcDbRegAppTableRecord
  2
EZDXF
 70
0
  0
ENDTAB
  0
TABLE
  2
DIMSTYLE
  5
4
330
0
100
AcDbSymbolTable
 70
13
100
AcDbDimStyleTable
  0
DIMSTYLE
105
2B
330
4
100
AcDbSymbolTableRecord
100
AcDbDimStyleTableRecord
  2
Standard
 70
0
 40
1.0
 41
2.5
 42
0.625
 43
3.75
 44
1.25
 45
0.0
 46
0.0
 47
0.0
 48
0.0
 49
2.5
140
2.5
141
2.5
142
0.0
143
0.03937007874
144
1.0
145
0.0
146
1.0
147
0.625
148
0.0
 69
0
 70
0
 71
0
 72
0
 73
0
 74
0
 75
0
 76
0
 77
1
 78
8
 79
3
170
0
171
3
172
1
173
0
174
0
175
0
176
0
177
0
178
0
179
2
271
2
272
2
273
2
274
3
275
0
276
0
277
2
278
44
279
0
280
0
281
0
282
0
283
0
284
8
285
0
286
0
288
0
289
3
290
0
371
-2
372
-2
  0
DIMSTYLE
105
73
330
4
100
AcDbSymbolTableRecord
100
AcDbDimStyleTableRecord
  2
EZDXF
 70
0
 40
1.0
 41
0.175
 42
0.125
 43
3.75
 44
0.375
 45
0.0
 46
0.0
 47
0.0
 48
0.0
 49
2.5
140
0.25
141
2.5
142
0.0
143
0.03937007874
144
100.0
145
0.0
146
0.5
147
0.1
148
0.0
 69
0
 70
0
 71
0
 72
0
 73
0
 74
0
 75
0
 76
0
 77
1
 78
12
 79
3
170
0
171
3
172
1
173
0
174
0
175
0
176
0
177
0
178
0
179
2
271
2
272
2
273
2
274
3
275
0
276
0
277
2
278
46
279
2
280
0
281
0
282
0
283
0
284
8
285
0
286
0
288
1
289
3
290
0
340
4C
342
74
371
-2
372
-2
  0
DIMSTYLE
105
7C
330
4
100
AcDbSymbolTableRecord
100
AcDbDimStyleTableRecord
  2
EZ_M_100_H25_CM
 70
0
 40
1.0
 41
0.25
 42
0.125
 43
3.75
 44
0.375
 45
0.0
 46
0.0
 47
0.0
 48
0.0
 49
2.5
140
0.25
141
2.5
142
0.125
143
0.03937007874
144
100.0
145
0.0
146
0.5
147
0.1
148
0.0
 69
0
 70
0
 71
0
 72
0
 73
0
 74
0
 75
0
 76
0
 77
1
 78
12
 79
3
170
0
171
3
172
1
173
0
174
0
175
0
176
0
177
0
178
0
179
2
271
2
272
2
273
2
274
3
275
0
276
0
277
2
278
46
279
2
280
0
281
0
282
0
283
0
284
8
285
0
286
0
288
1
289
3
290
0
340
4C
371
-2
372
-2
  0
DIMSTYLE
105
7D
330
4
100
AcDbSymbolTableRecord
100
AcDbDimStyleTableRecord
  2
EZ_M_50_H25_CM
 70
0
 40
1.0
 41
0.125
 42
0.0625
 43
3.75
 44
0.1875
 45
0.0
 46
0.0
 47
0.0
 48
0.0
 49
2.5
140
0.125
141
2.5
142
0.0625
143
0.03937007874
144
100.0
145
0.0
146
0.5
147
0.05
148
0.0
 69
0
 70
0
 71
0
 72
0
 73
0
 74
0
 75
0
 76
0
 77
1
 78
12
 79
3
170
0
171
3
172
1
173
0
174
0
175
0
176
0
177
0
178
0
179
2
271
2
272
2
273
2
274
3
275
0
276
0
277
2
278
46
279
2
280
0
281
0
282
0
283
0
284
8
285
0
286
0
288
1
289
3
290
0
340
4C
371
-2
372
-2
  0
DIMSTYLE
105
7E
330
4
100
AcDbSymbolTableRecord
100
AcDbDimStyleTableRecord
  2
EZ_M_25_H25_CM
 70
0
 40
1.0
 41
0.0625
 42
0.03125
 43
3.75
 44
0.09375
 45
0.0
 46
0.0
 47
0.0
 48
0.0
 49
2.5
140
0.0625
141
2.5
142
0.03125
143
0.03937007874
144
100.0
145
0.0
146
0.5
147
0.025
148
0.0
 69
0
 70
0
 71
0
 72
0
 73
0
 74
0
 75
0
 76
0
 77
1
 78
12
 79
3
170
0
171
3
172
1
173
0
174
0
175
0
176
0
177
0
178
0
179
2
271
2
272
2
273
2
274
3
275
0
276
0
277
2
278
46
279
2
280
0
281
0
282
0
283
0
284
8
285
0
286
0
288
1
289
3
290
0
340
4C
371
-2
372
-2
  0
DIMSTYLE
105
7F
330
4
100
AcDbSymbolTableRecord
100
AcDbDimStyleTableRecord
  2
EZ_M_20_H25_CM
 70
0
 40
1.0
 41
0.05
 42
0.025
 43
3.75
 44
0.07500000000000001
 45
0.0
 46
0.0
 47
0.0
 48
0.0
 49
2.5
140
0.05
141
2.5
142
0.025
143
0.03937007874
144
100.0
145
0.0
146
0.5
147
0.020000000000000004
148
0.0
 69
0
 70
0
 71
0
 72
0
 73
0
 74
0
 75
0
 76
0
 77
1
 78
12
 79
3
170
0
171
3
172
1
173
0
174
0
175
0
176
0
177
0
178
0
179
2
271
2
272
2
273
2
274
3
275
0
276
0
277
2
278
46
279
2
280
0
281
0
282
0
283
0
284
8
285
0
286
0
288
1
289
3
290
0
340
4C
371
-2
372
-2
  0
DIMSTYLE
105
80
330
4
100
AcDbSymbolTableRecord
100
AcDbDimStyleTableRecord
  2
EZ_M_10_H25_CM
 70
0
 40
1.0
 41
0.025
 42
0.0125
 43
3.75
 44
0.037500000000000006
 45
0.0
 46
0.0
 47
0.0
 48
0.0
 49
2.5
140
0.025
141
2.5
142
0.0125
143
0.03937007874
144
100.0
145
0.0
146
0.5
147
0.010000000000000002
148
0.0
 69
0
 70
0
 71
0
 72
0
 73
0
 74
0
 75
0
 76
0
 77
1
 78
12
 79
3
170
0
171
3
172
1
173
0
174
0
175
0
176
0
177
0
178
0
179
2
271
2
272
2
273
2
274
3
275
0
276
0
277
2
278
46
279
2
280
0
281
0
282
0
283
0
284
8
285
0
286
0
288
1
289
3
290
0
340
4C
371
-2
372
-2
  0
DIMSTYLE
105
81
330
4
100
AcDbSymbolTableRecord
100
AcDbDimStyleTableRecord
  2
EZ_M_5_H25_CM
 70
0
 40
1.0
 41
0.0125
 42
0.00625
 43
3.75
 44
0.018750000000000003
 45
0.0
 46
0.0
 47
0.0
 48
0.0
 49
2.5
140
0.0125
141
2.5
142
0.00625
143
0.03937007874
144
100.0
145
0.0
146
0.5
147
0.005000000000000001
148
0.0
 69
0
 70
0
 71
0
 72
0
 73
0
 74
0
 75
0
 76
0
 77
1
 78
12
 79
3
170
0
171
3
172
1
173
0
174
0
175
0
176
0
177
0
178
0
179
2
271
2
272
2
273
2
274
3
275
0
276
0
277
2
278
46
279
2
280
0
281
0
282
0
283
0
284
8
285
0
286
0
288
1
289
3
290
0
340
4C
371
-2
372
-2
  0
DIMSTYLE
105
82
330
4
100
AcDbSymbolTableRecord
100
AcDbDimStyleTableRecord
  2
EZ_M_1_H25_CM
 70
0
 40
1.0
 41
0.0025
 42
0.00125
 43
3.75
 44
0.00375
 45
0.0
 46
0.0
 47
0.0
 48
0.0
 49
2.5
140
0.0025
141
2.5
142
0.00125
143
0.03937007874
144
100.0
145
0.0
146
0.5
147
0.001
148
0.0
 69
0
 70
0
 71
0
 72
0
 73
0
 74
0
 75
0
 76
0
 77
1
 78
12
 79
3
170
0
171
3
172
1
173
0
174
0
175
0
176
0
177
0
178
0
179
2
271
2
272
2
273
2
274
3
275
0
276
0
277
2
278
46
279
2
280
0
281
0
282
0
283
0
284
8
285
0
286
0
288
1
289
3
290
0
340
4C
371
-2
372
-2
  0
DIMSTYLE
105
83
330
4
100
AcDbSymbolTableRecord
100
AcDbDimStyleTableRecord
  2
EZ_RADIUS
 70
0
 40
1.0
 41
0.25
 42
0.125
 43
3.75
 44
0.375
 45
0.0
 46
0.0
 47
0.0
 48
0.0
 49
2.5
140
0.25
141
0.0
142
0.0
143
0.03937007874
144
100.0
145
0.0
146
0.5
147
0.1
148
0.0
 69
0
 70
0
 71
0
 72
0
 73
0
 74
0
 75
0
 76
0
 77
1
 78
12
 79
3
170
0
171
3
172
0
173
0
174
0
175
0
176
0
177
0
178
0
179
2
271
2
272
2
273
2
274
3
275
0
276
0
277
2
278
46
279
1
280
0
281
0
282
0
283
0
284
8
285
0
286
0
288
1
289
3
290
0
340
4C
342
84
371
-2
372
-2
  0
DIMSTYLE
105
88
330
4
100
AcDbSymbolTableRecord
100
AcDbDimStyleTableRecord
  2
EZ_RADIUS_INSIDE
 70
0
 40
1.0
 41
0.25
 42
0.125
 43
3.75
 44
0.375
 45
0.0
 46
0.0
 47
0.0
 48
0.0
 49
2.5
140
0.25
141
0.0
142
0.0
143
0.03937007874
144
100.0
145
0.0
146
0.5
147
0.1
148
0.0
 69
0
 70
0
 71
0
 72
0
 73
0
 74
0
 75
0
 76
0
 77
0
 78
12
 79
3
170
0
171
3
172
0
173
0
174
1
175
0
176
0
177
0
178
0
179
2
271
2
272
2
273
2
274
3
275
0
276
0
277
2
278
46
279
0
280
0
281
0
282
0
283
0
284
8
285
0
286
0
288
1
289
0
290
0
340
4C
342
84
371
-2
372
-2
  0
DIMSTYLE
105
89
330
4
100
AcDbSymbolTableRecord
100
AcDbDimStyleTableRecord
  2
EZ_CURVED
 70
0
 40
1.0
 41
0.25
 42
0.125
 43
3.75
 44
0.375
 45
0.0
 46
0.0
 47
0.0
 48
0.0
 49
2.5
140
0.25
141
2.5
142
0.0
143
0.03937007874
144
100.0
145
0.0
146
0.5
147
0.1
148
0.0
 69
0
 70
0
 71
0
 72
0
 73
0
 74
0
 75
0
 76
0
 77
1
 78
12
 79
2
 90
2
170
0
171
3
172
1
173
0
174
0
175
0
176
0
177
0
178
0
179
2
271
2
272
2
273
2
274
3
275
0
276
0
277
2
278
46
279
2
280
0
281
0
282
0
283
0
284
8
285
0
286
0
288
1
289
3
290
0
340
4C
371
-2
372
-2
  0
DIMSTYLE
105
96
330
4
100
AcDbSymbolTableRecord
100
AcDbDimStyleTableRecord
  2
KP17
 70
0
 40
1.0
 41
1.8
 42
0.8
 43
3.75
 44
1.2
 45
0.0
 46
0.0
 47
0.0
 48
0.0
 49
2.5
140
2.5
141
2.5
142
0.0
143
0.03937007874
144
1.0
145
0.0
146
1.0
147
0.6
148
0.0
 69
0
 70
0
 71
0
 72
0
 73
0
 74
0
 75
0
 76
0
 77
1
 78
8
 79
3
170
0
171
3
172
1
173
0
174
0
175
0
176
7
177
7
178
7
179
2
271
2
272
2
273
2
274
3
275
0
276
0
277
2
278
44
279
0
280
0
281
0
282
0
283
0
284
8
285
0
286
0
288
0
289
3
290
0
340
94
371
13
372
13
  0
ENDTAB
  0
TABLE
  2
BLOCK_RECORD
  5
9
330
0
100
AcDbSymbolTable
 70
38
  0
BLOCK_RECORD
  5
17
330
9
100
AcDbSymbolTableRecord
100
AcDbBlockTableRecord
  2
*Model_Space
340
1A
 70
0
280
1
281
0
  0
BLOCK_RECORD
  5
1B
330
9
100
AcDbSymbolTableRecord
100
AcDbBlockTableRecord
  2
*Paper_Space
340
1E
 70
0
280
1
281
0
  0
BLOCK_RECORD
  5
74
330
9
100
AcDbSymbolTableRecord
100
AcDbBlockTableRecord
  2
_ARCHTICK
340
0
 70
0
280
1
281
0
  0
BLOCK_RECORD
  5
78
330
9
100
AcDbSymbolTableRecord
100
AcDbBlockTableRecord
  2
_CLOSEDFILLED
340
0
 70
0
280
1
281
0
  0
BLOCK_RECORD
  5
84
330
9
100
AcDbSymbolTableRecord
100
AcDbBlockTableRecord
  2
_CLOSEDBLANK
340
0
 70
0
280
1
281
0
  0
BLOCK_RECORD
  5
AA
330
9
100
AcDbSymbolTableRecord
100
AcDbBlockTableRecord
  2
*D1
340
0
 70
0
280
1
281
0
  0
BLOCK_RECORD
  5
BB
330
9
100
AcDbSymbolTableRecord
100
AcDbBlockTableRecord
  2
*D2
340
0
 70
0
280
1
281
0
  0
BLOCK_RECORD
  5
CC
330
9
100
AcDbSymbolTableRecord
100
AcDbBlockTableRecord
  2
*D3
340
0
 70
0
280
1
281
0
  0
BLOCK_RECORD
  5
DD
330
9
100
AcDbSymbolTableRecord
100
AcDbBlockTableRecord
  2
*D4
340
0
 70
0
280
1
281
0
  0
BLOCK_RECORD
  5
EE
330
9
100
AcDbSymbolTableRecord
100
AcDbBlockTableRecord
  2
*D5
340
0
 70
0
280
1
281
0
  0
BLOCK_RECORD
  5
FF
330
9
100
AcDbSymbolTableRecord
100
AcDbBlockTableRecord
  2
*D6
340
0
 70
0
280
1
281
0
  0
BLOCK_RECORD
  5
110
330
9
100
AcDbSymbolTableRecord
100
AcDbBlockTableRecord
  2
*D7
340
0
 70
0
280
1
281
0
  0
BLOCK_RECORD
  5
121
330
9
100
AcDbSymbolTableRecord
100
AcDbBlockTableRecord
  2
*D8
340
0
 70
0
280
1
281
0
  0
BLOCK_RECORD
  5
130
330
9
100
AcDbSymbolTableRecord
100
AcDbBlockTableRecord
  2
*D9
340
0
 70
0
280
1
281
0
  0
BLOCK_RECORD
  5
142
330
9
100
AcDbSymbolTableRecord
100
AcDbBlockTableRecord
  2
*D10
340
0
 70
0
280
1
281
0
  0
BLOCK_RECORD
  5
151
330
9
100
AcDbSymbolTableRecord
100
AcDbBlockTableRecord
  2
*D11
340
0
 70
0
280
1
281
0
  0
BLOCK_RECORD
  5
163
330
9
100
AcDbSymbolTableRecord
100
AcDbBlockTableRecord
  2
*D12
340
0
 70
0
280
1
281
0
  0
BLOCK_RECORD
  5
172
330
9
100
AcDbSymbolTableRecord
100
AcDbBlockTableRecord
  2
*D13
340
0
 70
0
280
1
281
0
  0
BLOCK_RECORD
  5
185
330
9
100
AcDbSymbolTableRecord
100
AcDbBlockTableRecord
  2
*D14
340
0
 70
0
280
1
281
0
  0
BLOCK_RECORD
  5
19A
330
9
100
AcDbSymbolTableRecord
100
AcDbBlockTableRecord
  2
*D15
340
0
 70
0
280
1
281
0
  0
BLOCK_RECORD
  5
1A9
330
9
100
AcDbSymbolTableRecord
100
AcDbBlockTableRecord
  2
*D16
340
0
 70
0
280
1
281
0
  0
BLOCK_RECORD
  5
1BE
330
9
100
AcDbSymbolTableRecord
100
AcDbBlockTableRecord
  2
*D17
340
0
 70
0
280
1
281
0
  0
BLOCK_RECORD
  5
1CD
330
9
100
AcDbSymbolTableRecord
100
AcDbBlockTableRecord
  2
*D18
340
0
 70
0
280
1
281
0
  0
BLOCK_RECORD
  5
1E2
330
9
100
AcDbSymbolTableRecord
100
AcDbBlockTableRecord
  2
*D19
340
0
 70
0
280
1
281
0
  0
BLOCK_RECORD
  5
1F1
330
9
100
AcDbSymbolTableRecord
100
AcDbBlockTableRecord
  2
*D20
340
0
 70
0
280
1
281
0
  0
BLOCK_RECORD
  5
206
330
9
100
AcDbSymbolTableRecord
100
AcDbBlockTableRecord
  2
*D21
340
0
 70
0
280
1
281
0
  0
BLOCK_RECORD
  5
215
330
9
100
AcDbSymbolTableRecord
100
AcDbBlockTableRecord
  2
*D22
340
0
 70
0
280
1
281
0
  0
BLOCK_RECORD
  5
22A
330
9
100
AcDbSymbolTableRecord
100
AcDbBlockTableRecord
  2
*D23
340
0
 70
0
280
1
281
0
  0
BLOCK_RECORD
  5
239
330
9
100
AcDbSymbolTableRecord
100
AcDbBlockTableRecord
  2
*D24
340
0
 70
0
280
1
281
0
  0
BLOCK_RECORD
  5
24E
330
9
100
AcDbSymbolTableRecord
100
AcDbBlockTableRecord
  2
*D25
340
0
 70
0
280
1
281
0
  0
BLOCK_RECORD
  5
25D
330
9
100
AcDbSymbolTableRecord
100
AcDbBlockTableRecord
  2
*D26
340
0
 70
0
280
1
281
0
  0
BLOCK_RECORD
  5
272
330
9
100
AcDbSymbolTableRecord
100
AcDbBlockTableRecord
  2
*D27
340
0
 70
0
280
1
281
0
  0
BLOCK_RECORD
  5
281
330
9
100
AcDbSymbolTableRecord
100
AcDbBlockTableRecord
  2
*D28
340
0
 70
0
280
1
281
0
  0
BLOCK_RECORD
  5
297
330
9
100
AcDbSymbolTableRecord
100
AcDbBlockTableRecord
  2
*D29
340
0
 70
0
280
1
281
0
  0
BLOCK_RECORD
  5
2A6
330
9
100
AcDbSymbolTableRecord
100
AcDbBlockTableRecord
  2
*D30
340
0
 70
0
280
1
281
0
  0
BLOCK_RECORD
  5
2B4
330
9
100
AcDbSymbolTableRecord
100
AcDbBlockTableRecord
  2
TABLE_STEEL_KP17
340
0
 70
0
280
1
281
0
  0
BLOCK_RECORD
  5
2FB
330
9
100
AcDbSymbolTableRecord
100
AcDbBlockTableRecord
  2
TABLE_WELDS_KP17
340
0
 70
0
280
1
281
0
  0
BLOCK_RECORD
  5
336
330
9
100
AcDbSymbolTableRecord
100
AcDbBlockTableRecord
  2
TABLE_SPEC_KP17
340
0
 70
0
280
1
281
0
  0
ENDTAB
  0
ENDSEC
  0
SECTION
  2
BLOCKS
  0
BLOCK
  5
18
330
17
100
AcDbEntity
  8
0
100
AcDbBlockBegin
  2
*Model_Space
 70
0
 10
0.0
 20
0.0
 30
0.0
  3
*Model_Space
  1

  0
ENDBLK
  5
19
330
17
100
AcDbEntity
  8
0
100
AcDbBlockEnd
  0
BLOCK
  5
1C
330
1B
100
AcDbEntity
  8
0
100
AcDbBlockBegin
  2
*Paper_Space
 70
0
 10
0.0
 20
0.0
 30
0.0
  3
*Paper_Space
  1

  0
ENDBLK
  5
1D
330
1B
100
AcDbEntity
  8
0
100
AcDbBlockEnd
  0
BLOCK
  5
75
330
74
100
AcDbEntity
  8
0
100
AcDbBlockBegin
  2
_ARCHTICK
 70
0
 10
0.0
 20
0.0
 30
0.0
  3
_ARCHTICK
  1

  0
LWPOLYLINE
  5
77
330
74
100
AcDbEntity
  8
0
  6
BYBLOCK
 62
0
100
AcDbPolyline
 90
2
 70
0
 43
0.15
 10
-0.5
 20
-0.5
 10
0.5
 20
0.5
  0
ENDBLK
  5
76
330
74
100
AcDbEntity
  8
0
100
AcDbBlockEnd
  0
BLOCK
  5
79
330
78
100
AcDbEntity
  8
0
100
AcDbBlockBegin
  2
_CLOSEDFILLED
 70
0
 10
0.0
 20
0.0
 30
0.0
  3
_CLOSEDFILLED
  1

  0
SOLID
  5
7B
330
78
100
AcDbEntity
  8
0
  6
BYBLOCK
 62
0
100
AcDbTrace
 10
-1.0
 20
0.16439898372402537
 30
0.0
 11
0.0
 21
0.0
 31
0.0
 12
-1.0
 22
-0.16439898372402537
 32
0.0
 13
-1.0
 23
-0.16439898372402537
 33
0.0
  0
ENDBLK
  5
7A
330
78
100
AcDbEntity
  8
0
100
AcDbBlockEnd
  0
BLOCK
  5
85
330
84
100
AcDbEntity
  8
0
100
AcDbBlockBegin
  2
_CLOSEDBLANK
 70
0
 10
0.0
 20
0.0
 30
0.0
  3
_CLOSEDBLANK
  1

  0
LWPOLYLINE
  5
87
330
84
100
AcDbEntity
  8
0
  6
BYBLOCK
 62
0
100
AcDbPolyline
 90
3
 70
1
 10
-1.0
 20
0.16439898372402537
 10
0.0
 20
0.0
 10
-1.0
 20
-0.16439898372402537
  0
ENDBLK
  5
86
330
84
100
AcDbEntity
  8
0
100
AcDbBlockEnd
  0
BLOCK
  5
AB
330
AA
100
AcDbEntity
  8
0
100
AcDbBlockBegin
  2
*D1
 70
1
 10
0.0
 20
0.0
 30
0.0
  3
*D1
  1

  0
LINE
  5
AD
330
AA
100
AcDbEntity
  8
0
 62
7
370
13
100
AcDbLine
 10
38.2
 20
90.0
 30
0.0
 11
29.8
 21
90.0
 31
0.0
  0
LINE
  5
AE
330
AA
100
AcDbEntity
  8
0
 62
7
370
13
100
AcDbLine
 10
38.2
 20
151.0
 30
0.0
 11
29.8
 21
151.0
 31
0.0
  0
INSERT
  5
AF
330
AA
100
AcDbEntity
  8
DIMS
 62
7
100
AcDbBlockReference
  2
_CLOSEDFILLED
 10
31.0
 20
90.0
 30
0.0
 41
1.8
 42
1.8
 50
270.0
  0
INSERT
  5
B1
330
AA
100
AcDbEntity
  8
DIMS
 62
7
100
AcDbBlockReference
  2
_CLOSEDFILLED
 10
31.0
 20
151.0
 30
0.0
 41
1.8
 42
1.8
 50
90.0
  0
LINE
  5
B3
330
AA
100
AcDbEntity
  8
0
 62
7
370
13
100
AcDbLine
 10
31.0
 20
91.8
 30
0.0
 11
31.0
 21
149.2
 31
0.0
  0
MTEXT
  5
B4
330
AA
100
AcDbEntity
  8
DIMS
 62
7
100
AcDbMText
 10
29.15
 20
120.5
 30
0.0
 40
2.5
 71
5
  1
3050
  7
GOST
 50
90.0
  0
POINT
  5
B5
330
AA
100
AcDbEntity
  8
Defpoints
100
AcDbPoint
 10
31.0
 20
90.0
 30
0.0
  0
POINT
  5
B6
330
AA
100
AcDbEntity
  8
Defpoints
100
AcDbPoint
 10
39.0
 20
90.0
 30
0.0
  0
POINT
  5
B7
330
AA
100
AcDbEntity
  8
Defpoints
100
AcDbPoint
 10
39.0
 20
151.0
 30
0.0
  0
ENDBLK
  5
AC
330
AA
100
AcDbEntity
  8
0
100
AcDbBlockEnd
  0
BLOCK
  5
BC
330
BB
100
AcDbEntity
  8
0
100
AcDbBlockBegin
  2
*D2
 70
1
 10
0.0
 20
0.0
 30
0.0
  3
*D2
  1

  0
LINE
  5
BE
330
BB
100
AcDbEntity
  8
0
 62
7
370
13
100
AcDbLine
 10
38.2
 20
151.0
 30
0.0
 11
29.8
 21
151.0
 31
0.0
  0
LINE
  5
BF
330
BB
100
AcDbEntity
  8
0
 62
7
370
13
100
AcDbLine
 10
38.2
 20
385.0
 30
0.0
 11
29.8
 21
385.0
 31
0.0
  0
INSERT
  5
C0
330
BB
100
AcDbEntity
  8
DIMS
 62
7
100
AcDbBlockReference
  2
_CLOSEDFILLED
 10
31.0
 20
151.0
 30
0.0
 41
1.8
 42
1.8
 50
270.0
  0
INSERT
  5
C2
330
BB
100
AcDbEntity
  8
DIMS
 62
7
100
AcDbBlockReference
  2
_CLOSEDFILLED
 10
31.0
 20
385.0
 30
0.0
 41
1.8
 42
1.8
 50
90.0
  0
LINE
  5
C4
330
BB
100
AcDbEntity
  8
0
 62
7
370
13
100
AcDbLine
 10
31.0
 20
152.8
 30
0.0
 11
31.0
 21
383.2
 31
0.0
  0
MTEXT
  5
C5
330
BB
100
AcDbEntity
  8
DIMS
 62
7
100
AcDbMText
 10
29.15
 20
268.0
 30
0.0
 40
2.5
 71
5
  1
11700
  7
GOST
 50
90.0
  0
POINT
  5
C6
330
BB
100
AcDbEntity
  8
Defpoints
100
AcDbPoint
 10
31.0
 20
151.0
 30
0.0
  0
POINT
  5
C7
330
BB
100
AcDbEntity
  8
Defpoints
100
AcDbPoint
 10
39.0
 20
151.0
 30
0.0
  0
POINT
  5
C8
330
BB
100
AcDbEntity
  8
Defpoints
100
AcDbPoint
 10
39.0
 20
385.0
 30
0.0
  0
ENDBLK
  5
BD
330
BB
100
AcDbEntity
  8
0
100
AcDbBlockEnd
  0
BLOCK
  5
CD
330
CC
100
AcDbEntity
  8
0
100
AcDbBlockBegin
  2
*D3
 70
1
 10
0.0
 20
0.0
 30
0.0
  3
*D3
  1

  0
LINE
  5
CF
330
CC
100
AcDbEntity
  8
0
 62
7
370
13
100
AcDbLine
 10
38.2
 20
385.0
 30
0.0
 11
29.8
 21
385.0
 31
0.0
  0
LINE
  5
D0
330
CC
100
AcDbEntity
  8
0
 62
7
370
13
100
AcDbLine
 10
38.2
 20
619.0
 30
0.0
 11
29.8
 21
619.0
 31
0.0
  0
INSERT
  5
D1
330
CC
100
AcDbEntity
  8
DIMS
 62
7
100
AcDbBlockReference
  2
_CLOSEDFILLED
 10
31.0
 20
385.0
 30
0.0
 41
1.8
 42
1.8
 50
270.0
  0
INSERT
  5
D3
330
CC
100
AcDbEntity
  8
DIMS
 62
7
100
AcDbBlockReference
  2
_CLOSEDFILLED
 10
31.0
 20
619.0
 30
0.0
 41
1.8
 42
1.8
 50
90.0
  0
LINE
  5
D5
330
CC
100
AcDbEntity
  8
0
 62
7
370
13
100
AcDbLine
 10
31.0
 20
386.8
 30
0.0
 11
31.0
 21
617.2
 31
0.0
  0
MTEXT
  5
D6
330
CC
100
AcDbEntity
  8
DIMS
 62
7
100
AcDbMText
 10
29.15
 20
502.0
 30
0.0
 40
2.5
 71
5
  1
11700
  7
GOST
 50
90.0
  0
POINT
  5
D7
330
CC
100
AcDbEntity
  8
Defpoints
100
AcDbPoint
 10
31.0
 20
385.0
 30
0.0
  0
POINT
  5
D8
330
CC
100
AcDbEntity
  8
Defpoints
100
AcDbPoint
 10
39.0
 20
385.0
 30
0.0
  0
POINT
  5
D9
330
CC
100
AcDbEntity
  8
Defpoints
100
AcDbPoint
 10
39.0
 20
619.0
 30
0.0
  0
ENDBLK
  5
CE
330
CC
100
AcDbEntity
  8
0
100
AcDbBlockEnd
  0
BLOCK
  5
DE
330
DD
100
AcDbEntity
  8
0
100
AcDbBlockBegin
  2
*D4
 70
1
 10
0.0
 20
0.0
 30
0.0
  3
*D4
  1

  0
LINE
  5
E0
330
DD
100
AcDbEntity
  8
0
 62
7
370
13
100
AcDbLine
 10
38.2
 20
619.0
 30
0.0
 11
29.8
 21
619.0
 31
0.0
  0
LINE
  5
E1
330
DD
100
AcDbEntity
  8
0
 62
7
370
13
100
AcDbLine
 10
38.2
 20
736.0
 30
0.0
 11
29.8
 21
736.0
 31
0.0
  0
INSERT
  5
E2
330
DD
100
AcDbEntity
  8
DIMS
 62
7
100
AcDbBlockReference
  2
_CLOSEDFILLED
 10
31.0
 20
619.0
 30
0.0
 41
1.8
 42
1.8
 50
270.0
  0
INSERT
  5
E4
330
DD
100
AcDbEntity
  8
DIMS
 62
7
100
AcDbBlockReference
  2
_CLOSEDFILLED
 10
31.0
 20
736.0
 30
0.0
 41
1.8
 42
1.8
 50
90.0
  0
LINE
  5
E6
330
DD
100
AcDbEntity
  8
0
 62
7
370
13
100
AcDbLine
 10
31.0
 20
620.8
 30
0.0
 11
31.0
 21
734.2
 31
0.0
  0
MTEXT
  5
E7
330
DD
100
AcDbEntity
  8
DIMS
 62
7
100
AcDbMText
 10
29.15
 20
677.5
 30
0.0
 40
2.5
 71
5
  1
5850
  7
GOST
 50
90.0
  0
POINT
  5
E8
330
DD
100
AcDbEntity
  8
Defpoints
100
AcDbPoint
 10
31.0
 20
619.0
 30
0.0
  0
POINT
  5
E9
330
DD
100
AcDbEntity
  8
Defpoints
100
AcDbPoint
 10
39.0
 20
619.0
 30
0.0
  0
POINT
  5
EA
330
DD
100
AcDbEntity
  8
Defpoints
100
AcDbPoint
 10
39.0
 20
736.0
 30
0.0
  0
ENDBLK
  5
DF
330
DD
100
AcDbEntity
  8
0
100
AcDbBlockEnd
  0
BLOCK
  5
EF
330
EE
100
AcDbEntity
  8
0
100
AcDbBlockBegin
  2
*D5
 70
1
 10
0.0
 20
0.0
 30
0.0
  3
*D5
  1

  0
LINE
  5
F1
330
EE
100
AcDbEntity
  8
0
 62
7
370
13
100
AcDbLine
 10
56.2
 20
90.0
 30
0.0
 11
47.8
 21
90.0
 31
0.0
  0
LINE
  5
F2
330
EE
100
AcDbEntity
  8
0
 62
7
370
13
100
AcDbLine
 10
56.2
 20
207.0
 30
0.0
 11
47.8
 21
207.0
 31
0.0
  0
INSERT
  5
F3
330
EE
100
AcDbEntity
  8
DIMS
 62
7
100
AcDbBlockReference
  2
_CLOSEDFILLED
 10
49.0
 20
90.0
 30
0.0
 41
1.8
 42
1.8
 50
270.0
  0
INSERT
  5
F5
330
EE
100
AcDbEntity
  8
DIMS
 62
7
100
AcDbBlockReference
  2
_CLOSEDFILLED
 10
49.0
 20
207.0
 30
0.0
 41
1.8
 42
1.8
 50
90.0
  0
LINE
  5
F7
330
EE
100
AcDbEntity
  8
0
 62
7
370
13
100
AcDbLine
 10
49.0
 20
91.8
 30
0.0
 11
49.0
 21
205.2
 31
0.0
  0
MTEXT
  5
F8
330
EE
100
AcDbEntity
  8
DIMS
 62
7
100
AcDbMText
 10
47.15
 20
148.5
 30
0.0
 40
2.5
 71
5
  1
5850
  7
GOST
 50
90.0
  0
POINT
  5
F9
330
EE
100
AcDbEntity
  8
Defpoints
100
AcDbPoint
 10
49.0
 20
90.0
 30
0.0
  0
POINT
  5
FA
330
EE
100
AcDbEntity
  8
Defpoints
100
AcDbPoint
 10
57.0
 20
90.0
 30
0.0
  0
POINT
  5
FB
330
EE
100
AcDbEntity
  8
Defpoints
100
AcDbPoint
 10
57.0
 20
207.0
 30
0.0
  0
ENDBLK
  5
F0
330
EE
100
AcDbEntity
  8
0
100
AcDbBlockEnd
  0
BLOCK
  5
100
330
FF
100
AcDbEntity
  8
0
100
AcDbBlockBegin
  2
*D6
 70
1
 10
0.0
 20
0.0
 30
0.0
  3
*D6
  1

  0
LINE
  5
102
330
FF
100
AcDbEntity
  8
0
 62
7
370
13
100
AcDbLine
 10
56.2
 20
207.0
 30
0.0
 11
47.8
 21
207.0
 31
0.0
  0
LINE
  5
103
330
FF
100
AcDbEntity
  8
0
 62
7
370
13
100
AcDbLine
 10
56.2
 20
376.0
 30
0.0
 11
47.8
 21
376.0
 31
0.0
  0
INSERT
  5
104
330
FF
100
AcDbEntity
  8
DIMS
 62
7
100
AcDbBlockReference
  2
_CLOSEDFILLED
 10
49.0
 20
207.0
 30
0.0
 41
1.8
 42
1.8
 50
270.0
  0
INSERT
  5
106
330
FF
100
AcDbEntity
  8
DIMS
 62
7
100
AcDbBlockReference
  2
_CLOSEDFILLED
 10
49.0
 20
376.0
 30
0.0
 41
1.8
 42
1.8
 50
90.0
  0
LINE
  5
108
330
FF
100
AcDbEntity
  8
0
 62
7
370
13
100
AcDbLine
 10
49.0
 20
208.8
 30
0.0
 11
49.0
 21
374.2
 31
0.0
  0
MTEXT
  5
109
330
FF
100
AcDbEntity
  8
DIMS
 62
7
100
AcDbMText
 10
47.15
 20
291.5
 30
0.0
 40
2.5
 71
5
  1
8450
  7
GOST
 50
90.0
  0
POINT
  5
10A
330
FF
100
AcDbEntity
  8
Defpoints
100
AcDbPoint
 10
49.0
 20
207.0
 30
0.0
  0
POINT
  5
10B
330
FF
100
AcDbEntity
  8
Defpoints
100
AcDbPoint
 10
57.0
 20
207.0
 30
0.0
  0
POINT
  5
10C
330
FF
100
AcDbEntity
  8
Defpoints
100
AcDbPoint
 10
57.0
 20
376.0
 30
0.0
  0
ENDBLK
  5
101
330
FF
100
AcDbEntity
  8
0
100
AcDbBlockEnd
  0
BLOCK
  5
111
330
110
100
AcDbEntity
  8
0
100
AcDbBlockBegin
  2
*D7
 70
1
 10
0.0
 20
0.0
 30
0.0
  3
*D7
  1

  0
LINE
  5
113
330
110
100
AcDbEntity
  8
0
 62
7
370
13
100
AcDbLine
 10
56.2
 20
376.0
 30
0.0
 11
47.8
 21
376.0
 31
0.0
  0
LINE
  5
114
330
110
100
AcDbEntity
  8
0
 62
7
370
13
100
AcDbLine
 10
56.2
 20
610.0
 30
0.0
 11
47.8
 21
610.0
 31
0.0
  0
INSERT
  5
115
330
110
100
AcDbEntity
  8
DIMS
 62
7
100
AcDbBlockReference
  2
_CLOSEDFILLED
 10
49.0
 20
376.0
 30
0.0
 41
1.8
 42
1.8
 50
270.0
  0
INSERT
  5
117
330
110
100
AcDbEntity
  8
DIMS
 62
7
100
AcDbBlockReference
  2
_CLOSEDFILLED
 10
49.0
 20
610.0
 30
0.0
 41
1.8
 42
1.8
 50
90.0
  0
LINE
  5
119
330
110
100
AcDbEntity
  8
0
 62
7
370
13
100
AcDbLine
 10
49.0
 20
377.8
 30
0.0
 11
49.0
 21
608.2
 31
0.0
  0
MTEXT
  5
11A
330
110
100
AcDbEntity
  8
DIMS
 62
7
100
AcDbMText
 10
47.15
 20
493.0
 30
0.0
 40
2.5
 71
5
  1
11700
  7
GOST
 50
90.0
  0
POINT
  5
11B
330
110
100
AcDbEntity
  8
Defpoints
100
AcDbPoint
 10
49.0
 20
376.0
 30
0.0
  0
POINT
  5
11C
330
110
100
AcDbEntity
  8
Defpoints
100
AcDbPoint
 10
57.0
 20
376.0
 30
0.0
  0
POINT
  5
11D
330
110
100
AcDbEntity
  8
Defpoints
100
AcDbPoint
 10
57.0
 20
610.0
 30
0.0
  0
ENDBLK
  5
112
330
110
100
AcDbEntity
  8
0
100
AcDbBlockEnd
  0
BLOCK
  5
122
330
121
100
AcDbEntity
  8
0
100
AcDbBlockBegin
  2
*D8
 70
1
 10
0.0
 20
0.0
 30
0.0
  3
*D8
  1

  0
LINE
  5
124
330
121
100
AcDbEntity
  8
0
 62
7
370
13
100
AcDbLine
 10
56.2
 20
610.0
 30
0.0
 11
47.8
 21
610.0
 31
0.0
  0
LINE
  5
125
330
121
100
AcDbEntity
  8
0
 62
7
370
13
100
AcDbLine
 10
56.2
 20
727.0
 30
0.0
 11
47.8
 21
727.0
 31
0.0
  0
INSERT
  5
126
330
121
100
AcDbEntity
  8
DIMS
 62
7
100
AcDbBlockReference
  2
_CLOSEDFILLED
 10
49.0
 20
610.0
 30
0.0
 41
1.8
 42
1.8
 50
270.0
  0
INSERT
  5
128
330
121
100
AcDbEntity
  8
DIMS
 62
7
100
AcDbBlockReference
  2
_CLOSEDFILLED
 10
49.0
 20
727.0
 30
0.0
 41
1.8
 42
1.8
 50
90.0
  0
LINE
  5
12A
330
121
100
AcDbEntity
  8
0
 62
7
370
13
100
AcDbLine
 10
49.0
 20
611.8
 30
0.0
 11
49.0
 21
725.2
 31
0.0
  0
MTEXT
  5
12B
330
121
100
AcDbEntity
  8
DIMS
 62
7
100
AcDbMText
 10
47.15
 20
668.5
 30
0.0
 40
2.5
 71
5
  1
5850
  7
GOST
 50
90.0
  0
POINT
  5
12C
330
121
100
AcDbEntity
  8
Defpoints
100
AcDbPoint
 10
49.0
 20
610.0
 30
0.0
  0
POINT
  5
12D
330
121
100
AcDbEntity
  8
Defpoints
100
AcDbPoint
 10
57.0
 20
610.0
 30
0.0
  0
POINT
  5
12E
330
121
100
AcDbEntity
  8
Defpoints
100
AcDbPoint
 10
57.0
 20
727.0
 30
0.0
  0
ENDBLK
  5
123
330
121
100
AcDbEntity
  8
0
100
AcDbBlockEnd
  0
BLOCK
  5
131
330
130
100
AcDbEntity
  8
0
100
AcDbBlockBegin
  2
*D9
 70
1
 10
0.0
 20
0.0
 30
0.0
  3
*D9
  1

  0
LINE
  5
133
330
130
100
AcDbEntity
  8
0
 62
7
370
13
100
AcDbLine
 10
26.2
 20
90.0
 30
0.0
 11
17.8
 21
90.0
 31
0.0
  0
LINE
  5
134
330
130
100
AcDbEntity
  8
0
 62
7
370
13
100
AcDbLine
 10
26.2
 20
709.0
 30
0.0
 11
17.8
 21
709.0
 31
0.0
  0
INSERT
  5
135
330
130
100
AcDbEntity
  8
DIMS
 62
7
100
AcDbBlockReference
  2
_CLOSEDFILLED
 10
19.0
 20
90.0
 30
0.0
 41
1.8
 42
1.8
 50
270.0
  0
INSERT
  5
137
330
130
100
AcDbEntity
  8
DIMS
 62
7
100
AcDbBlockReference
  2
_CLOSEDFILLED
 10
19.0
 20
709.0
 30
0.0
 41
1.8
 42
1.8
 50
90.0
  0
LINE
  5
139
330
130
100
AcDbEntity
  8
0
 62
7
370
13
100
AcDbLine
 10
19.0
 20
91.8
 30
0.0
 11
19.0
 21
707.2
 31
0.0
  0
MTEXT
  5
13A
330
130
100
AcDbEntity
  8
DIMS
 62
7
100
AcDbMText
 10
17.15
 20
399.5
 30
0.0
 40
2.5
 71
5
  1
30950
  7
GOST
 50
90.0
  0
POINT
  5
13B
330
130
100
AcDbEntity
  8
Defpoints
100
AcDbPoint
 10
19.0
 20
90.0
 30
0.0
  0
POINT
  5
13C
330
130
100
AcDbEntity
  8
Defpoints
100
AcDbPoint
 10
27.0
 20
90.0
 30
0.0
  0
POINT
  5
13D
330
130
100
AcDbEntity
  8
Defpoints
100
AcDbPoint
 10
27.0
 20
709.0
 30
0.0
  0
ENDBLK
  5
132
330
130
100
AcDbEntity
  8
0
100
AcDbBlockEnd
  0
BLOCK
  5
143
330
142
100
AcDbEntity
  8
0
100
AcDbBlockBegin
  2
*D10
 70
1
 10
0.0
 20
0.0
 30
0.0
  3
*D10
  1

  0
LINE
  5
145
330
142
100
AcDbEntity
  8
0
 62
7
370
13
100
AcDbLine
 10
130.0
 20
83.2
 30
0.0
 11
130.0
 21
74.8
 31
0.0
  0
LINE
  5
146
330
142
100
AcDbEntity
  8
0
 62
7
370
13
100
AcDbLine
 10
168.0
 20
83.2
 30
0.0
 11
168.0
 21
74.8
 31
0.0
  0
INSERT
  5
147
330
142
100
AcDbEntity
  8
DIMS
 62
7
100
AcDbBlockReference
  2
_CLOSEDFILLED
 10
130.0
 20
76.0
 30
0.0
 41
1.8
 42
1.8
 50
180.0
  0
INSERT
  5
149
330
142
100
AcDbEntity
  8
DIMS
 62
7
100
AcDbBlockReference
  2
_CLOSEDFILLED
 10
168.0
 20
76.0
 30
0.0
 41
1.8
 42
1.8
  0
LINE
  5
14B
330
142
100
AcDbEntity
  8
0
 62
7
370
13
100
AcDbLine
 10
131.8
 20
76.0
 30
0.0
 11
166.2
 21
76.0
 31
0.0
  0
MTEXT
  5
14C
330
142
100
AcDbEntity
  8
DIMS
 62
7
100
AcDbMText
 10
149.0
 20
77.85
 30
0.0
 40
2.5
 71
5
  1
1900
  7
GOST
  0
POINT
  5
14D
330
142
100
AcDbEntity
  8
Defpoints
100
AcDbPoint
 10
130.0
 20
76.0
 30
0.0
  0
POINT
  5
14E
330
142
100
AcDbEntity
  8
Defpoints
100
AcDbPoint
 10
130.0
 20
84.0
 30
0.0
  0
POINT
  5
14F
330
142
100
AcDbEntity
  8
Defpoints
100
AcDbPoint
 10
168.0
 20
84.0
 30
0.0
  0
ENDBLK
  5
144
330
142
100
AcDbEntity
  8
0
100
AcDbBlockEnd
  0
BLOCK
  5
152
330
151
100
AcDbEntity
  8
0
100
AcDbBlockBegin
  2
*D11
 70
1
 10
0.0
 20
0.0
 30
0.0
  3
*D11
  1

  0
LINE
  5
154
330
151
100
AcDbEntity
  8
0
 62
7
370
13
100
AcDbLine
 10
119.2
 20
90.0
 30
0.0
 11
110.8
 21
90.0
 31
0.0
  0
LINE
  5
155
330
151
100
AcDbEntity
  8
0
 62
7
370
13
100
AcDbLine
 10
119.2
 20
709.0
 30
0.0
 11
110.8
 21
709.0
 31
0.0
  0
INSERT
  5
156
330
151
100
AcDbEntity
  8
DIMS
 62
7
100
AcDbBlockReference
  2
_CLOSEDFILLED
 10
112.0
 20
90.0
 30
0.0
 41
1.8
 42
1.8
 50
270.0
  0
INSERT
  5
158
330
151
100
AcDbEntity
  8
DIMS
 62
7
100
AcDbBlockReference
  2
_CLOSEDFILLED
 10
112.0
 20
709.0
 30
0.0
 41
1.8
 42
1.8
 50
90.0
  0
LINE
  5
15A
330
151
100
AcDbEntity
  8
0
 62
7
370
13
100
AcDbLine
 10
112.0
 20
91.8
 30
0.0
 11
112.0
 21
707.2
 31
0.0
  0
MTEXT
  5
15B
330
151
100
AcDbEntity
  8
DIMS
 62
7
100
AcDbMText
 10
110.15
 20
399.5
 30
0.0
 40
2.5
 71
5
  1
30950
  7
GOST
 50
90.0
  0
POINT
  5
15C
330
151
100
AcDbEntity
  8
Defpoints
100
AcDbPoint
 10
112.0
 20
90.0
 30
0.0
  0
POINT
  5
15D
330
151
100
AcDbEntity
  8
Defpoints
100
AcDbPoint
 10
120.0
 20
90.0
 30
0.0
  0
POINT
  5
15E
330
151
100
AcDbEntity
  8
Defpoints
100
AcDbPoint
 10
120.0
 20
709.0
 30
0.0
  0
ENDBLK
  5
153
330
151
100
AcDbEntity
  8
0
100
AcDbBlockEnd
  0
BLOCK
  5
164
330
163
100
AcDbEntity
  8
0
100
AcDbBlockBegin
  2
*D12
 70
1
 10
0.0
 20
0.0
 30
0.0
  3
*D12
  1

  0
LINE
  5
166
330
163
100
AcDbEntity
  8
0
 62
7
370
13
100
AcDbLine
 10
200.0
 20
83.2
 30
0.0
 11
200.0
 21
74.8
 31
0.0
  0
LINE
  5
167
330
163
100
AcDbEntity
  8
0
 62
7
370
13
100
AcDbLine
 10
238.0
 20
83.2
 30
0.0
 11
238.0
 21
74.8
 31
0.0
  0
INSERT
  5
168
330
163
100
AcDbEntity
  8
DIMS
 62
7
100
AcDbBlockReference
  2
_CLOSEDFILLED
 10
200.0
 20
76.0
 30
0.0
 41
1.8
 42
1.8
 50
180.0
  0
INSERT
  5
16A
330
163
100
AcDbEntity
  8
DIMS
 62
7
100
AcDbBlockReference
  2
_CLOSEDFILLED
 10
238.0
 20
76.0
 30
0.0
 41
1.8
 42
1.8
  0
LINE
  5
16C
330
163
100
AcDbEntity
  8
0
 62
7
370
13
100
AcDbLine
 10
201.8
 20
76.0
 30
0.0
 11
236.2
 21
76.0
 31
0.0
  0
MTEXT
  5
16D
330
163
100
AcDbEntity
  8
DIMS
 62
7
100
AcDbMText
 10
219.0
 20
77.85
 30
0.0
 40
2.5
 71
5
  1
1900
  7
GOST
  0
POINT
  5
16E
330
163
100
AcDbEntity
  8
Defpoints
100
AcDbPoint
 10
200.0
 20
76.0
 30
0.0
  0
POINT
  5
16F
330
163
100
AcDbEntity
  8
Defpoints
100
AcDbPoint
 10
200.0
 20
84.0
 30
0.0
  0
POINT
  5
170
330
163
100
AcDbEntity
  8
Defpoints
100
AcDbPoint
 10
238.0
 20
84.0
 30
0.0
  0
ENDBLK
  5
165
330
163
100
AcDbEntity
  8
0
100
AcDbBlockEnd
  0
BLOCK
  5
173
330
172
100
AcDbEntity
  8
0
100
AcDbBlockBegin
  2
*D13
 70
1
 10
0.0
 20
0.0
 30
0.0
  3
*D13
  1

  0
LINE
  5
175
330
172
100
AcDbEntity
  8
0
 62
7
370
13
100
AcDbLine
 10
189.2
 20
90.0
 30
0.0
 11
180.8
 21
90.0
 31
0.0
  0
LINE
  5
176
330
172
100
AcDbEntity
  8
0
 62
7
370
13
100
AcDbLine
 10
189.2
 20
709.0
 30
0.0
 11
180.8
 21
709.0
 31
0.0
  0
INSERT
  5
177
330
172
100
AcDbEntity
  8
DIMS
 62
7
100
AcDbBlockReference
  2
_CLOSEDFILLED
 10
182.0
 20
90.0
 30
0.0
 41
1.8
 42
1.8
 50
270.0
  0
INSERT
  5
179
330
172
100
AcDbEntity
  8
DIMS
 62
7
100
AcDbBlockReference
  2
_CLOSEDFILLED
 10
182.0
 20
709.0
 30
0.0
 41
1.8
 42
1.8
 50
90.0
  0
LINE
  5
17B
330
172
100
AcDbEntity
  8
0
 62
7
370
13
100
AcDbLine
 10
182.0
 20
91.8
 30
0.0
 11
182.0
 21
707.2
 31
0.0
  0
MTEXT
  5
17C
330
172
100
AcDbEntity
  8
DIMS
 62
7
100
AcDbMText
 10
180.15
 20
399.5
 30
0.0
 40
2.5
 71
5
  1
30950
  7
GOST
 50
90.0
  0
POINT
  5
17D
330
172
100
AcDbEntity
  8
Defpoints
100
AcDbPoint
 10
182.0
 20
90.0
 30
0.0
  0
POINT
  5
17E
330
172
100
AcDbEntity
  8
Defpoints
100
AcDbPoint
 10
190.0
 20
90.0
 30
0.0
  0
POINT
  5
17F
330
172
100
AcDbEntity
  8
Defpoints
100
AcDbPoint
 10
190.0
 20
709.0
 30
0.0
  0
ENDBLK
  5
174
330
172
100
AcDbEntity
  8
0
100
AcDbBlockEnd
  0
BLOCK
  5
186
330
185
100
AcDbEntity
  8
0
100
AcDbBlockBegin
  2
*D14
 70
1
 10
0.0
 20
0.0
 30
0.0
  3
*D14
  1

  0
LINE
  5
188
330
185
100
AcDbEntity
  8
0
 62
7
370
13
100
AcDbLine
 10
263.2
 20
90.0
 30
0.0
 11
254.8
 21
90.0
 31
0.0
  0
LINE
  5
189
330
185
100
AcDbEntity
  8
0
 62
7
370
13
100
AcDbLine
 10
263.2
 20
709.0
 30
0.0
 11
254.8
 21
709.0
 31
0.0
  0
INSERT
  5
18A
330
185
100
AcDbEntity
  8
DIMS
 62
7
100
AcDbBlockReference
  2
_CLOSEDFILLED
 10
256.0
 20
90.0
 30
0.0
 41
1.8
 42
1.8
 50
270.0
  0
INSERT
  5
18C
330
185
100
AcDbEntity
  8
DIMS
 62
7
100
AcDbBlockReference
  2
_CLOSEDFILLED
 10
256.0
 20
709.0
 30
0.0
 41
1.8
 42
1.8
 50
90.0
  0
LINE
  5
18E
330
185
100
AcDbEntity
  8
0
 62
7
370
13
100
AcDbLine
 10
256.0
 20
91.8
 30
0.0
 11
256.0
 21
707.2
 31
0.0
  0
MTEXT
  5
18F
330
185
100
AcDbEntity
  8
DIMS
 62
7
100
AcDbMText
 10
254.15
 20
399.5
 30
0.0
 40
2.5
 71
5
  1
30950
  7
GOST
 50
90.0
  0
POINT
  5
190
330
185
100
AcDbEntity
  8
Defpoints
100
AcDbPoint
 10
256.0
 20
90.0
 30
0.0
  0
POINT
  5
191
330
185
100
AcDbEntity
  8
Defpoints
100
AcDbPoint
 10
264.0
 20
90.0
 30
0.0
  0
POINT
  5
192
330
185
100
AcDbEntity
  8
Defpoints
100
AcDbPoint
 10
264.0
 20
709.0
 30
0.0
  0
ENDBLK
  5
187
330
185
100
AcDbEntity
  8
0
100
AcDbBlockEnd
  0
BLOCK
  5
19B
330
19A
100
AcDbEntity
  8
0
100
AcDbBlockBegin
  2
*D15
 70
1
 10
0.0
 20
0.0
 30
0.0
  3
*D15
  1

  0
LINE
  5
19D
330
19A
100
AcDbEntity
  8
0
 62
7
370
13
100
AcDbLine
 10
320.0
 20
511.2
 30
0.0
 11
320.0
 21
502.8
 31
0.0
  0
LINE
  5
19E
330
19A
100
AcDbEntity
  8
0
 62
7
370
13
100
AcDbLine
 10
396.0
 20
511.2
 30
0.0
 11
396.0
 21
502.8
 31
0.0
  0
INSERT
  5
19F
330
19A
100
AcDbEntity
  8
DIMS
 62
7
100
AcDbBlockReference
  2
_CLOSEDFILLED
 10
320.0
 20
504.0
 30
0.0
 41
1.8
 42
1.8
 50
180.0
  0
INSERT
  5
1A1
330
19A
100
AcDbEntity
  8
DIMS
 62
7
100
AcDbBlockReference
  2
_CLOSEDFILLED
 10
396.0
 20
504.0
 30
0.0
 41
1.8
 42
1.8
  0
LINE
  5
1A3
330
19A
100
AcDbEntity
  8
0
 62
7
370
13
100
AcDbLine
 10
321.8
 20
504.0
 30
0.0
 11
394.2
 21
504.0
 31
0.0
  0
MTEXT
  5
1A4
330
19A
100
AcDbEntity
  8
DIMS
 62
7
100
AcDbMText
 10
358.0
 20
505.85
 30
0.0
 40
2.5
 71
5
  1
1900
  7
GOST
  0
POINT
  5
1A5
330
19A
100
AcDbEntity
  8
Defpoints
100
AcDbPoint
 10
320.0
 20
504.0
 30
0.0
  0
POINT
  5
1A6
330
19A
100
AcDbEntity
  8
Defpoints
100
AcDbPoint
 10
320.0
 20
512.0
 30
0.0
  0
POINT
  5
1A7
330
19A
100
AcDbEntity
  8
Defpoints
100
AcDbPoint
 10
396.0
 20
512.0
 30
0.0
  0
ENDBLK
  5
19C
330
19A
100
AcDbEntity
  8
0
100
AcDbBlockEnd
  0
BLOCK
  5
1AA
330
1A9
100
AcDbEntity
  8
0
100
AcDbBlockBegin
  2
*D16
 70
1
 10
0.0
 20
0.0
 30
0.0
  3
*D16
  1

  0
LINE
  5
1AC
330
1A9
100
AcDbEntity
  8
0
 62
7
370
13
100
AcDbLine
 10
401.2
 20
520.0
 30
0.0
 11
392.8
 21
520.0
 31
0.0
  0
LINE
  5
1AD
330
1A9
100
AcDbEntity
  8
0
 62
7
370
13
100
AcDbLine
 10
401.2
 20
552.0
 30
0.0
 11
392.8
 21
552.0
 31
0.0
  0
INSERT
  5
1AE
330
1A9
100
AcDbEntity
  8
DIMS
 62
7
100
AcDbBlockReference
  2
_CLOSEDFILLED
 10
394.0
 20
520.0
 30
0.0
 41
1.8
 42
1.8
 50
270.0
  0
INSERT
  5
1B0
330
1A9
100
AcDbEntity
  8
DIMS
 62
7
100
AcDbBlockReference
  2
_CLOSEDFILLED
 10
394.0
 20
552.0
 30
0.0
 41
1.8
 42
1.8
 50
90.0
  0
LINE
  5
1B2
330
1A9
100
AcDbEntity
  8
0
 62
7
370
13
100
AcDbLine
 10
394.0
 20
521.8
 30
0.0
 11
394.0
 21
550.2
 31
0.0
  0
MTEXT
  5
1B3
330
1A9
100
AcDbEntity
  8
DIMS
 62
7
100
AcDbMText
 10
392.15
 20
536.0
 30
0.0
 40
2.5
 71
5
  1
800
  7
GOST
 50
90.0
  0
POINT
  5
1B4
330
1A9
100
AcDbEntity
  8
Defpoints
100
AcDbPoint
 10
394.0
 20
520.0
 30
0.0
  0
POINT
  5
1B5
330
1A9
100
AcDbEntity
  8
Defpoints
100
AcDbPoint
 10
402.0
 20
520.0
 30
0.0
  0
POINT
  5
1B6
330
1A9
100
AcDbEntity
  8
Defpoints
100
AcDbPoint
 10
402.0
 20
552.0
 30
0.0
  0
ENDBLK
  5
1AB
330
1A9
100
AcDbEntity
  8
0
100
AcDbBlockEnd
  0
BLOCK
  5
1BF
330
1BE
100
AcDbEntity
  8
0
100
AcDbBlockBegin
  2
*D17
 70
1
 10
0.0
 20
0.0
 30
0.0
  3
*D17
  1

  0
LINE
  5
1C1
330
1BE
100
AcDbEntity
  8
0
 62
7
370
13
100
AcDbLine
 10
420.0
 20
511.2
 30
0.0
 11
420.0
 21
502.8
 31
0.0
  0
LINE
  5
1C2
330
1BE
100
AcDbEntity
  8
0
 62
7
370
13
100
AcDbLine
 10
496.0
 20
511.2
 30
0.0
 11
496.0
 21
502.8
 31
0.0
  0
INSERT
  5
1C3
330
1BE
100
AcDbEntity
  8
DIMS
 62
7
100
AcDbBlockReference
  2
_CLOSEDFILLED
 10
420.0
 20
504.0
 30
0.0
 41
1.8
 42
1.8
 50
180.0
  0
INSERT
  5
1C5
330
1BE
100
AcDbEntity
  8
DIMS
 62
7
100
AcDbBlockReference
  2
_CLOSEDFILLED
 10
496.0
 20
504.0
 30
0.0
 41
1.8
 42
1.8
  0
LINE
  5
1C7
330
1BE
100
AcDbEntity
  8
0
 62
7
370
13
100
AcDbLine
 10
421.8
 20
504.0
 30
0.0
 11
494.2
 21
504.0
 31
0.0
  0
MTEXT
  5
1C8
330
1BE
100
AcDbEntity
  8
DIMS
 62
7
100
AcDbMText
 10
458.0
 20
505.85
 30
0.0
 40
2.5
 71
5
  1
1900
  7
GOST
  0
POINT
  5
1C9
330
1BE
100
AcDbEntity
  8
Defpoints
100
AcDbPoint
 10
420.0
 20
504.0
 30
0.0
  0
POINT
  5
1CA
330
1BE
100
AcDbEntity
  8
Defpoints
100
AcDbPoint
 10
420.0
 20
512.0
 30
0.0
  0
POINT
  5
1CB
330
1BE
100
AcDbEntity
  8
Defpoints
100
AcDbPoint
 10
496.0
 20
512.0
 30
0.0
  0
ENDBLK
  5
1C0
330
1BE
100
AcDbEntity
  8
0
100
AcDbBlockEnd
  0
BLOCK
  5
1CE
330
1CD
100
AcDbEntity
  8
0
100
AcDbBlockBegin
  2
*D18
 70
1
 10
0.0
 20
0.0
 30
0.0
  3
*D18
  1

  0
LINE
  5
1D0
330
1CD
100
AcDbEntity
  8
0
 62
7
370
13
100
AcDbLine
 10
501.2
 20
520.0
 30
0.0
 11
492.8
 21
520.0
 31
0.0
  0
LINE
  5
1D1
330
1CD
100
AcDbEntity
  8
0
 62
7
370
13
100
AcDbLine
 10
501.2
 20
552.0
 30
0.0
 11
492.8
 21
552.0
 31
0.0
  0
INSERT
  5
1D2
330
1CD
100
AcDbEntity
  8
DIMS
 62
7
100
AcDbBlockReference
  2
_CLOSEDFILLED
 10
494.0
 20
520.0
 30
0.0
 41
1.8
 42
1.8
 50
270.0
  0
INSERT
  5
1D4
330
1CD
100
AcDbEntity
  8
DIMS
 62
7
100
AcDbBlockReference
  2
_CLOSEDFILLED
 10
494.0
 20
552.0
 30
0.0
 41
1.8
 42
1.8
 50
90.0
  0
LINE
  5
1D6
330
1CD
100
AcDbEntity
  8
0
 62
7
370
13
100
AcDbLine
 10
494.0
 20
521.8
 30
0.0
 11
494.0
 21
550.2
 31
0.0
  0
MTEXT
  5
1D7
330
1CD
100
AcDbEntity
  8
DIMS
 62
7
100
AcDbMText
 10
492.15
 20
536.0
 30
0.0
 40
2.5
 71
5
  1
800
  7
GOST
 50
90.0
  0
POINT
  5
1D8
330
1CD
100
AcDbEntity
  8
Defpoints
100
AcDbPoint
 10
494.0
 20
520.0
 30
0.0
  0
POINT
  5
1D9
330
1CD
100
AcDbEntity
  8
Defpoints
100
AcDbPoint
 10
502.0
 20
520.0
 30
0.0
  0
POINT
  5
1DA
330
1CD
100
AcDbEntity
  8
Defpoints
100
AcDbPoint
 10
502.0
 20
552.0
 30
0.0
  0
ENDBLK
  5
1CF
330
1CD
100
AcDbEntity
  8
0
100
AcDbBlockEnd
  0
BLOCK
  5
1E3
330
1E2
100
AcDbEntity
  8
0
100
AcDbBlockBegin
  2
*D19
 70
1
 10
0.0
 20
0.0
 30
0.0
  3
*D19
  1

  0
LINE
  5
1E5
330
1E2
100
AcDbEntity
  8
0
 62
7
370
13
100
AcDbLine
 10
320.0
 20
441.2
 30
0.0
 11
320.0
 21
432.8
 31
0.0
  0
LINE
  5
1E6
330
1E2
100
AcDbEntity
  8
0
 62
7
370
13
100
AcDbLine
 10
396.0
 20
441.2
 30
0.0
 11
396.0
 21
432.8
 31
0.0
  0
INSERT
  5
1E7
330
1E2
100
AcDbEntity
  8
DIMS
 62
7
100
AcDbBlockReference
  2
_CLOSEDFILLED
 10
320.0
 20
434.0
 30
0.0
 41
1.8
 42
1.8
 50
180.0
  0
INSERT
  5
1E9
330
1E2
100
AcDbEntity
  8
DIMS
 62
7
100
AcDbBlockReference
  2
_CLOSEDFILLED
 10
396.0
 20
434.0
 30
0.0
 41
1.8
 42
1.8
  0
LINE
  5
1EB
330
1E2
100
AcDbEntity
  8
0
 62
7
370
13
100
AcDbLine
 10
321.8
 20
434.0
 30
0.0
 11
394.2
 21
434.0
 31
0.0
  0
MTEXT
  5
1EC
330
1E2
100
AcDbEntity
  8
DIMS
 62
7
100
AcDbMText
 10
358.0
 20
435.85
 30
0.0
 40
2.5
 71
5
  1
1900
  7
GOST
  0
POINT
  5
1ED
330
1E2
100
AcDbEntity
  8
Defpoints
100
AcDbPoint
 10
320.0
 20
434.0
 30
0.0
  0
POINT
  5
1EE
330
1E2
100
AcDbEntity
  8
Defpoints
100
AcDbPoint
 10
320.0
 20
442.0
 30
0.0
  0
POINT
  5
1EF
330
1E2
100
AcDbEntity
  8
Defpoints
100
AcDbPoint
 10
396.0
 20
442.0
 30
0.0
  0
ENDBLK
  5
1E4
330
1E2
100
AcDbEntity
  8
0
100
AcDbBlockEnd
  0
BLOCK
  5
1F2
330
1F1
100
AcDbEntity
  8
0
100
AcDbBlockBegin
  2
*D20
 70
1
 10
0.0
 20
0.0
 30
0.0
  3
*D20
  1

  0
LINE
  5
1F4
330
1F1
100
AcDbEntity
  8
0
 62
7
370
13
100
AcDbLine
 10
401.2
 20
450.0
 30
0.0
 11
392.8
 21
450.0
 31
0.0
  0
LINE
  5
1F5
330
1F1
100
AcDbEntity
  8
0
 62
7
370
13
100
AcDbLine
 10
401.2
 20
482.0
 30
0.0
 11
392.8
 21
482.0
 31
0.0
  0
INSERT
  5
1F6
330
1F1
100
AcDbEntity
  8
DIMS
 62
7
100
AcDbBlockReference
  2
_CLOSEDFILLED
 10
394.0
 20
450.0
 30
0.0
 41
1.8
 42
1.8
 50
270.0
  0
INSERT
  5
1F8
330
1F1
100
AcDbEntity
  8
DIMS
 62
7
100
AcDbBlockReference
  2
_CLOSEDFILLED
 10
394.0
 20
482.0
 30
0.0
 41
1.8
 42
1.8
 50
90.0
  0
LINE
  5
1FA
330
1F1
100
AcDbEntity
  8
0
 62
7
370
13
100
AcDbLine
 10
394.0
 20
451.8
 30
0.0
 11
394.0
 21
480.2
 31
0.0
  0
MTEXT
  5
1FB
330
1F1
100
AcDbEntity
  8
DIMS
 62
7
100
AcDbMText
 10
392.15
 20
466.0
 30
0.0
 40
2.5
 71
5
  1
800
  7
GOST
 50
90.0
  0
POINT
  5
1FC
330
1F1
100
AcDbEntity
  8
Defpoints
100
AcDbPoint
 10
394.0
 20
450.0
 30
0.0
  0
POINT
  5
1FD
330
1F1
100
AcDbEntity
  8
Defpoints
100
AcDbPoint
 10
402.0
 20
450.0
 30
0.0
  0
POINT
  5
1FE
330
1F1
100
AcDbEntity
  8
Defpoints
100
AcDbPoint
 10
402.0
 20
482.0
 30
0.0
  0
ENDBLK
  5
1F3
330
1F1
100
AcDbEntity
  8
0
100
AcDbBlockEnd
  0
BLOCK
  5
207
330
206
100
AcDbEntity
  8
0
100
AcDbBlockBegin
  2
*D21
 70
1
 10
0.0
 20
0.0
 30
0.0
  3
*D21
  1

  0
LINE
  5
209
330
206
100
AcDbEntity
  8
0
 62
7
370
13
100
AcDbLine
 10
420.0
 20
441.2
 30
0.0
 11
420.0
 21
432.8
 31
0.0
  0
LINE
  5
20A
330
206
100
AcDbEntity
  8
0
 62
7
370
13
100
AcDbLine
 10
496.0
 20
441.2
 30
0.0
 11
496.0
 21
432.8
 31
0.0
  0
INSERT
  5
20B
330
206
100
AcDbEntity
  8
DIMS
 62
7
100
AcDbBlockReference
  2
_CLOSEDFILLED
 10
420.0
 20
434.0
 30
0.0
 41
1.8
 42
1.8
 50
180.0
  0
INSERT
  5
20D
330
206
100
AcDbEntity
  8
DIMS
 62
7
100
AcDbBlockReference
  2
_CLOSEDFILLED
 10
496.0
 20
434.0
 30
0.0
 41
1.8
 42
1.8
  0
LINE
  5
20F
330
206
100
AcDbEntity
  8
0
 62
7
370
13
100
AcDbLine
 10
421.8
 20
434.0
 30
0.0
 11
494.2
 21
434.0
 31
0.0
  0
MTEXT
  5
210
330
206
100
AcDbEntity
  8
DIMS
 62
7
100
AcDbMText
 10
458.0
 20
435.85
 30
0.0
 40
2.5
 71
5
  1
1900
  7
GOST
  0
POINT
  5
211
330
206
100
AcDbEntity
  8
Defpoints
100
AcDbPoint
 10
420.0
 20
434.0
 30
0.0
  0
POINT
  5
212
330
206
100
AcDbEntity
  8
Defpoints
100
AcDbPoint
 10
420.0
 20
442.0
 30
0.0
  0
POINT
  5
213
330
206
100
AcDbEntity
  8
Defpoints
100
AcDbPoint
 10
496.0
 20
442.0
 30
0.0
  0
ENDBLK
  5
208
330
206
100
AcDbEntity
  8
0
100
AcDbBlockEnd
  0
BLOCK
  5
216
330
215
100
AcDbEntity
  8
0
100
AcDbBlockBegin
  2
*D22
 70
1
 10
0.0
 20
0.0
 30
0.0
  3
*D22
  1

  0
LINE
  5
218
330
215
100
AcDbEntity
  8
0
 62
7
370
13
100
AcDbLine
 10
501.2
 20
450.0
 30
0.0
 11
492.8
 21
450.0
 31
0.0
  0
LINE
  5
219
330
215
100
AcDbEntity
  8
0
 62
7
370
13
100
AcDbLine
 10
501.2
 20
482.0
 30
0.0
 11
492.8
 21
482.0
 31
0.0
  0
INSERT
  5
21A
330
215
100
AcDbEntity
  8
DIMS
 62
7
100
AcDbBlockReference
  2
_CLOSEDFILLED
 10
494.0
 20
450.0
 30
0.0
 41
1.8
 42
1.8
 50
270.0
  0
INSERT
  5
21C
330
215
100
AcDbEntity
  8
DIMS
 62
7
100
AcDbBlockReference
  2
_CLOSEDFILLED
 10
494.0
 20
482.0
 30
0.0
 41
1.8
 42
1.8
 50
90.0
  0
LINE
  5
21E
330
215
100
AcDbEntity
  8
0
 62
7
370
13
100
AcDbLine
 10
494.0
 20
451.8
 30
0.0
 11
494.0
 21
480.2
 31
0.0
  0
MTEXT
  5
21F
330
215
100
AcDbEntity
  8
DIMS
 62
7
100
AcDbMText
 10
492.15
 20
466.0
 30
0.0
 40
2.5
 71
5
  1
800
  7
GOST
 50
90.0
  0
POINT
  5
220
330
215
100
AcDbEntity
  8
Defpoints
100
AcDbPoint
 10
494.0
 20
450.0
 30
0.0
  0
POINT
  5
221
330
215
100
AcDbEntity
  8
Defpoints
100
AcDbPoint
 10
502.0
 20
450.0
 30
0.0
  0
POINT
  5
222
330
215
100
AcDbEntity
  8
Defpoints
100
AcDbPoint
 10
502.0
 20
482.0
 30
0.0
  0
ENDBLK
  5
217
330
215
100
AcDbEntity
  8
0
100
AcDbBlockEnd
  0
BLOCK
  5
22B
330
22A
100
AcDbEntity
  8
0
100
AcDbBlockBegin
  2
*D23
 70
1
 10
0.0
 20
0.0
 30
0.0
  3
*D23
  1

  0
LINE
  5
22D
330
22A
100
AcDbEntity
  8
0
 62
7
370
13
100
AcDbLine
 10
320.0
 20
371.2
 30
0.0
 11
320.0
 21
362.8
 31
0.0
  0
LINE
  5
22E
330
22A
100
AcDbEntity
  8
0
 62
7
370
13
100
AcDbLine
 10
396.0
 20
371.2
 30
0.0
 11
396.0
 21
362.8
 31
0.0
  0
INSERT
  5
22F
330
22A
100
AcDbEntity
  8
DIMS
 62
7
100
AcDbBlockReference
  2
_CLOSEDFILLED
 10
320.0
 20
364.0
 30
0.0
 41
1.8
 42
1.8
 50
180.0
  0
INSERT
  5
231
330
22A
100
AcDbEntity
  8
DIMS
 62
7
100
AcDbBlockReference
  2
_CLOSEDFILLED
 10
396.0
 20
364.0
 30
0.0
 41
1.8
 42
1.8
  0
LINE
  5
233
330
22A
100
AcDbEntity
  8
0
 62
7
370
13
100
AcDbLine
 10
321.8
 20
364.0
 30
0.0
 11
394.2
 21
364.0
 31
0.0
  0
MTEXT
  5
234
330
22A
100
AcDbEntity
  8
DIMS
 62
7
100
AcDbMText
 10
358.0
 20
365.85
 30
0.0
 40
2.5
 71
5
  1
1900
  7
GOST
  0
POINT
  5
235
330
22A
100
AcDbEntity
  8
Defpoints
100
AcDbPoint
 10
320.0
 20
364.0
 30
0.0
  0
POINT
  5
236
330
22A
100
AcDbEntity
  8
Defpoints
100
AcDbPoint
 10
320.0
 20
372.0
 30
0.0
  0
POINT
  5
237
330
22A
100
AcDbEntity
  8
Defpoints
100
AcDbPoint
 10
396.0
 20
372.0
 30
0.0
  0
ENDBLK
  5
22C
330
22A
100
AcDbEntity
  8
0
100
AcDbBlockEnd
  0
BLOCK
  5
23A
330
239
100
AcDbEntity
  8
0
100
AcDbBlockBegin
  2
*D24
 70
1
 10
0.0
 20
0.0
 30
0.0
  3
*D24
  1

  0
LINE
  5
23C
330
239
100
AcDbEntity
  8
0
 62
7
370
13
100
AcDbLine
 10
401.2
 20
380.0
 30
0.0
 11
392.8
 21
380.0
 31
0.0
  0
LINE
  5
23D
330
239
100
AcDbEntity
  8
0
 62
7
370
13
100
AcDbLine
 10
401.2
 20
412.0
 30
0.0
 11
392.8
 21
412.0
 31
0.0
  0
INSERT
  5
23E
330
239
100
AcDbEntity
  8
DIMS
 62
7
100
AcDbBlockReference
  2
_CLOSEDFILLED
 10
394.0
 20
380.0
 30
0.0
 41
1.8
 42
1.8
 50
270.0
  0
INSERT
  5
240
330
239
100
AcDbEntity
  8
DIMS
 62
7
100
AcDbBlockReference
  2
_CLOSEDFILLED
 10
394.0
 20
412.0
 30
0.0
 41
1.8
 42
1.8
 50
90.0
  0
LINE
  5
242
330
239
100
AcDbEntity
  8
0
 62
7
370
13
100
AcDbLine
 10
394.0
 20
381.8
 30
0.0
 11
394.0
 21
410.2
 31
0.0
  0
MTEXT
  5
243
330
239
100
AcDbEntity
  8
DIMS
 62
7
100
AcDbMText
 10
392.15
 20
396.0
 30
0.0
 40
2.5
 71
5
  1
800
  7
GOST
 50
90.0
  0
POINT
  5
244
330
239
100
AcDbEntity
  8
Defpoints
100
AcDbPoint
 10
394.0
 20
380.0
 30
0.0
  0
POINT
  5
245
330
239
100
AcDbEntity
  8
Defpoints
100
AcDbPoint
 10
402.0
 20
380.0
 30
0.0
  0
POINT
  5
246
330
239
100
AcDbEntity
  8
Defpoints
100
AcDbPoint
 10
402.0
 20
412.0
 30
0.0
  0
ENDBLK
  5
23B
330
239
100
AcDbEntity
  8
0
100
AcDbBlockEnd
  0
BLOCK
  5
24F
330
24E
100
AcDbEntity
  8
0
100
AcDbBlockBegin
  2
*D25
 70
1
 10
0.0
 20
0.0
 30
0.0
  3
*D25
  1

  0
LINE
  5
251
330
24E
100
AcDbEntity
  8
0
 62
7
370
13
100
AcDbLine
 10
420.0
 20
371.2
 30
0.0
 11
420.0
 21
362.8
 31
0.0
  0
LINE
  5
252
330
24E
100
AcDbEntity
  8
0
 62
7
370
13
100
AcDbLine
 10
496.0
 20
371.2
 30
0.0
 11
496.0
 21
362.8
 31
0.0
  0
INSERT
  5
253
330
24E
100
AcDbEntity
  8
DIMS
 62
7
100
AcDbBlockReference
  2
_CLOSEDFILLED
 10
420.0
 20
364.0
 30
0.0
 41
1.8
 42
1.8
 50
180.0
  0
INSERT
  5
255
330
24E
100
AcDbEntity
  8
DIMS
 62
7
100
AcDbBlockReference
  2
_CLOSEDFILLED
 10
496.0
 20
364.0
 30
0.0
 41
1.8
 42
1.8
  0
LINE
  5
257
330
24E
100
AcDbEntity
  8
0
 62
7
370
13
100
AcDbLine
 10
421.8
 20
364.0
 30
0.0
 11
494.2
 21
364.0
 31
0.0
  0
MTEXT
  5
258
330
24E
100
AcDbEntity
  8
DIMS
 62
7
100
AcDbMText
 10
458.0
 20
365.85
 30
0.0
 40
2.5
 71
5
  1
1900
  7
GOST
  0
POINT
  5
259
330
24E
100
AcDbEntity
  8
Defpoints
100
AcDbPoint
 10
420.0
 20
364.0
 30
0.0
  0
POINT
  5
25A
330
24E
100
AcDbEntity
  8
Defpoints
100
AcDbPoint
 10
420.0
 20
372.0
 30
0.0
  0
POINT
  5
25B
330
24E
100
AcDbEntity
  8
Defpoints
100
AcDbPoint
 10
496.0
 20
372.0
 30
0.0
  0
ENDBLK
  5
250
330
24E
100
AcDbEntity
  8
0
100
AcDbBlockEnd
  0
BLOCK
  5
25E
330
25D
100
AcDbEntity
  8
0
100
AcDbBlockBegin
  2
*D26
 70
1
 10
0.0
 20
0.0
 30
0.0
  3
*D26
  1

  0
LINE
  5
260
330
25D
100
AcDbEntity
  8
0
 62
7
370
13
100
AcDbLine
 10
501.2
 20
380.0
 30
0.0
 11
492.8
 21
380.0
 31
0.0
  0
LINE
  5
261
330
25D
100
AcDbEntity
  8
0
 62
7
370
13
100
AcDbLine
 10
501.2
 20
412.0
 30
0.0
 11
492.8
 21
412.0
 31
0.0
  0
INSERT
  5
262
330
25D
100
AcDbEntity
  8
DIMS
 62
7
100
AcDbBlockReference
  2
_CLOSEDFILLED
 10
494.0
 20
380.0
 30
0.0
 41
1.8
 42
1.8
 50
270.0
  0
INSERT
  5
264
330
25D
100
AcDbEntity
  8
DIMS
 62
7
100
AcDbBlockReference
  2
_CLOSEDFILLED
 10
494.0
 20
412.0
 30
0.0
 41
1.8
 42
1.8
 50
90.0
  0
LINE
  5
266
330
25D
100
AcDbEntity
  8
0
 62
7
370
13
100
AcDbLine
 10
494.0
 20
381.8
 30
0.0
 11
494.0
 21
410.2
 31
0.0
  0
MTEXT
  5
267
330
25D
100
AcDbEntity
  8
DIMS
 62
7
100
AcDbMText
 10
492.15
 20
396.0
 30
0.0
 40
2.5
 71
5
  1
800
  7
GOST
 50
90.0
  0
POINT
  5
268
330
25D
100
AcDbEntity
  8
Defpoints
100
AcDbPoint
 10
494.0
 20
380.0
 30
0.0
  0
POINT
  5
269
330
25D
100
AcDbEntity
  8
Defpoints
100
AcDbPoint
 10
502.0
 20
380.0
 30
0.0
  0
POINT
  5
26A
330
25D
100
AcDbEntity
  8
Defpoints
100
AcDbPoint
 10
502.0
 20
412.0
 30
0.0
  0
ENDBLK
  5
25F
330
25D
100
AcDbEntity
  8
0
100
AcDbBlockEnd
  0
BLOCK
  5
273
330
272
100
AcDbEntity
  8
0
100
AcDbBlockBegin
  2
*D27
 70
1
 10
0.0
 20
0.0
 30
0.0
  3
*D27
  1

  0
LINE
  5
275
330
272
100
AcDbEntity
  8
0
 62
7
370
13
100
AcDbLine
 10
320.0
 20
301.2
 30
0.0
 11
320.0
 21
292.8
 31
0.0
  0
LINE
  5
276
330
272
100
AcDbEntity
  8
0
 62
7
370
13
100
AcDbLine
 10
396.0
 20
301.2
 30
0.0
 11
396.0
 21
292.8
 31
0.0
  0
INSERT
  5
277
330
272
100
AcDbEntity
  8
DIMS
 62
7
100
AcDbBlockReference
  2
_CLOSEDFILLED
 10
320.0
 20
294.0
 30
0.0
 41
1.8
 42
1.8
 50
180.0
  0
INSERT
  5
279
330
272
100
AcDbEntity
  8
DIMS
 62
7
100
AcDbBlockReference
  2
_CLOSEDFILLED
 10
396.0
 20
294.0
 30
0.0
 41
1.8
 42
1.8
  0
LINE
  5
27B
330
272
100
AcDbEntity
  8
0
 62
7
370
13
100
AcDbLine
 10
321.8
 20
294.0
 30
0.0
 11
394.2
 21
294.0
 31
0.0
  0
MTEXT
  5
27C
330
272
100
AcDbEntity
  8
DIMS
 62
7
100
AcDbMText
 10
358.0
 20
295.85
 30
0.0
 40
2.5
 71
5
  1
1900
  7
GOST
  0
POINT
  5
27D
330
272
100
AcDbEntity
  8
Defpoints
100
AcDbPoint
 10
320.0
 20
294.0
 30
0.0
  0
POINT
  5
27E
330
272
100
AcDbEntity
  8
Defpoints
100
AcDbPoint
 10
320.0
 20
302.0
 30
0.0
  0
POINT
  5
27F
330
272
100
AcDbEntity
  8
Defpoints
100
AcDbPoint
 10
396.0
 20
302.0
 30
0.0
  0
ENDBLK
  5
274
330
272
100
AcDbEntity
  8
0
100
AcDbBlockEnd
  0
BLOCK
  5
282
330
281
100
AcDbEntity
  8
0
100
AcDbBlockBegin
  2
*D28
 70
1
 10
0.0
 20
0.0
 30
0.0
  3
*D28
  1

  0
LINE
  5
284
330
281
100
AcDbEntity
  8
0
 62
7
370
13
100
AcDbLine
 10
401.2
 20
310.0
 30
0.0
 11
392.8
 21
310.0
 31
0.0
  0
LINE
  5
285
330
281
100
AcDbEntity
  8
0
 62
7
370
13
100
AcDbLine
 10
401.2
 20
342.0
 30
0.0
 11
392.8
 21
342.0
 31
0.0
  0
INSERT
  5
286
330
281
100
AcDbEntity
  8
DIMS
 62
7
100
AcDbBlockReference
  2
_CLOSEDFILLED
 10
394.0
 20
310.0
 30
0.0
 41
1.8
 42
1.8
 50
270.0
  0
INSERT
  5
288
330
281
100
AcDbEntity
  8
DIMS
 62
7
100
AcDbBlockReference
  2
_CLOSEDFILLED
 10
394.0
 20
342.0
 30
0.0
 41
1.8
 42
1.8
 50
90.0
  0
LINE
  5
28A
330
281
100
AcDbEntity
  8
0
 62
7
370
13
100
AcDbLine
 10
394.0
 20
311.8
 30
0.0
 11
394.0
 21
340.2
 31
0.0
  0
MTEXT
  5
28B
330
281
100
AcDbEntity
  8
DIMS
 62
7
100
AcDbMText
 10
392.15
 20
326.0
 30
0.0
 40
2.5
 71
5
  1
800
  7
GOST
 50
90.0
  0
POINT
  5
28C
330
281
100
AcDbEntity
  8
Defpoints
100
AcDbPoint
 10
394.0
 20
310.0
 30
0.0
  0
POINT
  5
28D
330
281
100
AcDbEntity
  8
Defpoints
100
AcDbPoint
 10
402.0
 20
310.0
 30
0.0
  0
POINT
  5
28E
330
281
100
AcDbEntity
  8
Defpoints
100
AcDbPoint
 10
402.0
 20
342.0
 30
0.0
  0
ENDBLK
  5
283
330
281
100
AcDbEntity
  8
0
100
AcDbBlockEnd
  0
BLOCK
  5
298
330
297
100
AcDbEntity
  8
0
100
AcDbBlockBegin
  2
*D29
 70
1
 10
0.0
 20
0.0
 30
0.0
  3
*D29
  1

  0
LINE
  5
29A
330
297
100
AcDbEntity
  8
0
 62
7
370
13
100
AcDbLine
 10
520.0
 20
613.2
 30
0.0
 11
520.0
 21
604.8
 31
0.0
  0
LINE
  5
29B
330
297
100
AcDbEntity
  8
0
 62
7
370
13
100
AcDbLine
 10
710.0
 20
613.2
 30
0.0
 11
710.0
 21
604.8
 31
0.0
  0
INSERT
  5
29C
330
297
100
AcDbEntity
  8
DIMS
 62
7
100
AcDbBlockReference
  2
_CLOSEDFILLED
 10
520.0
 20
606.0
 30
0.0
 41
1.8
 42
1.8
 50
180.0
  0
INSERT
  5
29E
330
297
100
AcDbEntity
  8
DIMS
 62
7
100
AcDbBlockReference
  2
_CLOSEDFILLED
 10
710.0
 20
606.0
 30
0.0
 41
1.8
 42
1.8
  0
LINE
  5
2A0
330
297
100
AcDbEntity
  8
0
 62
7
370
13
100
AcDbLine
 10
521.8
 20
606.0
 30
0.0
 11
708.2
 21
606.0
 31
0.0
  0
MTEXT
  5
2A1
330
297
100
AcDbEntity
  8
DIMS
 62
7
100
AcDbMText
 10
615.0
 20
607.85
 30
0.0
 40
2.5
 71
5
  1
1900
  7
GOST
  0
POINT
  5
2A2
330
297
100
AcDbEntity
  8
Defpoints
100
AcDbPoint
 10
520.0
 20
606.0
 30
0.0
  0
POINT
  5
2A3
330
297
100
AcDbEntity
  8
Defpoints
100
AcDbPoint
 10
520.0
 20
614.0
 30
0.0
  0
POINT
  5
2A4
330
297
100
AcDbEntity
  8
Defpoints
100
AcDbPoint
 10
710.0
 20
614.0
 30
0.0
  0
ENDBLK
  5
299
330
297
100
AcDbEntity
  8
0
100
AcDbBlockEnd
  0
BLOCK
  5
2A7
330
2A6
100
AcDbEntity
  8
0
100
AcDbBlockBegin
  2
*D30
 70
1
 10
0.0
 20
0.0
 30
0.0
  3
*D30
  1

  0
LINE
  5
2A9
330
2A6
100
AcDbEntity
  8
0
 62
7
370
13
100
AcDbLine
 10
513.2
 20
620.0
 30
0.0
 11
504.8
 21
620.0
 31
0.0
  0
LINE
  5
2AA
330
2A6
100
AcDbEntity
  8
0
 62
7
370
13
100
AcDbLine
 10
513.2
 20
679.0
 30
0.0
 11
504.8
 21
679.0
 31
0.0
  0
INSERT
  5
2AB
330
2A6
100
AcDbEntity
  8
DIMS
 62
7
100
AcDbBlockReference
  2
_CLOSEDFILLED
 10
506.0
 20
620.0
 30
0.0
 41
1.8
 42
1.8
 50
270.0
  0
INSERT
  5
2AD
330
2A6
100
AcDbEntity
  8
DIMS
 62
7
100
AcDbBlockReference
  2
_CLOSEDFILLED
 10
506.0
 20
679.0
 30
0.0
 41
1.8
 42
1.8
 50
90.0
  0
LINE
  5
2AF
330
2A6
100
AcDbEntity
  8
0
 62
7
370
13
100
AcDbLine
 10
506.0
 20
621.8
 30
0.0
 11
506.0
 21
677.2
 31
0.0
  0
MTEXT
  5
2B0
330
2A6
100
AcDbEntity
  8
DIMS
 62
7
100
AcDbMText
 10
504.15
 20
649.5
 30
0.0
 40
2.5
 71
5
  1
590
  7
GOST
 50
90.0
  0
POINT
  5
2B1
330
2A6
100
AcDbEntity
  8
Defpoints
100
AcDbPoint
 10
506.0
 20
620.0
 30
0.0
  0
POINT
  5
2B2
330
2A6
100
AcDbEntity
  8
Defpoints
100
AcDbPoint
 10
514.0
 20
620.0
 30
0.0
  0
POINT
  5
2B3
330
2A6
100
AcDbEntity
  8
Defpoints
100
AcDbPoint
 10
514.0
 20
679.0
 30
0.0
  0
ENDBLK
  5
2A8
330
2A6
100
AcDbEntity
  8
0
100
AcDbBlockEnd
  0
BLOCK
  5
2B5
330
2B4
100
AcDbEntity
  8
0
100
AcDbBlockBegin
  2
TABLE_STEEL_KP17
 70
0
 10
0.0
 20
0.0
 30
0.0
  3
TABLE_STEEL_KP17
  1

  0
TEXT
  5
2B7
330
2B4
100
AcDbEntity
  8
TABLE
 62
7
100
AcDbText
 10
7.0
 20
9.9
 30
0.0
 40
1.4
  1
Марка
  7
GOST
 72
1
 11
7.0
 21
9.9
 31
0.0
100
AcDbText
 73
3
  0
TEXT
  5
2B8
330
2B4
100
AcDbEntity
  8
TABLE
 62
7
100
AcDbText
 10
23.0
 20
9.9
 30
0.0
 40
1.4
  1
А240 Ø25
  7
GOST
 72
1
 11
23.0
 21
9.9
 31
0.0
100
AcDbText
 73
3
  0
TEXT
  5
2B9
330
2B4
100
AcDbEntity
  8
TABLE
 62
7
100
AcDbText
 10
41.0
 20
9.9
 30
0.0
 40
1.4
  1
А500С Ø12
  7
GOST
 72
1
 11
41.0
 21
9.9
 31
0.0
100
AcDbText
 73
3
  0
TEXT
  5
2BA
330
2B4
100
AcDbEntity
  8
TABLE
 62
7
100
AcDbText
 10
58.0
 20
9.9
 30
0.0
 40
1.4
  1
Ø22
  7
GOST
 72
1
 11
58.0
 21
9.9
 31
0.0
100
AcDbText
 73
3
  0
TEXT
  5
2BB
330
2B4
100
AcDbEntity
  8
TABLE
 62
7
100
AcDbText
 10
73.0
 20
9.9
 30
0.0
 40
1.4
  1
Ø25
  7
GOST
 72
1
 11
73.0
 21
9.9
 31
0.0
100
AcDbText
 73
3
  0
TEXT
  5
2BC
330
2B4
100
AcDbEntity
  8
TABLE
 62
7
100
AcDbText
 10
87.0
 20
9.9
 30
0.0
 40
1.4
  1
Ø32
  7
GOST
 72
1
 11
87.0
 21
9.9
 31
0.0
100
AcDbText
 73
3
  0
TEXT
  5
2BD
330
2B4
100
AcDbEntity
  8
TABLE
 62
7
100
AcDbText
 10
101.0
 20
9.9
 30
0.0
 40
1.4
  1
Ø36
  7
GOST
 72
1
 11
101.0
 21
9.9
 31
0.0
100
AcDbText
 73
3
  0
TEXT
  5
2BE
330
2B4
100
AcDbEntity
  8
TABLE
 62
7
100
AcDbText
 10
116.0
 20
9.9
 30
0.0
 40
1.4
  1
Итого
  7
GOST
 72
1
 11
116.0
 21
9.9
 31
0.0
100
AcDbText
 73
3
  0
TEXT
  5
2BF
330
2B4
100
AcDbEntity
  8
TABLE
 62
7
100
AcDbText
 10
132.0
 20
9.9
 30
0.0
 40
1.4
  1
Всего
  7
GOST
 72
1
 11
132.0
 21
9.9
 31
0.0
100
AcDbText
 73
3
  0
TEXT
  5
2C0
330
2B4
100
AcDbEntity
  8
TABLE
 62
7
100
AcDbText
 10
7.0
 20
4.9
 30
0.0
 40
1.4
  1
КП17
  7
GOST
 72
1
 11
7.0
 21
4.9
 31
0.0
100
AcDbText
 73
3
  0
TEXT
  5
2C1
330
2B4
100
AcDbEntity
  8
TABLE
 62
7
100
AcDbText
 10
23.0
 20
4.9
 30
0.0
 40
1.4
  1
49.00
  7
GOST
 72
1
 11
23.0
 21
4.9
 31
0.0
100
AcDbText
 73
3
  0
TEXT
  5
2C2
330
2B4
100
AcDbEntity
  8
TABLE
 62
7
100
AcDbText
 10
41.0
 20
4.9
 30
0.0
 40
1.4
  1
722.00
  7
GOST
 72
1
 11
41.0
 21
4.9
 31
0.0
100
AcDbText
 73
3
  0
TEXT
  5
2C3
330
2B4
100
AcDbEntity
  8
TABLE
 62
7
100
AcDbText
 10
58.0
 20
4.9
 30
0.0
 40
1.4
  1
1666.76
  7
GOST
 72
1
 11
58.0
 21
4.9
 31
0.0
100
AcDbText
 73
3
  0
TEXT
  5
2C4
330
2B4
100
AcDbEntity
  8
TABLE
 62
7
100
AcDbText
 10
73.0
 20
4.9
 30
0.0
 40
1.4
  1
631.12
  7
GOST
 72
1
 11
73.0
 21
4.9
 31
0.0
100
AcDbText
 73
3
  0
TEXT
  5
2C5
330
2B4
100
AcDbEntity
  8
TABLE
 62
7
100
AcDbText
 10
87.0
 20
4.9
 30
0.0
 40
1.4
  1
1034.04
  7
GOST
 72
1
 11
87.0
 21
4.9
 31
0.0
100
AcDbText
 73
3
  0
TEXT
  5
2C6
330
2B4
100
AcDbEntity
  8
TABLE
 62
7
100
AcDbText
 10
101.0
 20
4.9
 30
0.0
 40
1.4
  1
1963.08
  7
GOST
 72
1
 11
101.0
 21
4.9
 31
0.0
100
AcDbText
 73
3
  0
TEXT
  5
2C7
330
2B4
100
AcDbEntity
  8
TABLE
 62
7
100
AcDbText
 10
116.0
 20
4.9
 30
0.0
 40
1.4
  1
6017.00
  7
GOST
 72
1
 11
116.0
 21
4.9
 31
0.0
100
AcDbText
 73
3
  0
TEXT
  5
2C8
330
2B4
100
AcDbEntity
  8
TABLE
 62
7
100
AcDbText
 10
132.0
 20
4.9
 30
0.0
 40
1.4
  1
6474.15
  7
GOST
 72
1
 11
132.0
 21
4.9
 31
0.0
100
AcDbText
 73
3
  0
LINE
  5
2C9
330
2B4
100
AcDbEntity
  8
TABLE_GRID
 62
5
100
AcDbLine
 10
0.0
 20
10.0
 30
0.0
 11
14.0
 21
10.0
 31
0.0
  0
LINE
  5
2CA
330
2B4
100
AcDbEntity
  8
TABLE_GRID
 62
5
100
AcDbLine
 10
14.0
 20
10.0
 30
0.0
 11
32.0
 21
10.0
 31
0.0
  0
LINE
  5
2CB
330
2B4
100
AcDbEntity
  8
TABLE_GRID
 62
5
100
AcDbLine
 10
32.0
 20
10.0
 30
0.0
 11
50.0
 21
10.0
 31
0.0
  0
LINE
  5
2CC
330
2B4
100
AcDbEntity
  8
TABLE_GRID
 62
5
100
AcDbLine
 10
50.0
 20
10.0
 30
0.0
 11
66.0
 21
10.0
 31
0.0
  0
LINE
  5
2CD
330
2B4
100
AcDbEntity
  8
TABLE_GRID
 62
5
100
AcDbLine
 10
66.0
 20
10.0
 30
0.0
 11
80.0
 21
10.0
 31
0.0
  0
LINE
  5
2CE
330
2B4
100
AcDbEntity
  8
TABLE_GRID
 62
5
100
AcDbLine
 10
80.0
 20
10.0
 30
0.0
 11
94.0
 21
10.0
 31
0.0
  0
LINE
  5
2CF
330
2B4
100
AcDbEntity
  8
TABLE_GRID
 62
5
100
AcDbLine
 10
94.0
 20
10.0
 30
0.0
 11
108.0
 21
10.0
 31
0.0
  0
LINE
  5
2D0
330
2B4
100
AcDbEntity
  8
TABLE_GRID
 62
5
100
AcDbLine
 10
108.0
 20
10.0
 30
0.0
 11
124.0
 21
10.0
 31
0.0
  0
LINE
  5
2D1
330
2B4
100
AcDbEntity
  8
TABLE_GRID
 62
5
100
AcDbLine
 10
124.0
 20
10.0
 30
0.0
 11
140.0
 21
10.0
 31
0.0
  0
LINE
  5
2D2
330
2B4
100
AcDbEntity
  8
TABLE_GRID
 62
5
100
AcDbLine
 10
0.0
 20
5.0
 30
0.0
 11
14.0
 21
5.0
 31
0.0
  0
LINE
  5
2D3
330
2B4
100
AcDbEntity
  8
TABLE_GRID
 62
5
100
AcDbLine
 10
14.0
 20
5.0
 30
0.0
 11
32.0
 21
5.0
 31
0.0
  0
LINE
  5
2D4
330
2B4
100
AcDbEntity
  8
TABLE_GRID
 62
5
100
AcDbLine
 10
32.0
 20
5.0
 30
0.0
 11
50.0
 21
5.0
 31
0.0
  0
LINE
  5
2D5
330
2B4
100
AcDbEntity
  8
TABLE_GRID
 62
5
100
AcDbLine
 10
50.0
 20
5.0
 30
0.0
 11
66.0
 21
5.0
 31
0.0
  0
LINE
  5
2D6
330
2B4
100
AcDbEntity
  8
TABLE_GRID
 62
5
100
AcDbLine
 10
66.0
 20
5.0
 30
0.0
 11
80.0
 21
5.0
 31
0.0
  0
LINE
  5
2D7
330
2B4
100
AcDbEntity
  8
TABLE_GRID
 62
5
100
AcDbLine
 10
80.0
 20
5.0
 30
0.0
 11
94.0
 21
5.0
 31
0.0
  0
LINE
  5
2D8
330
2B4
100
AcDbEntity
  8
TABLE_GRID
 62
5
100
AcDbLine
 10
94.0
 20
5.0
 30
0.0
 11
108.0
 21
5.0
 31
0.0
  0
LINE
  5
2D9
330
2B4
100
AcDbEntity
  8
TABLE_GRID
 62
5
100
AcDbLine
 10
108.0
 20
5.0
 30
0.0
 11
124.0
 21
5.0
 31
0.0
  0
LINE
  5
2DA
330
2B4
100
AcDbEntity
  8
TABLE_GRID
 62
5
100
AcDbLine
 10
124.0
 20
5.0
 30
0.0
 11
140.0
 21
5.0
 31
0.0
  0
LINE
  5
2DB
330
2B4
100
AcDbEntity
  8
TABLE_GRID
 62
5
100
AcDbLine
 10
0.0
 20
0.0
 30
0.0
 11
14.0
 21
0.0
 31
0.0
  0
LINE
  5
2DC
330
2B4
100
AcDbEntity
  8
TABLE_GRID
 62
5
100
AcDbLine
 10
14.0
 20
0.0
 30
0.0
 11
32.0
 21
0.0
 31
0.0
  0
LINE
  5
2DD
330
2B4
100
AcDbEntity
  8
TABLE_GRID
 62
5
100
AcDbLine
 10
32.0
 20
0.0
 30
0.0
 11
50.0
 21
0.0
 31
0.0
  0
LINE
  5
2DE
330
2B4
100
AcDbEntity
  8
TABLE_GRID
 62
5
100
AcDbLine
 10
50.0
 20
0.0
 30
0.0
 11
66.0
 21
0.0
 31
0.0
  0
LINE
  5
2DF
330
2B4
100
AcDbEntity
  8
TABLE_GRID
 62
5
100
AcDbLine
 10
66.0
 20
0.0
 30
0.0
 11
80.0
 21
0.0
 31
0.0
  0
LINE
  5
2E0
330
2B4
100
AcDbEntity
  8
TABLE_GRID
 62
5
100
AcDbLine
 10
80.0
 20
0.0
 30
0.0
 11
94.0
 21
0.0
 31
0.0
  0
LINE
  5
2E1
330
2B4
100
AcDbEntity
  8
TABLE_GRID
 62
5
100
AcDbLine
 10
94.0
 20
0.0
 30
0.0
 11
108.0
 21
0.0
 31
0.0
  0
LINE
  5
2E2
330
2B4
100
AcDbEntity
  8
TABLE_GRID
 62
5
100
AcDbLine
 10
108.0
 20
0.0
 30
0.0
 11
124.0
 21
0.0
 31
0.0
  0
LINE
  5
2E3
330
2B4
100
AcDbEntity
  8
TABLE_GRID
 62
5
100
AcDbLine
 10
124.0
 20
0.0
 30
0.0
 11
140.0
 21
0.0
 31
0.0
  0
LINE
  5
2E4
330
2B4
100
AcDbEntity
  8
TABLE_GRID
 62
5
100
AcDbLine
 10
0.0
 20
10.0
 30
0.0
 11
0.0
 21
5.0
 31
0.0
  0
LINE
  5
2E5
330
2B4
100
AcDbEntity
  8
TABLE_GRID
 62
5
100
AcDbLine
 10
0.0
 20
5.0
 30
0.0
 11
0.0
 21
0.0
 31
0.0
  0
LINE
  5
2E6
330
2B4
100
AcDbEntity
  8
TABLE_GRID
 62
5
100
AcDbLine
 10
14.0
 20
10.0
 30
0.0
 11
14.0
 21
5.0
 31
0.0
  0
LINE
  5
2E7
330
2B4
100
AcDbEntity
  8
TABLE_GRID
 62
5
100
AcDbLine
 10
14.0
 20
5.0
 30
0.0
 11
14.0
 21
0.0
 31
0.0
  0
LINE
  5
2E8
330
2B4
100
AcDbEntity
  8
TABLE_GRID
 62
5
100
AcDbLine
 10
32.0
 20
10.0
 30
0.0
 11
32.0
 21
5.0
 31
0.0
  0
LINE
  5
2E9
330
2B4
100
AcDbEntity
  8
TABLE_GRID
 62
5
100
AcDbLine
 10
32.0
 20
5.0
 30
0.0
 11
32.0
 21
0.0
 31
0.0
  0
LINE
  5
2EA
330
2B4
100
AcDbEntity
  8
TABLE_GRID
 62
5
100
AcDbLine
 10
50.0
 20
10.0
 30
0.0
 11
50.0
 21
5.0
 31
0.0
  0
LINE
  5
2EB
330
2B4
100
AcDbEntity
  8
TABLE_GRID
 62
5
100
AcDbLine
 10
50.0
 20
5.0
 30
0.0
 11
50.0
 21
0.0
 31
0.0
  0
LINE
  5
2EC
330
2B4
100
AcDbEntity
  8
TABLE_GRID
 62
5
100
AcDbLine
 10
66.0
 20
10.0
 30
0.0
 11
66.0
 21
5.0
 31
0.0
  0
LINE
  5
2ED
330
2B4
100
AcDbEntity
  8
TABLE_GRID
 62
5
100
AcDbLine
 10
66.0
 20
5.0
 30
0.0
 11
66.0
 21
0.0
 31
0.0
  0
LINE
  5
2EE
330
2B4
100
AcDbEntity
  8
TABLE_GRID
 62
5
100
AcDbLine
 10
80.0
 20
10.0
 30
0.0
 11
80.0
 21
5.0
 31
0.0
  0
LINE
  5
2EF
330
2B4
100
AcDbEntity
  8
TABLE_GRID
 62
5
100
AcDbLine
 10
80.0
 20
5.0
 30
0.0
 11
80.0
 21
0.0
 31
0.0
  0
LINE
  5
2F0
330
2B4
100
AcDbEntity
  8
TABLE_GRID
 62
5
100
AcDbLine
 10
94.0
 20
10.0
 30
0.0
 11
94.0
 21
5.0
 31
0.0
  0
LINE
  5
2F1
330
2B4
100
AcDbEntity
  8
TABLE_GRID
 62
5
100
AcDbLine
 10
94.0
 20
5.0
 30
0.0
 11
94.0
 21
0.0
 31
0.0
  0
LINE
  5
2F2
330
2B4
100
AcDbEntity
  8
TABLE_GRID
 62
5
100
AcDbLine
 10
108.0
 20
10.0
 30
0.0
 11
108.0
 21
5.0
 31
0.0
  0
LINE
  5
2F3
330
2B4
100
AcDbEntity
  8
TABLE_GRID
 62
5
100
AcDbLine
 10
108.0
 20
5.0
 30
0.0
 11
108.0
 21
0.0
 31
0.0
  0
LINE
  5
2F4
330
2B4
100
AcDbEntity
  8
TABLE_GRID
 62
5
100
AcDbLine
 10
124.0
 20
10.0
 30
0.0
 11
124.0
 21
5.0
 31
0.0
  0
LINE
  5
2F5
330
2B4
100
AcDbEntity
  8
TABLE_GRID
 62
5
100
AcDbLine
 10
124.0
 20
5.0
 30
0.0
 11
124.0
 21
0.0
 31
0.0
  0
LINE
  5
2F6
330
2B4
100
AcDbEntity
  8
TABLE_GRID
 62
5
100
AcDbLine
 10
140.0
 20
10.0
 30
0.0
 11
140.0
 21
5.0
 31
0.0
  0
LINE
  5
2F7
330
2B4
100
AcDbEntity
  8
TABLE_GRID
 62
5
100
AcDbLine
 10
140.0
 20
5.0
 30
0.0
 11
140.0
 21
0.0
 31
0.0
  0
ENDBLK
  5
2B6
330
2B4
100
AcDbEntity
  8
0
100
AcDbBlockEnd
  0
BLOCK
  5
2FC
330
2FB
100
AcDbEntity
  8
0
100
AcDbBlockBegin
  2
TABLE_WELDS_KP17
 70
0
 10
0.0
 20
0.0
 30
0.0
  3
TABLE_WELDS_KP17
  1

  0
TEXT
  5
2FE
330
2FB
100
AcDbEntity
  8
TABLE
 62
7
100
AcDbText
 10
5.0
 20
19.9
 30
0.0
 40
1.5
  1
№
  7
GOST
 72
1
 11
5.0
 21
19.9
 31
0.0
100
AcDbText
 73
3
  0
TEXT
  5
2FF
330
2FB
100
AcDbEntity
  8
TABLE
 62
7
100
AcDbText
 10
32.5
 20
19.9
 30
0.0
 40
1.5
  1
Стандарт
  7
GOST
 72
1
 11
32.5
 21
19.9
 31
0.0
100
AcDbText
 73
3
  0
TEXT
  5
300
330
2FB
100
AcDbEntity
  8
TABLE
 62
7
100
AcDbText
 10
70.0
 20
19.9
 30
0.0
 40
1.5
  1
Обозначение
  7
GOST
 72
1
 11
70.0
 21
19.9
 31
0.0
100
AcDbText
 73
3
  0
TEXT
  5
301
330
2FB
100
AcDbEntity
  8
TABLE
 62
7
100
AcDbText
 10
5.0
 20
15.4
 30
0.0
 40
1.5
  1
1
  7
GOST
 72
1
 11
5.0
 21
15.4
 31
0.0
100
AcDbText
 73
3
  0
TEXT
  5
302
330
2FB
100
AcDbEntity
  8
TABLE
 62
7
100
AcDbText
 10
32.5
 20
15.4
 30
0.0
 40
1.5
  1
ГОСТ 14098-2014
  7
GOST
 72
1
 11
32.5
 21
15.4
 31
0.0
100
AcDbText
 73
3
  0
TEXT
  5
303
330
2FB
100
AcDbEntity
  8
TABLE
 62
7
100
AcDbText
 10
70.0
 20
15.4
 30
0.0
 40
1.5
  1
C23-Рэ
  7
GOST
 72
1
 11
70.0
 21
15.4
 31
0.0
100
AcDbText
 73
3
  0
TEXT
  5
304
330
2FB
100
AcDbEntity
  8
TABLE
 62
7
100
AcDbText
 10
5.0
 20
10.9
 30
0.0
 40
1.5
  1
2
  7
GOST
 72
1
 11
5.0
 21
10.9
 31
0.0
100
AcDbText
 73
3
  0
TEXT
  5
305
330
2FB
100
AcDbEntity
  8
TABLE
 62
7
100
AcDbText
 10
32.5
 20
10.9
 30
0.0
 40
1.5
  1
ГОСТ 5264-80
  7
GOST
 72
1
 11
32.5
 21
10.9
 31
0.0
100
AcDbText
 73
3
  0
TEXT
  5
306
330
2FB
100
AcDbEntity
  8
TABLE
 62
7
100
AcDbText
 10
70.0
 20
10.9
 30
0.0
 40
1.5
  1
Н1-Δ5
  7
GOST
 72
1
 11
70.0
 21
10.9
 31
0.0
100
AcDbText
 73
3
  0
TEXT
  5
307
330
2FB
100
AcDbEntity
  8
TABLE
 62
7
100
AcDbText
 10
5.0
 20
6.4
 30
0.0
 40
1.5
  1
3
  7
GOST
 72
1
 11
5.0
 21
6.4
 31
0.0
100
AcDbText
 73
3
  0
TEXT
  5
308
330
2FB
100
AcDbEntity
  8
TABLE
 62
7
100
AcDbText
 10
32.5
 20
6.4
 30
0.0
 40
1.5
  1
ГОСТ 5264-80
  7
GOST
 72
1
 11
32.5
 21
6.4
 31
0.0
100
AcDbText
 73
3
  0
TEXT
  5
309
330
2FB
100
AcDbEntity
  8
TABLE
 62
7
100
AcDbText
 10
70.0
 20
6.4
 30
0.0
 40
1.5
  1
Т1-Δ5
  7
GOST
 72
1
 11
70.0
 21
6.4
 31
0.0
100
AcDbText
 73
3
  0
TEXT
  5
30A
330
2FB
100
AcDbEntity
  8
TABLE
 62
7
100
AcDbText
 10
5.0
 20
1.9
 30
0.0
 40
1.5
  1
4
  7
GOST
 72
1
 11
5.0
 21
1.9
 31
0.0
100
AcDbText
 73
3
  0
TEXT
  5
30B
330
2FB
100
AcDbEntity
  8
TABLE
 62
7
100
AcDbText
 10
32.5
 20
1.9
 30
0.0
 40
1.5
  1
ГОСТ 14098-2014
  7
GOST
 72
1
 11
32.5
 21
1.9
 31
0.0
100
AcDbText
 73
3
  0
TEXT
  5
30C
330
2FB
100
AcDbEntity
  8
TABLE
 62
7
100
AcDbText
 10
70.0
 20
1.9
 30
0.0
 40
1.5
  1
С15-Рс
  7
GOST
 72
1
 11
70.0
 21
1.9
 31
0.0
100
AcDbText
 73
3
  0
LINE
  5
30D
330
2FB
100
AcDbEntity
  8
TABLE_GRID
 62
5
100
AcDbLine
 10
0.0
 20
20.0
 30
0.0
 11
10.0
 21
20.0
 31
0.0
  0
LINE
  5
30E
330
2FB
100
AcDbEntity
  8
TABLE_GRID
 62
5
100
AcDbLine
 10
10.0
 20
20.0
 30
0.0
 11
55.0
 21
20.0
 31
0.0
  0
LINE
  5
30F
330
2FB
100
AcDbEntity
  8
TABLE_GRID
 62
5
100
AcDbLine
 10
55.0
 20
20.0
 30
0.0
 11
85.0
 21
20.0
 31
0.0
  0
LINE
  5
310
330
2FB
100
AcDbEntity
  8
TABLE_GRID
 62
5
100
AcDbLine
 10
0.0
 20
15.5
 30
0.0
 11
10.0
 21
15.5
 31
0.0
  0
LINE
  5
311
330
2FB
100
AcDbEntity
  8
TABLE_GRID
 62
5
100
AcDbLine
 10
10.0
 20
15.5
 30
0.0
 11
55.0
 21
15.5
 31
0.0
  0
LINE
  5
312
330
2FB
100
AcDbEntity
  8
TABLE_GRID
 62
5
100
AcDbLine
 10
55.0
 20
15.5
 30
0.0
 11
85.0
 21
15.5
 31
0.0
  0
LINE
  5
313
330
2FB
100
AcDbEntity
  8
TABLE_GRID
 62
5
100
AcDbLine
 10
0.0
 20
11.0
 30
0.0
 11
10.0
 21
11.0
 31
0.0
  0
LINE
  5
314
330
2FB
100
AcDbEntity
  8
TABLE_GRID
 62
5
100
AcDbLine
 10
10.0
 20
11.0
 30
0.0
 11
55.0
 21
11.0
 31
0.0
  0
LINE
  5
315
330
2FB
100
AcDbEntity
  8
TABLE_GRID
 62
5
100
AcDbLine
 10
55.0
 20
11.0
 30
0.0
 11
85.0
 21
11.0
 31
0.0
  0
LINE
  5
316
330
2FB
100
AcDbEntity
  8
TABLE_GRID
 62
5
100
AcDbLine
 10
0.0
 20
6.5
 30
0.0
 11
10.0
 21
6.5
 31
0.0
  0
LINE
  5
317
330
2FB
100
AcDbEntity
  8
TABLE_GRID
 62
5
100
AcDbLine
 10
10.0
 20
6.5
 30
0.0
 11
55.0
 21
6.5
 31
0.0
  0
LINE
  5
318
330
2FB
100
AcDbEntity
  8
TABLE_GRID
 62
5
100
AcDbLine
 10
55.0
 20
6.5
 30
0.0
 11
85.0
 21
6.5
 31
0.0
  0
LINE
  5
319
330
2FB
100
AcDbEntity
  8
TABLE_GRID
 62
5
100
AcDbLine
 10
0.0
 20
2.0
 30
0.0
 11
10.0
 21
2.0
 31
0.0
  0
LINE
  5
31A
330
2FB
100
AcDbEntity
  8
TABLE_GRID
 62
5
100
AcDbLine
 10
10.0
 20
2.0
 30
0.0
 11
55.0
 21
2.0
 31
0.0
  0
LINE
  5
31B
330
2FB
100
AcDbEntity
  8
TABLE_GRID
 62
5
100
AcDbLine
 10
55.0
 20
2.0
 30
0.0
 11
85.0
 21
2.0
 31
0.0
  0
LINE
  5
31C
330
2FB
100
AcDbEntity
  8
TABLE_GRID
 62
5
100
AcDbLine
 10
0.0
 20
-2.5
 30
0.0
 11
10.0
 21
-2.5
 31
0.0
  0
LINE
  5
31D
330
2FB
100
AcDbEntity
  8
TABLE_GRID
 62
5
100
AcDbLine
 10
10.0
 20
-2.5
 30
0.0
 11
55.0
 21
-2.5
 31
0.0
  0
LINE
  5
31E
330
2FB
100
AcDbEntity
  8
TABLE_GRID
 62
5
100
AcDbLine
 10
55.0
 20
-2.5
 30
0.0
 11
85.0
 21
-2.5
 31
0.0
  0
LINE
  5
31F
330
2FB
100
AcDbEntity
  8
TABLE_GRID
 62
5
100
AcDbLine
 10
0.0
 20
20.0
 30
0.0
 11
0.0
 21
15.5
 31
0.0
  0
LINE
  5
320
330
2FB
100
AcDbEntity
  8
TABLE_GRID
 62
5
100
AcDbLine
 10
0.0
 20
15.5
 30
0.0
 11
0.0
 21
11.0
 31
0.0
  0
LINE
  5
321
330
2FB
100
AcDbEntity
  8
TABLE_GRID
 62
5
100
AcDbLine
 10
0.0
 20
11.0
 30
0.0
 11
0.0
 21
6.5
 31
0.0
  0
LINE
  5
322
330
2FB
100
AcDbEntity
  8
TABLE_GRID
 62
5
100
AcDbLine
 10
0.0
 20
6.5
 30
0.0
 11
0.0
 21
2.0
 31
0.0
  0
LINE
  5
323
330
2FB
100
AcDbEntity
  8
TABLE_GRID
 62
5
100
AcDbLine
 10
0.0
 20
2.0
 30
0.0
 11
0.0
 21
-2.5
 31
0.0
  0
LINE
  5
324
330
2FB
100
AcDbEntity
  8
TABLE_GRID
 62
5
100
AcDbLine
 10
10.0
 20
20.0
 30
0.0
 11
10.0
 21
15.5
 31
0.0
  0
LINE
  5
325
330
2FB
100
AcDbEntity
  8
TABLE_GRID
 62
5
100
AcDbLine
 10
10.0
 20
15.5
 30
0.0
 11
10.0
 21
11.0
 31
0.0
  0
LINE
  5
326
330
2FB
100
AcDbEntity
  8
TABLE_GRID
 62
5
100
AcDbLine
 10
10.0
 20
11.0
 30
0.0
 11
10.0
 21
6.5
 31
0.0
  0
LINE
  5
327
330
2FB
100
AcDbEntity
  8
TABLE_GRID
 62
5
100
AcDbLine
 10
10.0
 20
6.5
 30
0.0
 11
10.0
 21
2.0
 31
0.0
  0
LINE
  5
328
330
2FB
100
AcDbEntity
  8
TABLE_GRID
 62
5
100
AcDbLine
 10
10.0
 20
2.0
 30
0.0
 11
10.0
 21
-2.5
 31
0.0
  0
LINE
  5
329
330
2FB
100
AcDbEntity
  8
TABLE_GRID
 62
5
100
AcDbLine
 10
55.0
 20
20.0
 30
0.0
 11
55.0
 21
15.5
 31
0.0
  0
LINE
  5
32A
330
2FB
100
AcDbEntity
  8
TABLE_GRID
 62
5
100
AcDbLine
 10
55.0
 20
15.5
 30
0.0
 11
55.0
 21
11.0
 31
0.0
  0
LINE
  5
32B
330
2FB
100
AcDbEntity
  8
TABLE_GRID
 62
5
100
AcDbLine
 10
55.0
 20
11.0
 30
0.0
 11
55.0
 21
6.5
 31
0.0
  0
LINE
  5
32C
330
2FB
100
AcDbEntity
  8
TABLE_GRID
 62
5
100
AcDbLine
 10
55.0
 20
6.5
 30
0.0
 11
55.0
 21
2.0
 31
0.0
  0
LINE
  5
32D
330
2FB
100
AcDbEntity
  8
TABLE_GRID
 62
5
100
AcDbLine
 10
55.0
 20
2.0
 30
0.0
 11
55.0
 21
-2.5
 31
0.0
  0
LINE
  5
32E
330
2FB
100
AcDbEntity
  8
TABLE_GRID
 62
5
100
AcDbLine
 10
85.0
 20
20.0
 30
0.0
 11
85.0
 21
15.5
 31
0.0
  0
LINE
  5
32F
330
2FB
100
AcDbEntity
  8
TABLE_GRID
 62
5
100
AcDbLine
 10
85.0
 20
15.5
 30
0.0
 11
85.0
 21
11.0
 31
0.0
  0
LINE
  5
330
330
2FB
100
AcDbEntity
  8
TABLE_GRID
 62
5
100
AcDbLine
 10
85.0
 20
11.0
 30
0.0
 11
85.0
 21
6.5
 31
0.0
  0
LINE
  5
331
330
2FB
100
AcDbEntity
  8
TABLE_GRID
 62
5
100
AcDbLine
 10
85.0
 20
6.5
 30
0.0
 11
85.0
 21
2.0
 31
0.0
  0
LINE
  5
332
330
2FB
100
AcDbEntity
  8
TABLE_GRID
 62
5
100
AcDbLine
 10
85.0
 20
2.0
 30
0.0
 11
85.0
 21
-2.5
 31
0.0
  0
ENDBLK
  5
2FD
330
2FB
100
AcDbEntity
  8
0
100
AcDbBlockEnd
  0
BLOCK
  5
337
330
336
100
AcDbEntity
  8
0
100
AcDbBlockBegin
  2
TABLE_SPEC_KP17
 70
0
 10
0.0
 20
0.0
 30
0.0
  3
TABLE_SPEC_KP17
  1

  0
TEXT
  5
339
330
336
100
AcDbEntity
  8
TABLE
 62
7
100
AcDbText
 10
6.0
 20
95.9
 30
0.0
 40
1.8
  1
Поз.
  7
GOST
 72
1
 11
6.0
 21
95.9
 31
0.0
100
AcDbText
 73
3
  0
TEXT
  5
33A
330
336
100
AcDbEntity
  8
TABLE
 62
7
100
AcDbText
 10
62.0
 20
95.9
 30
0.0
 40
1.8
  1
Наименование
  7
GOST
 72
1
 11
62.0
 21
95.9
 31
0.0
100
AcDbText
 73
3
  0
TEXT
  5
33B
330
336
100
AcDbEntity
  8
TABLE
 62
7
100
AcDbText
 10
119.0
 20
95.9
 30
0.0
 40
1.8
  1
Кол.
  7
GOST
 72
1
 11
119.0
 21
95.9
 31
0.0
100
AcDbText
 73
3
  0
TEXT
  5
33C
330
336
100
AcDbEntity
  8
TABLE
 62
7
100
AcDbText
 10
137.0
 20
95.9
 30
0.0
 40
1.8
  1
Масса ед., кг
  7
GOST
 72
1
 11
137.0
 21
95.9
 31
0.0
100
AcDbText
 73
3
  0
TEXT
  5
33D
330
336
100
AcDbEntity
  8
TABLE
 62
7
100
AcDbText
 10
158.0
 20
95.9
 30
0.0
 40
1.8
  1
Масса, кг
  7
GOST
 72
1
 11
158.0
 21
95.9
 31
0.0
100
AcDbText
 73
3
  0
TEXT
  5
33E
330
336
100
AcDbEntity
  8
TABLE
100
AcDbText
 10
6.0
 20
91.9
 30
0.0
 40
0.7
  1
1
  7
STANDARD
 72
1
 11
6.0
 21
91.9
 31
0.0
100
AcDbText
 73
3
  0
TEXT
  5
33F
330
336
100
AcDbEntity
  8
TABLE
100
AcDbText
 10
62.0
 20
91.9
 30
0.0
 40
0.7
  1
Пруток 22x5850-A500C ГОСТ 34028-2016
  7
STANDARD
 72
1
 11
62.0
 21
91.9
 31
0.0
100
AcDbText
 73
3
  0
TEXT
  5
340
330
336
100
AcDbEntity
  8
TABLE
100
AcDbText
 10
119.0
 20
91.9
 30
0.0
 40
0.7
  1
28
  7
STANDARD
 72
1
 11
119.0
 21
91.9
 31
0.0
100
AcDbText
 73
3
  0
TEXT
  5
341
330
336
100
AcDbEntity
  8
TABLE
100
AcDbText
 10
137.0
 20
91.9
 30
0.0
 40
0.7
  1
17.46
  7
STANDARD
 72
1
 11
137.0
 21
91.9
 31
0.0
100
AcDbText
 73
3
  0
TEXT
  5
342
330
336
100
AcDbEntity
  8
TABLE
100
AcDbText
 10
158.0
 20
91.9
 30
0.0
 40
0.7
  1
488.88
  7
STANDARD
 72
1
 11
158.0
 21
91.9
 31
0.0
100
AcDbText
 73
3
  0
TEXT
  5
343
330
336
100
AcDbEntity
  8
TABLE
100
AcDbText
 10
6.0
 20
87.9
 30
0.0
 40
0.7
  1
2
  7
STANDARD
 72
1
 11
6.0
 21
87.9
 31
0.0
100
AcDbText
 73
3
  0
TEXT
  5
344
330
336
100
AcDbEntity
  8
TABLE
100
AcDbText
 10
62.0
 20
87.9
 30
0.0
 40
0.7
  1
Пруток 22x3050-A500C ГОСТ 34028-2016
  7
STANDARD
 72
1
 11
62.0
 21
87.9
 31
0.0
100
AcDbText
 73
3
  0
TEXT
  5
345
330
336
100
AcDbEntity
  8
TABLE
100
AcDbText
 10
119.0
 20
87.9
 30
0.0
 40
0.7
  1
14
  7
STANDARD
 72
1
 11
119.0
 21
87.9
 31
0.0
100
AcDbText
 73
3
  0
TEXT
  5
346
330
336
100
AcDbEntity
  8
TABLE
100
AcDbText
 10
137.0
 20
87.9
 30
0.0
 40
0.7
  1
9.10
  7
STANDARD
 72
1
 11
137.0
 21
87.9
 31
0.0
100
AcDbText
 73
3
  0
TEXT
  5
347
330
336
100
AcDbEntity
  8
TABLE
100
AcDbText
 10
158.0
 20
87.9
 30
0.0
 40
0.7
  1
127.40
  7
STANDARD
 72
1
 11
158.0
 21
87.9
 31
0.0
100
AcDbText
 73
3
  0
TEXT
  5
348
330
336
100
AcDbEntity
  8
TABLE
100
AcDbText
 10
6.0
 20
83.9
 30
0.0
 40
0.7
  1
3
  7
STANDARD
 72
1
 11
6.0
 21
83.9
 31
0.0
100
AcDbText
 73
3
  0
TEXT
  5
349
330
336
100
AcDbEntity
  8
TABLE
100
AcDbText
 10
62.0
 20
83.9
 30
0.0
 40
0.7
  1
Пруток 36x11700-A500C ГОСТ 34028-2016
  7
STANDARD
 72
1
 11
62.0
 21
83.9
 31
0.0
100
AcDbText
 73
3
  0
TEXT
  5
34A
330
336
100
AcDbEntity
  8
TABLE
100
AcDbText
 10
119.0
 20
83.9
 30
0.0
 40
0.7
  1
14
  7
STANDARD
 72
1
 11
119.0
 21
83.9
 31
0.0
100
AcDbText
 73
3
  0
TEXT
  5
34B
330
336
100
AcDbEntity
  8
TABLE
100
AcDbText
 10
137.0
 20
83.9
 30
0.0
 40
0.7
  1
93.48
  7
STANDARD
 72
1
 11
137.0
 21
83.9
 31
0.0
100
AcDbText
 73
3
  0
TEXT
  5
34C
330
336
100
AcDbEntity
  8
TABLE
100
AcDbText
 10
158.0
 20
83.9
 30
0.0
 40
0.7
  1
1308.72
  7
STANDARD
 72
1
 11
158.0
 21
83.9
 31
0.0
100
AcDbText
 73
3
  0
TEXT
  5
34D
330
336
100
AcDbEntity
  8
TABLE
100
AcDbText
 10
6.0
 20
79.9
 30
0.0
 40
0.7
  1
4
  7
STANDARD
 72
1
 11
6.0
 21
79.9
 31
0.0
100
AcDbText
 73
3
  0
TEXT
  5
34E
330
336
100
AcDbEntity
  8
TABLE
100
AcDbText
 10
62.0
 20
79.9
 30
0.0
 40
0.7
  1
Пруток 32x11700-A500C ГОСТ 34028-2016
  7
STANDARD
 72
1
 11
62.0
 21
79.9
 31
0.0
100
AcDbText
 73
3
  0
TEXT
  5
34F
330
336
100
AcDbEntity
  8
TABLE
100
AcDbText
 10
119.0
 20
79.9
 30
0.0
 40
0.7
  1
14
  7
STANDARD
 72
1
 11
119.0
 21
79.9
 31
0.0
100
AcDbText
 73
3
  0
TEXT
  5
350
330
336
100
AcDbEntity
  8
TABLE
100
AcDbText
 10
137.0
 20
79.9
 30
0.0
 40
0.7
  1
73.86
  7
STANDARD
 72
1
 11
137.0
 21
79.9
 31
0.0
100
AcDbText
 73
3
  0
TEXT
  5
351
330
336
100
AcDbEntity
  8
TABLE
100
AcDbText
 10
158.0
 20
79.9
 30
0.0
 40
0.7
  1
1034.04
  7
STANDARD
 72
1
 11
158.0
 21
79.9
 31
0.0
100
AcDbText
 73
3
  0
TEXT
  5
352
330
336
100
AcDbEntity
  8
TABLE
100
AcDbText
 10
6.0
 20
75.9
 30
0.0
 40
0.7
  1
5
  7
STANDARD
 72
1
 11
6.0
 21
75.9
 31
0.0
100
AcDbText
 73
3
  0
TEXT
  5
353
330
336
100
AcDbEntity
  8
TABLE
100
AcDbText
 10
62.0
 20
75.9
 30
0.0
 40
0.7
  1
Пруток 36x5850-A500C ГОСТ 34028-2016
  7
STANDARD
 72
1
 11
62.0
 21
75.9
 31
0.0
100
AcDbText
 73
3
  0
TEXT
  5
354
330
336
100
AcDbEntity
  8
TABLE
100
AcDbText
 10
119.0
 20
75.9
 30
0.0
 40
0.7
  1
14
  7
STANDARD
 72
1
 11
119.0
 21
75.9
 31
0.0
100
AcDbText
 73
3
  0
TEXT
  5
355
330
336
100
AcDbEntity
  8
TABLE
100
AcDbText
 10
137.0
 20
75.9
 30
0.0
 40
0.7
  1
46.74
  7
STANDARD
 72
1
 11
137.0
 21
75.9
 31
0.0
100
AcDbText
 73
3
  0
TEXT
  5
356
330
336
100
AcDbEntity
  8
TABLE
100
AcDbText
 10
158.0
 20
75.9
 30
0.0
 40
0.7
  1
654.36
  7
STANDARD
 72
1
 11
158.0
 21
75.9
 31
0.0
100
AcDbText
 73
3
  0
TEXT
  5
357
330
336
100
AcDbEntity
  8
TABLE
100
AcDbText
 10
6.0
 20
71.9
 30
0.0
 40
0.7
  1
6
  7
STANDARD
 72
1
 11
6.0
 21
71.9
 31
0.0
100
AcDbText
 73
3
  0
TEXT
  5
358
330
336
100
AcDbEntity
  8
TABLE
100
AcDbText
 10
62.0
 20
71.9
 30
0.0
 40
0.7
  1
Пруток 22x11700-A500C ГОСТ 34028-2016
  7
STANDARD
 72
1
 11
62.0
 21
71.9
 31
0.0
100
AcDbText
 73
3
  0
TEXT
  5
359
330
336
100
AcDbEntity
  8
TABLE
100
AcDbText
 10
119.0
 20
71.9
 30
0.0
 40
0.7
  1
14
  7
STANDARD
 72
1
 11
119.0
 21
71.9
 31
0.0
100
AcDbText
 73
3
  0
TEXT
  5
35A
330
336
100
AcDbEntity
  8
TABLE
100
AcDbText
 10
137.0
 20
71.9
 30
0.0
 40
0.7
  1
34.91
  7
STANDARD
 72
1
 11
137.0
 21
71.9
 31
0.0
100
AcDbText
 73
3
  0
TEXT
  5
35B
330
336
100
AcDbEntity
  8
TABLE
100
AcDbText
 10
158.0
 20
71.9
 30
0.0
 40
0.7
  1
488.74
  7
STANDARD
 72
1
 11
158.0
 21
71.9
 31
0.0
100
AcDbText
 73
3
  0
TEXT
  5
35C
330
336
100
AcDbEntity
  8
TABLE
100
AcDbText
 10
6.0
 20
67.9
 30
0.0
 40
0.7
  1
7
  7
STANDARD
 72
1
 11
6.0
 21
67.9
 31
0.0
100
AcDbText
 73
3
  0
TEXT
  5
35D
330
336
100
AcDbEntity
  8
TABLE
100
AcDbText
 10
62.0
 20
67.9
 30
0.0
 40
0.7
  1
Пруток 25x11700-A500C ГОСТ 34028-2016
  7
STANDARD
 72
1
 11
62.0
 21
67.9
 31
0.0
100
AcDbText
 73
3
  0
TEXT
  5
35E
330
336
100
AcDbEntity
  8
TABLE
100
AcDbText
 10
119.0
 20
67.9
 30
0.0
 40
0.7
  1
14
  7
STANDARD
 72
1
 11
119.0
 21
67.9
 31
0.0
100
AcDbText
 73
3
  0
TEXT
  5
35F
330
336
100
AcDbEntity
  8
TABLE
100
AcDbText
 10
137.0
 20
67.9
 30
0.0
 40
0.7
  1
45.08
  7
STANDARD
 72
1
 11
137.0
 21
67.9
 31
0.0
100
AcDbText
 73
3
  0
TEXT
  5
360
330
336
100
AcDbEntity
  8
TABLE
100
AcDbText
 10
158.0
 20
67.9
 30
0.0
 40
0.7
  1
631.12
  7
STANDARD
 72
1
 11
158.0
 21
67.9
 31
0.0
100
AcDbText
 73
3
  0
TEXT
  5
361
330
336
100
AcDbEntity
  8
TABLE
100
AcDbText
 10
6.0
 20
63.9
 30
0.0
 40
0.7
  1
8
  7
STANDARD
 72
1
 11
6.0
 21
63.9
 31
0.0
100
AcDbText
 73
3
  0
TEXT
  5
362
330
336
100
AcDbEntity
  8
TABLE
100
AcDbText
 10
62.0
 20
63.9
 30
0.0
 40
0.7
  1
Пруток 22x8450-A500C ГОСТ 34028-2016
  7
STANDARD
 72
1
 11
62.0
 21
63.9
 31
0.0
100
AcDbText
 73
3
  0
TEXT
  5
363
330
336
100
AcDbEntity
  8
TABLE
100
AcDbText
 10
119.0
 20
63.9
 30
0.0
 40
0.7
  1
14
  7
STANDARD
 72
1
 11
119.0
 21
63.9
 31
0.0
100
AcDbText
 73
3
  0
TEXT
  5
364
330
336
100
AcDbEntity
  8
TABLE
100
AcDbText
 10
137.0
 20
63.9
 30
0.0
 40
0.7
  1
25.21
  7
STANDARD
 72
1
 11
137.0
 21
63.9
 31
0.0
100
AcDbText
 73
3
  0
TEXT
  5
365
330
336
100
AcDbEntity
  8
TABLE
100
AcDbText
 10
158.0
 20
63.9
 30
0.0
 40
0.7
  1
352.94
  7
STANDARD
 72
1
 11
158.0
 21
63.9
 31
0.0
100
AcDbText
 73
3
  0
TEXT
  5
366
330
336
100
AcDbEntity
  8
TABLE
100
AcDbText
 10
6.0
 20
59.9
 30
0.0
 40
0.7
  1
9
  7
STANDARD
 72
1
 11
6.0
 21
59.9
 31
0.0
100
AcDbText
 73
3
  0
TEXT
  5
367
330
336
100
AcDbEntity
  8
TABLE
100
AcDbText
 10
62.0
 20
59.9
 30
0.0
 40
0.7
  1
Пруток 12x1900-A500C ГОСТ 34028-2016
  7
STANDARD
 72
1
 11
62.0
 21
59.9
 31
0.0
100
AcDbText
 73
3
  0
TEXT
  5
368
330
336
100
AcDbEntity
  8
TABLE
100
AcDbText
 10
119.0
 20
59.9
 30
0.0
 40
0.7
  1
200
  7
STANDARD
 72
1
 11
119.0
 21
59.9
 31
0.0
100
AcDbText
 73
3
  0
TEXT
  5
369
330
336
100
AcDbEntity
  8
TABLE
100
AcDbText
 10
137.0
 20
59.9
 30
0.0
 40
0.7
  1
1.69
  7
STANDARD
 72
1
 11
137.0
 21
59.9
 31
0.0
100
AcDbText
 73
3
  0
TEXT
  5
36A
330
336
100
AcDbEntity
  8
TABLE
100
AcDbText
 10
158.0
 20
59.9
 30
0.0
 40
0.7
  1
338.00
  7
STANDARD
 72
1
 11
158.0
 21
59.9
 31
0.0
100
AcDbText
 73
3
  0
TEXT
  5
36B
330
336
100
AcDbEntity
  8
TABLE
100
AcDbText
 10
6.0
 20
55.9
 30
0.0
 40
0.7
  1
10
  7
STANDARD
 72
1
 11
6.0
 21
55.9
 31
0.0
100
AcDbText
 73
3
  0
TEXT
  5
36C
330
336
100
AcDbEntity
  8
TABLE
100
AcDbText
 10
62.0
 20
55.9
 30
0.0
 40
0.7
  1
Пруток 12x720-A500C ГОСТ 34028-2016
  7
STANDARD
 72
1
 11
62.0
 21
55.9
 31
0.0
100
AcDbText
 73
3
  0
TEXT
  5
36D
330
336
100
AcDbEntity
  8
TABLE
100
AcDbText
 10
119.0
 20
55.9
 30
0.0
 40
0.7
  1
600
  7
STANDARD
 72
1
 11
119.0
 21
55.9
 31
0.0
100
AcDbText
 73
3
  0
TEXT
  5
36E
330
336
100
AcDbEntity
  8
TABLE
100
AcDbText
 10
137.0
 20
55.9
 30
0.0
 40
0.7
  1
0.64
  7
STANDARD
 72
1
 11
137.0
 21
55.9
 31
0.0
100
AcDbText
 73
3
  0
TEXT
  5
36F
330
336
100
AcDbEntity
  8
TABLE
100
AcDbText
 10
158.0
 20
55.9
 30
0.0
 40
0.7
  1
384.00
  7
STANDARD
 72
1
 11
158.0
 21
55.9
 31
0.0
100
AcDbText
 73
3
  0
TEXT
  5
370
330
336
100
AcDbEntity
  8
TABLE
100
AcDbText
 10
62.0
 20
51.9
 30
0.0
 40
0.7
  1
Детали
  7
STANDARD
 72
1
 11
62.0
 21
51.9
 31
0.0
100
AcDbText
 73
3
  0
TEXT
  5
371
330
336
100
AcDbEntity
  8
TABLE
100
AcDbText
 10
6.0
 20
47.9
 30
0.0
 40
0.7
  1
11
  7
STANDARD
 72
1
 11
6.0
 21
47.9
 31
0.0
100
AcDbText
 73
3
  0
TEXT
  5
372
330
336
100
AcDbEntity
  8
TABLE
100
AcDbText
 10
62.0
 20
47.9
 30
0.0
 40
0.7
  1
Пруток 22x1200-A500C ГОСТ 34028-2016
  7
STANDARD
 72
1
 11
62.0
 21
47.9
 31
0.0
100
AcDbText
 73
3
  0
TEXT
  5
373
330
336
100
AcDbEntity
  8
TABLE
100
AcDbText
 10
119.0
 20
47.9
 30
0.0
 40
0.7
  1
58
  7
STANDARD
 72
1
 11
119.0
 21
47.9
 31
0.0
100
AcDbText
 73
3
  0
TEXT
  5
374
330
336
100
AcDbEntity
  8
TABLE
100
AcDbText
 10
137.0
 20
47.9
 30
0.0
 40
0.7
  1
3.60
  7
STANDARD
 72
1
 11
137.0
 21
47.9
 31
0.0
100
AcDbText
 73
3
  0
TEXT
  5
375
330
336
100
AcDbEntity
  8
TABLE
100
AcDbText
 10
158.0
 20
47.9
 30
0.0
 40
0.7
  1
208.80
  7
STANDARD
 72
1
 11
158.0
 21
47.9
 31
0.0
100
AcDbText
 73
3
  0
TEXT
  5
376
330
336
100
AcDbEntity
  8
TABLE
100
AcDbText
 10
6.0
 20
43.9
 30
0.0
 40
0.7
  1
12
  7
STANDARD
 72
1
 11
6.0
 21
43.9
 31
0.0
100
AcDbText
 73
3
  0
TEXT
  5
377
330
336
100
AcDbEntity
  8
TABLE
100
AcDbText
 10
62.0
 20
43.9
 30
0.0
 40
0.7
  1
Пруток 25x1540-A240 ГОСТ 34028-2016
  7
STANDARD
 72
1
 11
62.0
 21
43.9
 31
0.0
100
AcDbText
 73
3
  0
TEXT
  5
378
330
336
100
AcDbEntity
  8
TABLE
100
AcDbText
 10
119.0
 20
43.9
 30
0.0
 40
0.7
  1
4
  7
STANDARD
 72
1
 11
119.0
 21
43.9
 31
0.0
100
AcDbText
 73
3
  0
TEXT
  5
379
330
336
100
AcDbEntity
  8
TABLE
100
AcDbText
 10
137.0
 20
43.9
 30
0.0
 40
0.7
  1
5.93
  7
STANDARD
 72
1
 11
137.0
 21
43.9
 31
0.0
100
AcDbText
 73
3
  0
TEXT
  5
37A
330
336
100
AcDbEntity
  8
TABLE
100
AcDbText
 10
158.0
 20
43.9
 30
0.0
 40
0.7
  1
23.72
  7
STANDARD
 72
1
 11
158.0
 21
43.9
 31
0.0
100
AcDbText
 73
3
  0
TEXT
  5
37B
330
336
100
AcDbEntity
  8
TABLE
100
AcDbText
 10
6.0
 20
39.9
 30
0.0
 40
0.7
  1
13
  7
STANDARD
 72
1
 11
6.0
 21
39.9
 31
0.0
100
AcDbText
 73
3
  0
TEXT
  5
37C
330
336
100
AcDbEntity
  8
TABLE
100
AcDbText
 10
62.0
 20
39.9
 30
0.0
 40
0.7
  1
Пруток 25x1860-A240 ГОСТ 34028-2016
  7
STANDARD
 72
1
 11
62.0
 21
39.9
 31
0.0
100
AcDbText
 73
3
  0
TEXT
  5
37D
330
336
100
AcDbEntity
  8
TABLE
100
AcDbText
 10
119.0
 20
39.9
 30
0.0
 40
0.7
  1
2
  7
STANDARD
 72
1
 11
119.0
 21
39.9
 31
0.0
100
AcDbText
 73
3
  0
TEXT
  5
37E
330
336
100
AcDbEntity
  8
TABLE
100
AcDbText
 10
137.0
 20
39.9
 30
0.0
 40
0.7
  1
7.17
  7
STANDARD
 72
1
 11
137.0
 21
39.9
 31
0.0
100
AcDbText
 73
3
  0
TEXT
  5
37F
330
336
100
AcDbEntity
  8
TABLE
100
AcDbText
 10
158.0
 20
39.9
 30
0.0
 40
0.7
  1
14.34
  7
STANDARD
 72
1
 11
158.0
 21
39.9
 31
0.0
100
AcDbText
 73
3
  0
TEXT
  5
380
330
336
100
AcDbEntity
  8
TABLE
100
AcDbText
 10
6.0
 20
35.9
 30
0.0
 40
0.7
  1
14
  7
STANDARD
 72
1
 11
6.0
 21
35.9
 31
0.0
100
AcDbText
 73
3
  0
TEXT
  5
381
330
336
100
AcDbEntity
  8
TABLE
100
AcDbText
 10
62.0
 20
35.9
 30
0.0
 40
0.7
  1
Пруток 25x600-A240 ГОСТ 34028-2016
  7
STANDARD
 72
1
 11
62.0
 21
35.9
 31
0.0
100
AcDbText
 73
3
  0
TEXT
  5
382
330
336
100
AcDbEntity
  8
TABLE
100
AcDbText
 10
119.0
 20
35.9
 30
0.0
 40
0.7
  1
2
  7
STANDARD
 72
1
 11
119.0
 21
35.9
 31
0.0
100
AcDbText
 73
3
  0
TEXT
  5
383
330
336
100
AcDbEntity
  8
TABLE
100
AcDbText
 10
137.0
 20
35.9
 30
0.0
 40
0.7
  1
2.31
  7
STANDARD
 72
1
 11
137.0
 21
35.9
 31
0.0
100
AcDbText
 73
3
  0
TEXT
  5
384
330
336
100
AcDbEntity
  8
TABLE
100
AcDbText
 10
158.0
 20
35.9
 30
0.0
 40
0.7
  1
4.62
  7
STANDARD
 72
1
 11
158.0
 21
35.9
 31
0.0
100
AcDbText
 73
3
  0
TEXT
  5
385
330
336
100
AcDbEntity
  8
TABLE
100
AcDbText
 10
6.0
 20
31.9
 30
0.0
 40
0.7
  1
15
  7
STANDARD
 72
1
 11
6.0
 21
31.9
 31
0.0
100
AcDbText
 73
3
  0
TEXT
  5
386
330
336
100
AcDbEntity
  8
TABLE
100
AcDbText
 10
62.0
 20
31.9
 30
0.0
 40
0.7
  1
Пруток 25x820-A240 ГОСТ 34028-2016
  7
STANDARD
 72
1
 11
62.0
 21
31.9
 31
0.0
100
AcDbText
 73
3
  0
TEXT
  5
387
330
336
100
AcDbEntity
  8
TABLE
100
AcDbText
 10
119.0
 20
31.9
 30
0.0
 40
0.7
  1
2
  7
STANDARD
 72
1
 11
119.0
 21
31.9
 31
0.0
100
AcDbText
 73
3
  0
TEXT
  5
388
330
336
100
AcDbEntity
  8
TABLE
100
AcDbText
 10
137.0
 20
31.9
 30
0.0
 40
0.7
  1
3.16
  7
STANDARD
 72
1
 11
137.0
 21
31.9
 31
0.0
100
AcDbText
 73
3
  0
TEXT
  5
389
330
336
100
AcDbEntity
  8
TABLE
100
AcDbText
 10
158.0
 20
31.9
 30
0.0
 40
0.7
  1
6.32
  7
STANDARD
 72
1
 11
158.0
 21
31.9
 31
0.0
100
AcDbText
 73
3
  0
TEXT
  5
38A
330
336
100
AcDbEntity
  8
TABLE
100
AcDbText
 10
62.0
 20
27.9
 30
0.0
 40
0.7
  1
Закладные изделия
  7
STANDARD
 72
1
 11
62.0
 21
27.9
 31
0.0
100
AcDbText
 73
3
  0
TEXT
  5
38B
330
336
100
AcDbEntity
  8
TABLE
100
AcDbText
 10
6.0
 20
23.9
 30
0.0
 40
0.7
  1
Р17
  7
STANDARD
 72
1
 11
6.0
 21
23.9
 31
0.0
100
AcDbText
 73
3
  0
TEXT
  5
38C
330
336
100
AcDbEntity
  8
TABLE
100
AcDbText
 10
62.0
 20
23.9
 30
0.0
 40
0.7
  1
Рама Р17
  7
STANDARD
 72
1
 11
62.0
 21
23.9
 31
0.0
100
AcDbText
 73
3
  0
TEXT
  5
38D
330
336
100
AcDbEntity
  8
TABLE
100
AcDbText
 10
119.0
 20
23.9
 30
0.0
 40
0.7
  1
15
  7
STANDARD
 72
1
 11
119.0
 21
23.9
 31
0.0
100
AcDbText
 73
3
  0
TEXT
  5
38E
330
336
100
AcDbEntity
  8
TABLE
100
AcDbText
 10
137.0
 20
23.9
 30
0.0
 40
0.7
  1
23.08
  7
STANDARD
 72
1
 11
137.0
 21
23.9
 31
0.0
100
AcDbText
 73
3
  0
TEXT
  5
38F
330
336
100
AcDbEntity
  8
TABLE
100
AcDbText
 10
158.0
 20
23.9
 30
0.0
 40
0.7
  1
346.20
  7
STANDARD
 72
1
 11
158.0
 21
23.9
 31
0.0
100
AcDbText
 73
3
  0
TEXT
  5
390
330
336
100
AcDbEntity
  8
TABLE
100
AcDbText
 10
6.0
 20
19.9
 30
0.0
 40
0.7
  1
Ф1
  7
STANDARD
 72
1
 11
6.0
 21
19.9
 31
0.0
100
AcDbText
 73
3
  0
TEXT
  5
391
330
336
100
AcDbEntity
  8
TABLE
100
AcDbText
 10
62.0
 20
19.9
 30
0.0
 40
0.7
  1
Фиксатор Ф1
  7
STANDARD
 72
1
 11
62.0
 21
19.9
 31
0.0
100
AcDbText
 73
3
  0
TEXT
  5
392
330
336
100
AcDbEntity
  8
TABLE
100
AcDbText
 10
119.0
 20
19.9
 30
0.0
 40
0.7
  1
22
  7
STANDARD
 72
1
 11
119.0
 21
19.9
 31
0.0
100
AcDbText
 73
3
  0
TEXT
  5
393
330
336
100
AcDbEntity
  8
TABLE
100
AcDbText
 10
137.0
 20
19.9
 30
0.0
 40
0.7
  1
1.04
  7
STANDARD
 72
1
 11
137.0
 21
19.9
 31
0.0
100
AcDbText
 73
3
  0
TEXT
  5
394
330
336
100
AcDbEntity
  8
TABLE
100
AcDbText
 10
158.0
 20
19.9
 30
0.0
 40
0.7
  1
22.95
  7
STANDARD
 72
1
 11
158.0
 21
19.9
 31
0.0
100
AcDbText
 73
3
  0
TEXT
  5
395
330
336
100
AcDbEntity
  8
TABLE
100
AcDbText
 10
6.0
 20
15.9
 30
0.0
 40
0.7
  1
Ф2
  7
STANDARD
 72
1
 11
6.0
 21
15.9
 31
0.0
100
AcDbText
 73
3
  0
TEXT
  5
396
330
336
100
AcDbEntity
  8
TABLE
100
AcDbText
 10
62.0
 20
15.9
 30
0.0
 40
0.7
  1
Фиксатор Ф2
  7
STANDARD
 72
1
 11
62.0
 21
15.9
 31
0.0
100
AcDbText
 73
3
  0
TEXT
  5
397
330
336
100
AcDbEntity
  8
TABLE
100
AcDbText
 10
119.0
 20
15.9
 30
0.0
 40
0.7
  1
10
  7
STANDARD
 72
1
 11
119.0
 21
15.9
 31
0.0
100
AcDbText
 73
3
  0
TEXT
  5
398
330
336
100
AcDbEntity
  8
TABLE
100
AcDbText
 10
137.0
 20
15.9
 30
0.0
 40
0.7
  1
1.03
  7
STANDARD
 72
1
 11
137.0
 21
15.9
 31
0.0
100
AcDbText
 73
3
  0
TEXT
  5
399
330
336
100
AcDbEntity
  8
TABLE
100
AcDbText
 10
158.0
 20
15.9
 30
0.0
 40
0.7
  1
10.30
  7
STANDARD
 72
1
 11
158.0
 21
15.9
 31
0.0
100
AcDbText
 73
3
  0
TEXT
  5
39A
330
336
100
AcDbEntity
  8
TABLE
100
AcDbText
 10
6.0
 20
11.9
 30
0.0
 40
0.7
  1
Ф3
  7
STANDARD
 72
1
 11
6.0
 21
11.9
 31
0.0
100
AcDbText
 73
3
  0
TEXT
  5
39B
330
336
100
AcDbEntity
  8
TABLE
100
AcDbText
 10
62.0
 20
11.9
 30
0.0
 40
0.7
  1
Фиксатор Ф3
  7
STANDARD
 72
1
 11
62.0
 21
11.9
 31
0.0
100
AcDbText
 73
3
  0
TEXT
  5
39C
330
336
100
AcDbEntity
  8
TABLE
100
AcDbText
 10
119.0
 20
11.9
 30
0.0
 40
0.7
  1
12
  7
STANDARD
 72
1
 11
119.0
 21
11.9
 31
0.0
100
AcDbText
 73
3
  0
TEXT
  5
39D
330
336
100
AcDbEntity
  8
TABLE
100
AcDbText
 10
137.0
 20
11.9
 30
0.0
 40
0.7
  1
1.02
  7
STANDARD
 72
1
 11
137.0
 21
11.9
 31
0.0
100
AcDbText
 73
3
  0
TEXT
  5
39E
330
336
100
AcDbEntity
  8
TABLE
100
AcDbText
 10
158.0
 20
11.9
 30
0.0
 40
0.7
  1
12.24
  7
STANDARD
 72
1
 11
158.0
 21
11.9
 31
0.0
100
AcDbText
 73
3
  0
TEXT
  5
39F
330
336
100
AcDbEntity
  8
TABLE
100
AcDbText
 10
6.0
 20
7.9
 30
0.0
 40
0.7
  1
Ф4
  7
STANDARD
 72
1
 11
6.0
 21
7.9
 31
0.0
100
AcDbText
 73
3
  0
TEXT
  5
3A0
330
336
100
AcDbEntity
  8
TABLE
100
AcDbText
 10
62.0
 20
7.9
 30
0.0
 40
0.7
  1
Фиксатор Ф4
  7
STANDARD
 72
1
 11
62.0
 21
7.9
 31
0.0
100
AcDbText
 73
3
  0
TEXT
  5
3A1
330
336
100
AcDbEntity
  8
TABLE
100
AcDbText
 10
119.0
 20
7.9
 30
0.0
 40
0.7
  1
16
  7
STANDARD
 72
1
 11
119.0
 21
7.9
 31
0.0
100
AcDbText
 73
3
  0
TEXT
  5
3A2
330
336
100
AcDbEntity
  8
TABLE
100
AcDbText
 10
137.0
 20
7.9
 30
0.0
 40
0.7
  1
1.01
  7
STANDARD
 72
1
 11
137.0
 21
7.9
 31
0.0
100
AcDbText
 73
3
  0
TEXT
  5
3A3
330
336
100
AcDbEntity
  8
TABLE
100
AcDbText
 10
158.0
 20
7.9
 30
0.0
 40
0.7
  1
16.16
  7
STANDARD
 72
1
 11
158.0
 21
7.9
 31
0.0
100
AcDbText
 73
3
  0
TEXT
  5
3A4
330
336
100
AcDbEntity
  8
TABLE
100
AcDbText
 10
62.0
 20
3.9
 30
0.0
 40
0.7
  1
Итого
  7
STANDARD
 72
1
 11
62.0
 21
3.9
 31
0.0
100
AcDbText
 73
3
  0
TEXT
  5
3A5
330
336
100
AcDbEntity
  8
TABLE
100
AcDbText
 10
158.0
 20
3.9
 30
0.0
 40
0.7
  1
6474.15
  7
STANDARD
 72
1
 11
158.0
 21
3.9
 31
0.0
100
AcDbText
 73
3
  0
LINE
  5
3A6
330
336
100
AcDbEntity
  8
TABLE_GRID
 62
5
100
AcDbLine
 10
0.0
 20
96.0
 30
0.0
 11
12.0
 21
96.0
 31
0.0
  0
LINE
  5
3A7
330
336
100
AcDbEntity
  8
TABLE_GRID
 62
5
100
AcDbLine
 10
12.0
 20
96.0
 30
0.0
 11
112.0
 21
96.0
 31
0.0
  0
LINE
  5
3A8
330
336
100
AcDbEntity
  8
TABLE_GRID
 62
5
100
AcDbLine
 10
112.0
 20
96.0
 30
0.0
 11
126.0
 21
96.0
 31
0.0
  0
LINE
  5
3A9
330
336
100
AcDbEntity
  8
TABLE_GRID
 62
5
100
AcDbLine
 10
126.0
 20
96.0
 30
0.0
 11
148.0
 21
96.0
 31
0.0
  0
LINE
  5
3AA
330
336
100
AcDbEntity
  8
TABLE_GRID
 62
5
100
AcDbLine
 10
148.0
 20
96.0
 30
0.0
 11
168.0
 21
96.0
 31
0.0
  0
LINE
  5
3AB
330
336
100
AcDbEntity
  8
TABLE_GRID
 62
5
100
AcDbLine
 10
0.0
 20
92.0
 30
0.0
 11
12.0
 21
92.0
 31
0.0
  0
LINE
  5
3AC
330
336
100
AcDbEntity
  8
TABLE_GRID
 62
5
100
AcDbLine
 10
12.0
 20
92.0
 30
0.0
 11
112.0
 21
92.0
 31
0.0
  0
LINE
  5
3AD
330
336
100
AcDbEntity
  8
TABLE_GRID
 62
5
100
AcDbLine
 10
112.0
 20
92.0
 30
0.0
 11
126.0
 21
92.0
 31
0.0
  0
LINE
  5
3AE
330
336
100
AcDbEntity
  8
TABLE_GRID
 62
5
100
AcDbLine
 10
126.0
 20
92.0
 30
0.0
 11
148.0
 21
92.0
 31
0.0
  0
LINE
  5
3AF
330
336
100
AcDbEntity
  8
TABLE_GRID
 62
5
100
AcDbLine
 10
148.0
 20
92.0
 30
0.0
 11
168.0
 21
92.0
 31
0.0
  0
LINE
  5
3B0
330
336
100
AcDbEntity
  8
TABLE_GRID
 62
5
100
AcDbLine
 10
0.0
 20
88.0
 30
0.0
 11
12.0
 21
88.0
 31
0.0
  0
LINE
  5
3B1
330
336
100
AcDbEntity
  8
TABLE_GRID
 62
5
100
AcDbLine
 10
12.0
 20
88.0
 30
0.0
 11
112.0
 21
88.0
 31
0.0
  0
LINE
  5
3B2
330
336
100
AcDbEntity
  8
TABLE_GRID
 62
5
100
AcDbLine
 10
112.0
 20
88.0
 30
0.0
 11
126.0
 21
88.0
 31
0.0
  0
LINE
  5
3B3
330
336
100
AcDbEntity
  8
TABLE_GRID
 62
5
100
AcDbLine
 10
126.0
 20
88.0
 30
0.0
 11
148.0
 21
88.0
 31
0.0
  0
LINE
  5
3B4
330
336
100
AcDbEntity
  8
TABLE_GRID
 62
5
100
AcDbLine
 10
148.0
 20
88.0
 30
0.0
 11
168.0
 21
88.0
 31
0.0
  0
LINE
  5
3B5
330
336
100
AcDbEntity
  8
TABLE_GRID
 62
5
100
AcDbLine
 10
0.0
 20
84.0
 30
0.0
 11
12.0
 21
84.0
 31
0.0
  0
LINE
  5
3B6
330
336
100
AcDbEntity
  8
TABLE_GRID
 62
5
100
AcDbLine
 10
12.0
 20
84.0
 30
0.0
 11
112.0
 21
84.0
 31
0.0
  0
LINE
  5
3B7
330
336
100
AcDbEntity
  8
TABLE_GRID
 62
5
100
AcDbLine
 10
112.0
 20
84.0
 30
0.0
 11
126.0
 21
84.0
 31
0.0
  0
LINE
  5
3B8
330
336
100
AcDbEntity
  8
TABLE_GRID
 62
5
100
AcDbLine
 10
126.0
 20
84.0
 30
0.0
 11
148.0
 21
84.0
 31
0.0
  0
LINE
  5
3B9
330
336
100
AcDbEntity
  8
TABLE_GRID
 62
5
100
AcDbLine
 10
148.0
 20
84.0
 30
0.0
 11
168.0
 21
84.0
 31
0.0
  0
LINE
  5
3BA
330
336
100
AcDbEntity
  8
TABLE_GRID
 62
5
100
AcDbLine
 10
0.0
 20
80.0
 30
0.0
 11
12.0
 21
80.0
 31
0.0
  0
LINE
  5
3BB
330
336
100
AcDbEntity
  8
TABLE_GRID
 62
5
100
AcDbLine
 10
12.0
 20
80.0
 30
0.0
 11
112.0
 21
80.0
 31
0.0
  0
LINE
  5
3BC
330
336
100
AcDbEntity
  8
TABLE_GRID
 62
5
100
AcDbLine
 10
112.0
 20
80.0
 30
0.0
 11
126.0
 21
80.0
 31
0.0
  0
LINE
  5
3BD
330
336
100
AcDbEntity
  8
TABLE_GRID
 62
5
100
AcDbLine
 10
126.0
 20
80.0
 30
0.0
 11
148.0
 21
80.0
 31
0.0
  0
LINE
  5
3BE
330
336
100
AcDbEntity
  8
TABLE_GRID
 62
5
100
AcDbLine
 10
148.0
 20
80.0
 30
0.0
 11
168.0
 21
80.0
 31
0.0
  0
LINE
  5
3BF
330
336
100
AcDbEntity
  8
TABLE_GRID
 62
5
100
AcDbLine
 10
0.0
 20
76.0
 30
0.0
 11
12.0
 21
76.0
 31
0.0
  0
LINE
  5
3C0
330
336
100
AcDbEntity
  8
TABLE_GRID
 62
5
100
AcDbLine
 10
12.0
 20
76.0
 30
0.0
 11
112.0
 21
76.0
 31
0.0
  0
LINE
  5
3C1
330
336
100
AcDbEntity
  8
TABLE_GRID
 62
5
100
AcDbLine
 10
112.0
 20
76.0
 30
0.0
 11
126.0
 21
76.0
 31
0.0
  0
LINE
  5
3C2
330
336
100
AcDbEntity
  8
TABLE_GRID
 62
5
100
AcDbLine
 10
126.0
 20
76.0
 30
0.0
 11
148.0
 21
76.0
 31
0.0
  0
LINE
  5
3C3
330
336
100
AcDbEntity
  8
TABLE_GRID
 62
5
100
AcDbLine
 10
148.0
 20
76.0
 30
0.0
 11
168.0
 21
76.0
 31
0.0
  0
LINE
  5
3C4
330
336
100
AcDbEntity
  8
TABLE_GRID
 62
5
100
AcDbLine
 10
0.0
 20
72.0
 30
0.0
 11
12.0
 21
72.0
 31
0.0
  0
LINE
  5
3C5
330
336
100
AcDbEntity
  8
TABLE_GRID
 62
5
100
AcDbLine
 10
12.0
 20
72.0
 30
0.0
 11
112.0
 21
72.0
 31
0.0
  0
LINE
  5
3C6
330
336
100
AcDbEntity
  8
TABLE_GRID
 62
5
100
AcDbLine
 10
112.0
 20
72.0
 30
0.0
 11
126.0
 21
72.0
 31
0.0
  0
LINE
  5
3C7
330
336
100
AcDbEntity
  8
TABLE_GRID
 62
5
100
AcDbLine
 10
126.0
 20
72.0
 30
0.0
 11
148.0
 21
72.0
 31
0.0
  0
LINE
  5
3C8
330
336
100
AcDbEntity
  8
TABLE_GRID
 62
5
100
AcDbLine
 10
148.0
 20
72.0
 30
0.0
 11
168.0
 21
72.0
 31
0.0
  0
LINE
  5
3C9
330
336
100
AcDbEntity
  8
TABLE_GRID
 62
5
100
AcDbLine
 10
0.0
 20
68.0
 30
0.0
 11
12.0
 21
68.0
 31
0.0
  0
LINE
  5
3CA
330
336
100
AcDbEntity
  8
TABLE_GRID
 62
5
100
AcDbLine
 10
12.0
 20
68.0
 30
0.0
 11
112.0
 21
68.0
 31
0.0
  0
LINE
  5
3CB
330
336
100
AcDbEntity
  8
TABLE_GRID
 62
5
100
AcDbLine
 10
112.0
 20
68.0
 30
0.0
 11
126.0
 21
68.0
 31
0.0
  0
LINE
  5
3CC
330
336
100
AcDbEntity
  8
TABLE_GRID
 62
5
100
AcDbLine
 10
126.0
 20
68.0
 30
0.0
 11
148.0
 21
68.0
 31
0.0
  0
LINE
  5
3CD
330
336
100
AcDbEntity
  8
TABLE_GRID
 62
5
100
AcDbLine
 10
148.0
 20
68.0
 30
0.0
 11
168.0
 21
68.0
 31
0.0
  0
LINE
  5
3CE
330
336
100
AcDbEntity
  8
TABLE_GRID
 62
5
100
AcDbLine
 10
0.0
 20
64.0
 30
0.0
 11
12.0
 21
64.0
 31
0.0
  0
LINE
  5
3CF
330
336
100
AcDbEntity
  8
TABLE_GRID
 62
5
100
AcDbLine
 10
12.0
 20
64.0
 30
0.0
 11
112.0
 21
64.0
 31
0.0
  0
LINE
  5
3D0
330
336
100
AcDbEntity
  8
TABLE_GRID
 62
5
100
AcDbLine
 10
112.0
 20
64.0
 30
0.0
 11
126.0
 21
64.0
 31
0.0
  0
LINE
  5
3D1
330
336
100
AcDbEntity
  8
TABLE_GRID
 62
5
100
AcDbLine
 10
126.0
 20
64.0
 30
0.0
 11
148.0
 21
64.0
 31
0.0
  0
LINE
  5
3D2
330
336
100
AcDbEntity
  8
TABLE_GRID
 62
5
100
AcDbLine
 10
148.0
 20
64.0
 30
0.0
 11
168.0
 21
64.0
 31
0.0
  0
LINE
  5
3D3
330
336
100
AcDbEntity
  8
TABLE_GRID
 62
5
100
AcDbLine
 10
0.0
 20
60.0
 30
0.0
 11
12.0
 21
60.0
 31
0.0
  0
LINE
  5
3D4
330
336
100
AcDbEntity
  8
TABLE_GRID
 62
5
100
AcDbLine
 10
12.0
 20
60.0
 30
0.0
 11
112.0
 21
60.0
 31
0.0
  0
LINE
  5
3D5
330
336
100
AcDbEntity
  8
TABLE_GRID
 62
5
100
AcDbLine
 10
112.0
 20
60.0
 30
0.0
 11
126.0
 21
60.0
 31
0.0
  0
LINE
  5
3D6
330
336
100
AcDbEntity
  8
TABLE_GRID
 62
5
100
AcDbLine
 10
126.0
 20
60.0
 30
0.0
 11
148.0
 21
60.0
 31
0.0
  0
LINE
  5
3D7
330
336
100
AcDbEntity
  8
TABLE_GRID
 62
5
100
AcDbLine
 10
148.0
 20
60.0
 30
0.0
 11
168.0
 21
60.0
 31
0.0
  0
LINE
  5
3D8
330
336
100
AcDbEntity
  8
TABLE_GRID
 62
5
100
AcDbLine
 10
0.0
 20
56.0
 30
0.0
 11
12.0
 21
56.0
 31
0.0
  0
LINE
  5
3D9
330
336
100
AcDbEntity
  8
TABLE_GRID
 62
5
100
AcDbLine
 10
12.0
 20
56.0
 30
0.0
 11
112.0
 21
56.0
 31
0.0
  0
LINE
  5
3DA
330
336
100
AcDbEntity
  8
TABLE_GRID
 62
5
100
AcDbLine
 10
112.0
 20
56.0
 30
0.0
 11
126.0
 21
56.0
 31
0.0
  0
LINE
  5
3DB
330
336
100
AcDbEntity
  8
TABLE_GRID
 62
5
100
AcDbLine
 10
126.0
 20
56.0
 30
0.0
 11
148.0
 21
56.0
 31
0.0
  0
LINE
  5
3DC
330
336
100
AcDbEntity
  8
TABLE_GRID
 62
5
100
AcDbLine
 10
148.0
 20
56.0
 30
0.0
 11
168.0
 21
56.0
 31
0.0
  0
LINE
  5
3DD
330
336
100
AcDbEntity
  8
TABLE_GRID
 62
5
100
AcDbLine
 10
0.0
 20
52.0
 30
0.0
 11
12.0
 21
52.0
 31
0.0
  0
LINE
  5
3DE
330
336
100
AcDbEntity
  8
TABLE_GRID
 62
5
100
AcDbLine
 10
12.0
 20
52.0
 30
0.0
 11
112.0
 21
52.0
 31
0.0
  0
LINE
  5
3DF
330
336
100
AcDbEntity
  8
TABLE_GRID
 62
5
100
AcDbLine
 10
112.0
 20
52.0
 30
0.0
 11
126.0
 21
52.0
 31
0.0
  0
LINE
  5
3E0
330
336
100
AcDbEntity
  8
TABLE_GRID
 62
5
100
AcDbLine
 10
126.0
 20
52.0
 30
0.0
 11
148.0
 21
52.0
 31
0.0
  0
LINE
  5
3E1
330
336
100
AcDbEntity
  8
TABLE_GRID
 62
5
100
AcDbLine
 10
148.0
 20
52.0
 30
0.0
 11
168.0
 21
52.0
 31
0.0
  0
LINE
  5
3E2
330
336
100
AcDbEntity
  8
TABLE_GRID
 62
5
100
AcDbLine
 10
0.0
 20
48.0
 30
0.0
 11
12.0
 21
48.0
 31
0.0
  0
LINE
  5
3E3
330
336
100
AcDbEntity
  8
TABLE_GRID
 62
5
100
AcDbLine
 10
12.0
 20
48.0
 30
0.0
 11
112.0
 21
48.0
 31
0.0
  0
LINE
  5
3E4
330
336
100
AcDbEntity
  8
TABLE_GRID
 62
5
100
AcDbLine
 10
112.0
 20
48.0
 30
0.0
 11
126.0
 21
48.0
 31
0.0
  0
LINE
  5
3E5
330
336
100
AcDbEntity
  8
TABLE_GRID
 62
5
100
AcDbLine
 10
126.0
 20
48.0
 30
0.0
 11
148.0
 21
48.0
 31
0.0
  0
LINE
  5
3E6
330
336
100
AcDbEntity
  8
TABLE_GRID
 62
5
100
AcDbLine
 10
148.0
 20
48.0
 30
0.0
 11
168.0
 21
48.0
 31
0.0
  0
LINE
  5
3E7
330
336
100
AcDbEntity
  8
TABLE_GRID
 62
5
100
AcDbLine
 10
0.0
 20
44.0
 30
0.0
 11
12.0
 21
44.0
 31
0.0
  0
LINE
  5
3E8
330
336
100
AcDbEntity
  8
TABLE_GRID
 62
5
100
AcDbLine
 10
12.0
 20
44.0
 30
0.0
 11
112.0
 21
44.0
 31
0.0
  0
LINE
  5
3E9
330
336
100
AcDbEntity
  8
TABLE_GRID
 62
5
100
AcDbLine
 10
112.0
 20
44.0
 30
0.0
 11
126.0
 21
44.0
 31
0.0
  0
LINE
  5
3EA
330
336
100
AcDbEntity
  8
TABLE_GRID
 62
5
100
AcDbLine
 10
126.0
 20
44.0
 30
0.0
 11
148.0
 21
44.0
 31
0.0
  0
LINE
  5
3EB
330
336
100
AcDbEntity
  8
TABLE_GRID
 62
5
100
AcDbLine
 10
148.0
 20
44.0
 30
0.0
 11
168.0
 21
44.0
 31
0.0
  0
LINE
  5
3EC
330
336
100
AcDbEntity
  8
TABLE_GRID
 62
5
100
AcDbLine
 10
0.0
 20
40.0
 30
0.0
 11
12.0
 21
40.0
 31
0.0
  0
LINE
  5
3ED
330
336
100
AcDbEntity
  8
TABLE_GRID
 62
5
100
AcDbLine
 10
12.0
 20
40.0
 30
0.0
 11
112.0
 21
40.0
 31
0.0
  0
LINE
  5
3EE
330
336
100
AcDbEntity
  8
TABLE_GRID
 62
5
100
AcDbLine
 10
112.0
 20
40.0
 30
0.0
 11
126.0
 21
40.0
 31
0.0
  0
LINE
  5
3EF
330
336
100
AcDbEntity
  8
TABLE_GRID
 62
5
100
AcDbLine
 10
126.0
 20
40.0
 30
0.0
 11
148.0
 21
40.0
 31
0.0
  0
LINE
  5
3F0
330
336
100
AcDbEntity
  8
TABLE_GRID
 62
5
100
AcDbLine
 10
148.0
 20
40.0
 30
0.0
 11
168.0
 21
40.0
 31
0.0
  0
LINE
  5
3F1
330
336
100
AcDbEntity
  8
TABLE_GRID
 62
5
100
AcDbLine
 10
0.0
 20
36.0
 30
0.0
 11
12.0
 21
36.0
 31
0.0
  0
LINE
  5
3F2
330
336
100
AcDbEntity
  8
TABLE_GRID
 62
5
100
AcDbLine
 10
12.0
 20
36.0
 30
0.0
 11
112.0
 21
36.0
 31
0.0
  0
LINE
  5
3F3
330
336
100
AcDbEntity
  8
TABLE_GRID
 62
5
100
AcDbLine
 10
112.0
 20
36.0
 30
0.0
 11
126.0
 21
36.0
 31
0.0
  0
LINE
  5
3F4
330
336
100
AcDbEntity
  8
TABLE_GRID
 62
5
100
AcDbLine
 10
126.0
 20
36.0
 30
0.0
 11
148.0
 21
36.0
 31
0.0
  0
LINE
  5
3F5
330
336
100
AcDbEntity
  8
TABLE_GRID
 62
5
100
AcDbLine
 10
148.0
 20
36.0
 30
0.0
 11
168.0
 21
36.0
 31
0.0
  0
LINE
  5
3F6
330
336
100
AcDbEntity
  8
TABLE_GRID
 62
5
100
AcDbLine
 10
0.0
 20
32.0
 30
0.0
 11
12.0
 21
32.0
 31
0.0
  0
LINE
  5
3F7
330
336
100
AcDbEntity
  8
TABLE_GRID
 62
5
100
AcDbLine
 10
12.0
 20
32.0
 30
0.0
 11
112.0
 21
32.0
 31
0.0
  0
LINE
  5
3F8
330
336
100
AcDbEntity
  8
TABLE_GRID
 62
5
100
AcDbLine
 10
112.0
 20
32.0
 30
0.0
 11
126.0
 21
32.0
 31
0.0
  0
LINE
  5
3F9
330
336
100
AcDbEntity
  8
TABLE_GRID
 62
5
100
AcDbLine
 10
126.0
 20
32.0
 30
0.0
 11
148.0
 21
32.0
 31
0.0
  0
LINE
  5
3FA
330
336
100
AcDbEntity
  8
TABLE_GRID
 62
5
100
AcDbLine
 10
148.0
 20
32.0
 30
0.0
 11
168.0
 21
32.0
 31
0.0
  0
LINE
  5
3FB
330
336
100
AcDbEntity
  8
TABLE_GRID
 62
5
100
AcDbLine
 10
0.0
 20
28.0
 30
0.0
 11
12.0
 21
28.0
 31
0.0
  0
LINE
  5
3FC
330
336
100
AcDbEntity
  8
TABLE_GRID
 62
5
100
AcDbLine
 10
12.0
 20
28.0
 30
0.0
 11
112.0
 21
28.0
 31
0.0
  0
LINE
  5
3FD
330
336
100
AcDbEntity
  8
TABLE_GRID
 62
5
100
AcDbLine
 10
112.0
 20
28.0
 30
0.0
 11
126.0
 21
28.0
 31
0.0
  0
LINE
  5
3FE
330
336
100
AcDbEntity
  8
TABLE_GRID
 62
5
100
AcDbLine
 10
126.0
 20
28.0
 30
0.0
 11
148.0
 21
28.0
 31
0.0
  0
LINE
  5
3FF
330
336
100
AcDbEntity
  8
TABLE_GRID
 62
5
100
AcDbLine
 10
148.0
 20
28.0
 30
0.0
 11
168.0
 21
28.0
 31
0.0
  0
LINE
  5
400
330
336
100
AcDbEntity
  8
TABLE_GRID
 62
5
100
AcDbLine
 10
0.0
 20
24.0
 30
0.0
 11
12.0
 21
24.0
 31
0.0
  0
LINE
  5
401
330
336
100
AcDbEntity
  8
TABLE_GRID
 62
5
100
AcDbLine
 10
12.0
 20
24.0
 30
0.0
 11
112.0
 21
24.0
 31
0.0
  0
LINE
  5
402
330
336
100
AcDbEntity
  8
TABLE_GRID
 62
5
100
AcDbLine
 10
112.0
 20
24.0
 30
0.0
 11
126.0
 21
24.0
 31
0.0
  0
LINE
  5
403
330
336
100
AcDbEntity
  8
TABLE_GRID
 62
5
100
AcDbLine
 10
126.0
 20
24.0
 30
0.0
 11
148.0
 21
24.0
 31
0.0
  0
LINE
  5
404
330
336
100
AcDbEntity
  8
TABLE_GRID
 62
5
100
AcDbLine
 10
148.0
 20
24.0
 30
0.0
 11
168.0
 21
24.0
 31
0.0
  0
LINE
  5
405
330
336
100
AcDbEntity
  8
TABLE_GRID
 62
5
100
AcDbLine
 10
0.0
 20
20.0
 30
0.0
 11
12.0
 21
20.0
 31
0.0
  0
LINE
  5
406
330
336
100
AcDbEntity
  8
TABLE_GRID
 62
5
100
AcDbLine
 10
12.0
 20
20.0
 30
0.0
 11
112.0
 21
20.0
 31
0.0
  0
LINE
  5
407
330
336
100
AcDbEntity
  8
TABLE_GRID
 62
5
100
AcDbLine
 10
112.0
 20
20.0
 30
0.0
 11
126.0
 21
20.0
 31
0.0
  0
LINE
  5
408
330
336
100
AcDbEntity
  8
TABLE_GRID
 62
5
100
AcDbLine
 10
126.0
 20
20.0
 30
0.0
 11
148.0
 21
20.0
 31
0.0
  0
LINE
  5
409
330
336
100
AcDbEntity
  8
TABLE_GRID
 62
5
100
AcDbLine
 10
148.0
 20
20.0
 30
0.0
 11
168.0
 21
20.0
 31
0.0
  0
LINE
  5
40A
330
336
100
AcDbEntity
  8
TABLE_GRID
 62
5
100
AcDbLine
 10
0.0
 20
16.0
 30
0.0
 11
12.0
 21
16.0
 31
0.0
  0
LINE
  5
40B
330
336
100
AcDbEntity
  8
TABLE_GRID
 62
5
100
AcDbLine
 10
12.0
 20
16.0
 30
0.0
 11
112.0
 21
16.0
 31
0.0
  0
LINE
  5
40C
330
336
100
AcDbEntity
  8
TABLE_GRID
 62
5
100
AcDbLine
 10
112.0
 20
16.0
 30
0.0
 11
126.0
 21
16.0
 31
0.0
  0
LINE
  5
40D
330
336
100
AcDbEntity
  8
TABLE_GRID
 62
5
100
AcDbLine
 10
126.0
 20
16.0
 30
0.0
 11
148.0
 21
16.0
 31
0.0
  0
LINE
  5
40E
330
336
100
AcDbEntity
  8
TABLE_GRID
 62
5
100
AcDbLine
 10
148.0
 20
16.0
 30
0.0
 11
168.0
 21
16.0
 31
0.0
  0
LINE
  5
40F
330
336
100
AcDbEntity
  8
TABLE_GRID
 62
5
100
AcDbLine
 10
0.0
 20
12.0
 30
0.0
 11
12.0
 21
12.0
 31
0.0
  0
LINE
  5
410
330
336
100
AcDbEntity
  8
TABLE_GRID
 62
5
100
AcDbLine
 10
12.0
 20
12.0
 30
0.0
 11
112.0
 21
12.0
 31
0.0
  0
LINE
  5
411
330
336
100
AcDbEntity
  8
TABLE_GRID
 62
5
100
AcDbLine
 10
112.0
 20
12.0
 30
0.0
 11
126.0
 21
12.0
 31
0.0
  0
LINE
  5
412
330
336
100
AcDbEntity
  8
TABLE_GRID
 62
5
100
AcDbLine
 10
126.0
 20
12.0
 30
0.0
 11
148.0
 21
12.0
 31
0.0
  0
LINE
  5
413
330
336
100
AcDbEntity
  8
TABLE_GRID
 62
5
100
AcDbLine
 10
148.0
 20
12.0
 30
0.0
 11
168.0
 21
12.0
 31
0.0
  0
LINE
  5
414
330
336
100
AcDbEntity
  8
TABLE_GRID
 62
5
100
AcDbLine
 10
0.0
 20
8.0
 30
0.0
 11
12.0
 21
8.0
 31
0.0
  0
LINE
  5
415
330
336
100
AcDbEntity
  8
TABLE_GRID
 62
5
100
AcDbLine
 10
12.0
 20
8.0
 30
0.0
 11
112.0
 21
8.0
 31
0.0
  0
LINE
  5
416
330
336
100
AcDbEntity
  8
TABLE_GRID
 62
5
100
AcDbLine
 10
112.0
 20
8.0
 30
0.0
 11
126.0
 21
8.0
 31
0.0
  0
LINE
  5
417
330
336
100
AcDbEntity
  8
TABLE_GRID
 62
5
100
AcDbLine
 10
126.0
 20
8.0
 30
0.0
 11
148.0
 21
8.0
 31
0.0
  0
LINE
  5
418
330
336
100
AcDbEntity
  8
TABLE_GRID
 62
5
100
AcDbLine
 10
148.0
 20
8.0
 30
0.0
 11
168.0
 21
8.0
 31
0.0
  0
LINE
  5
419
330
336
100
AcDbEntity
  8
TABLE_GRID
 62
5
100
AcDbLine
 10
0.0
 20
4.0
 30
0.0
 11
12.0
 21
4.0
 31
0.0
  0
LINE
  5
41A
330
336
100
AcDbEntity
  8
TABLE_GRID
 62
5
100
AcDbLine
 10
12.0
 20
4.0
 30
0.0
 11
112.0
 21
4.0
 31
0.0
  0
LINE
  5
41B
330
336
100
AcDbEntity
  8
TABLE_GRID
 62
5
100
AcDbLine
 10
112.0
 20
4.0
 30
0.0
 11
126.0
 21
4.0
 31
0.0
  0
LINE
  5
41C
330
336
100
AcDbEntity
  8
TABLE_GRID
 62
5
100
AcDbLine
 10
126.0
 20
4.0
 30
0.0
 11
148.0
 21
4.0
 31
0.0
  0
LINE
  5
41D
330
336
100
AcDbEntity
  8
TABLE_GRID
 62
5
100
AcDbLine
 10
148.0
 20
4.0
 30
0.0
 11
168.0
 21
4.0
 31
0.0
  0
LINE
  5
41E
330
336
100
AcDbEntity
  8
TABLE_GRID
 62
5
100
AcDbLine
 10
0.0
 20
0.0
 30
0.0
 11
12.0
 21
0.0
 31
0.0
  0
LINE
  5
41F
330
336
100
AcDbEntity
  8
TABLE_GRID
 62
5
100
AcDbLine
 10
12.0
 20
0.0
 30
0.0
 11
112.0
 21
0.0
 31
0.0
  0
LINE
  5
420
330
336
100
AcDbEntity
  8
TABLE_GRID
 62
5
100
AcDbLine
 10
112.0
 20
0.0
 30
0.0
 11
126.0
 21
0.0
 31
0.0
  0
LINE
  5
421
330
336
100
AcDbEntity
  8
TABLE_GRID
 62
5
100
AcDbLine
 10
126.0
 20
0.0
 30
0.0
 11
148.0
 21
0.0
 31
0.0
  0
LINE
  5
422
330
336
100
AcDbEntity
  8
TABLE_GRID
 62
5
100
AcDbLine
 10
148.0
 20
0.0
 30
0.0
 11
168.0
 21
0.0
 31
0.0
  0
LINE
  5
423
330
336
100
AcDbEntity
  8
TABLE_GRID
 62
5
100
AcDbLine
 10
0.0
 20
96.0
 30
0.0
 11
0.0
 21
92.0
 31
0.0
  0
LINE
  5
424
330
336
100
AcDbEntity
  8
TABLE_GRID
 62
5
100
AcDbLine
 10
0.0
 20
92.0
 30
0.0
 11
0.0
 21
88.0
 31
0.0
  0
LINE
  5
425
330
336
100
AcDbEntity
  8
TABLE_GRID
 62
5
100
AcDbLine
 10
0.0
 20
88.0
 30
0.0
 11
0.0
 21
84.0
 31
0.0
  0
LINE
  5
426
330
336
100
AcDbEntity
  8
TABLE_GRID
 62
5
100
AcDbLine
 10
0.0
 20
84.0
 30
0.0
 11
0.0
 21
80.0
 31
0.0
  0
LINE
  5
427
330
336
100
AcDbEntity
  8
TABLE_GRID
 62
5
100
AcDbLine
 10
0.0
 20
80.0
 30
0.0
 11
0.0
 21
76.0
 31
0.0
  0
LINE
  5
428
330
336
100
AcDbEntity
  8
TABLE_GRID
 62
5
100
AcDbLine
 10
0.0
 20
76.0
 30
0.0
 11
0.0
 21
72.0
 31
0.0
  0
LINE
  5
429
330
336
100
AcDbEntity
  8
TABLE_GRID
 62
5
100
AcDbLine
 10
0.0
 20
72.0
 30
0.0
 11
0.0
 21
68.0
 31
0.0
  0
LINE
  5
42A
330
336
100
AcDbEntity
  8
TABLE_GRID
 62
5
100
AcDbLine
 10
0.0
 20
68.0
 30
0.0
 11
0.0
 21
64.0
 31
0.0
  0
LINE
  5
42B
330
336
100
AcDbEntity
  8
TABLE_GRID
 62
5
100
AcDbLine
 10
0.0
 20
64.0
 30
0.0
 11
0.0
 21
60.0
 31
0.0
  0
LINE
  5
42C
330
336
100
AcDbEntity
  8
TABLE_GRID
 62
5
100
AcDbLine
 10
0.0
 20
60.0
 30
0.0
 11
0.0
 21
56.0
 31
0.0
  0
LINE
  5
42D
330
336
100
AcDbEntity
  8
TABLE_GRID
 62
5
100
AcDbLine
 10
0.0
 20
56.0
 30
0.0
 11
0.0
 21
52.0
 31
0.0
  0
LINE
  5
42E
330
336
100
AcDbEntity
  8
TABLE_GRID
 62
5
100
AcDbLine
 10
0.0
 20
52.0
 30
0.0
 11
0.0
 21
48.0
 31
0.0
  0
LINE
  5
42F
330
336
100
AcDbEntity
  8
TABLE_GRID
 62
5
100
AcDbLine
 10
0.0
 20
48.0
 30
0.0
 11
0.0
 21
44.0
 31
0.0
  0
LINE
  5
430
330
336
100
AcDbEntity
  8
TABLE_GRID
 62
5
100
AcDbLine
 10
0.0
 20
44.0
 30
0.0
 11
0.0
 21
40.0
 31
0.0
  0
LINE
  5
431
330
336
100
AcDbEntity
  8
TABLE_GRID
 62
5
100
AcDbLine
 10
0.0
 20
40.0
 30
0.0
 11
0.0
 21
36.0
 31
0.0
  0
LINE
  5
432
330
336
100
AcDbEntity
  8
TABLE_GRID
 62
5
100
AcDbLine
 10
0.0
 20
36.0
 30
0.0
 11
0.0
 21
32.0
 31
0.0
  0
LINE
  5
433
330
336
100
AcDbEntity
  8
TABLE_GRID
 62
5
100
AcDbLine
 10
0.0
 20
32.0
 30
0.0
 11
0.0
 21
28.0
 31
0.0
  0
LINE
  5
434
330
336
100
AcDbEntity
  8
TABLE_GRID
 62
5
100
AcDbLine
 10
0.0
 20
28.0
 30
0.0
 11
0.0
 21
24.0
 31
0.0
  0
LINE
  5
435
330
336
100
AcDbEntity
  8
TABLE_GRID
 62
5
100
AcDbLine
 10
0.0
 20
24.0
 30
0.0
 11
0.0
 21
20.0
 31
0.0
  0
LINE
  5
436
330
336
100
AcDbEntity
  8
TABLE_GRID
 62
5
100
AcDbLine
 10
0.0
 20
20.0
 30
0.0
 11
0.0
 21
16.0
 31
0.0
  0
LINE
  5
437
330
336
100
AcDbEntity
  8
TABLE_GRID
 62
5
100
AcDbLine
 10
0.0
 20
16.0
 30
0.0
 11
0.0
 21
12.0
 31
0.0
  0
LINE
  5
438
330
336
100
AcDbEntity
  8
TABLE_GRID
 62
5
100
AcDbLine
 10
0.0
 20
12.0
 30
0.0
 11
0.0
 21
8.0
 31
0.0
  0
LINE
  5
439
330
336
100
AcDbEntity
  8
TABLE_GRID
 62
5
100
AcDbLine
 10
0.0
 20
8.0
 30
0.0
 11
0.0
 21
4.0
 31
0.0
  0
LINE
  5
43A
330
336
100
AcDbEntity
  8
TABLE_GRID
 62
5
100
AcDbLine
 10
0.0
 20
4.0
 30
0.0
 11
0.0
 21
0.0
 31
0.0
  0
LINE
  5
43B
330
336
100
AcDbEntity
  8
TABLE_GRID
 62
5
100
AcDbLine
 10
12.0
 20
96.0
 30
0.0
 11
12.0
 21
92.0
 31
0.0
  0
LINE
  5
43C
330
336
100
AcDbEntity
  8
TABLE_GRID
 62
5
100
AcDbLine
 10
12.0
 20
92.0
 30
0.0
 11
12.0
 21
88.0
 31
0.0
  0
LINE
  5
43D
330
336
100
AcDbEntity
  8
TABLE_GRID
 62
5
100
AcDbLine
 10
12.0
 20
88.0
 30
0.0
 11
12.0
 21
84.0
 31
0.0
  0
LINE
  5
43E
330
336
100
AcDbEntity
  8
TABLE_GRID
 62
5
100
AcDbLine
 10
12.0
 20
84.0
 30
0.0
 11
12.0
 21
80.0
 31
0.0
  0
LINE
  5
43F
330
336
100
AcDbEntity
  8
TABLE_GRID
 62
5
100
AcDbLine
 10
12.0
 20
80.0
 30
0.0
 11
12.0
 21
76.0
 31
0.0
  0
LINE
  5
440
330
336
100
AcDbEntity
  8
TABLE_GRID
 62
5
100
AcDbLine
 10
12.0
 20
76.0
 30
0.0
 11
12.0
 21
72.0
 31
0.0
  0
LINE
  5
441
330
336
100
AcDbEntity
  8
TABLE_GRID
 62
5
100
AcDbLine
 10
12.0
 20
72.0
 30
0.0
 11
12.0
 21
68.0
 31
0.0
  0
LINE
  5
442
330
336
100
AcDbEntity
  8
TABLE_GRID
 62
5
100
AcDbLine
 10
12.0
 20
68.0
 30
0.0
 11
12.0
 21
64.0
 31
0.0
  0
LINE
  5
443
330
336
100
AcDbEntity
  8
TABLE_GRID
 62
5
100
AcDbLine
 10
12.0
 20
64.0
 30
0.0
 11
12.0
 21
60.0
 31
0.0
  0
LINE
  5
444
330
336
100
AcDbEntity
  8
TABLE_GRID
 62
5
100
AcDbLine
 10
12.0
 20
60.0
 30
0.0
 11
12.0
 21
56.0
 31
0.0
  0
LINE
  5
445
330
336
100
AcDbEntity
  8
TABLE_GRID
 62
5
100
AcDbLine
 10
12.0
 20
56.0
 30
0.0
 11
12.0
 21
52.0
 31
0.0
  0
LINE
  5
446
330
336
100
AcDbEntity
  8
TABLE_GRID
 62
5
100
AcDbLine
 10
12.0
 20
52.0
 30
0.0
 11
12.0
 21
48.0
 31
0.0
  0
LINE
  5
447
330
336
100
AcDbEntity
  8
TABLE_GRID
 62
5
100
AcDbLine
 10
12.0
 20
48.0
 30
0.0
 11
12.0
 21
44.0
 31
0.0
  0
LINE
  5
448
330
336
100
AcDbEntity
  8
TABLE_GRID
 62
5
100
AcDbLine
 10
12.0
 20
44.0
 30
0.0
 11
12.0
 21
40.0
 31
0.0
  0
LINE
  5
449
330
336
100
AcDbEntity
  8
TABLE_GRID
 62
5
100
AcDbLine
 10
12.0
 20
40.0
 30
0.0
 11
12.0
 21
36.0
 31
0.0
  0
LINE
  5
44A
330
336
100
AcDbEntity
  8
TABLE_GRID
 62
5
100
AcDbLine
 10
12.0
 20
36.0
 30
0.0
 11
12.0
 21
32.0
 31
0.0
  0
LINE
  5
44B
330
336
100
AcDbEntity
  8
TABLE_GRID
 62
5
100
AcDbLine
 10
12.0
 20
32.0
 30
0.0
 11
12.0
 21
28.0
 31
0.0
  0
LINE
  5
44C
330
336
100
AcDbEntity
  8
TABLE_GRID
 62
5
100
AcDbLine
 10
12.0
 20
28.0
 30
0.0
 11
12.0
 21
24.0
 31
0.0
  0
LINE
  5
44D
330
336
100
AcDbEntity
  8
TABLE_GRID
 62
5
100
AcDbLine
 10
12.0
 20
24.0
 30
0.0
 11
12.0
 21
20.0
 31
0.0
  0
LINE
  5
44E
330
336
100
AcDbEntity
  8
TABLE_GRID
 62
5
100
AcDbLine
 10
12.0
 20
20.0
 30
0.0
 11
12.0
 21
16.0
 31
0.0
  0
LINE
  5
44F
330
336
100
AcDbEntity
  8
TABLE_GRID
 62
5
100
AcDbLine
 10
12.0
 20
16.0
 30
0.0
 11
12.0
 21
12.0
 31
0.0
  0
LINE
  5
450
330
336
100
AcDbEntity
  8
TABLE_GRID
 62
5
100
AcDbLine
 10
12.0
 20
12.0
 30
0.0
 11
12.0
 21
8.0
 31
0.0
  0
LINE
  5
451
330
336
100
AcDbEntity
  8
TABLE_GRID
 62
5
100
AcDbLine
 10
12.0
 20
8.0
 30
0.0
 11
12.0
 21
4.0
 31
0.0
  0
LINE
  5
452
330
336
100
AcDbEntity
  8
TABLE_GRID
 62
5
100
AcDbLine
 10
12.0
 20
4.0
 30
0.0
 11
12.0
 21
0.0
 31
0.0
  0
LINE
  5
453
330
336
100
AcDbEntity
  8
TABLE_GRID
 62
5
100
AcDbLine
 10
112.0
 20
96.0
 30
0.0
 11
112.0
 21
92.0
 31
0.0
  0
LINE
  5
454
330
336
100
AcDbEntity
  8
TABLE_GRID
 62
5
100
AcDbLine
 10
112.0
 20
92.0
 30
0.0
 11
112.0
 21
88.0
 31
0.0
  0
LINE
  5
455
330
336
100
AcDbEntity
  8
TABLE_GRID
 62
5
100
AcDbLine
 10
112.0
 20
88.0
 30
0.0
 11
112.0
 21
84.0
 31
0.0
  0
LINE
  5
456
330
336
100
AcDbEntity
  8
TABLE_GRID
 62
5
100
AcDbLine
 10
112.0
 20
84.0
 30
0.0
 11
112.0
 21
80.0
 31
0.0
  0
LINE
  5
457
330
336
100
AcDbEntity
  8
TABLE_GRID
 62
5
100
AcDbLine
 10
112.0
 20
80.0
 30
0.0
 11
112.0
 21
76.0
 31
0.0
  0
LINE
  5
458
330
336
100
AcDbEntity
  8
TABLE_GRID
 62
5
100
AcDbLine
 10
112.0
 20
76.0
 30
0.0
 11
112.0
 21
72.0
 31
0.0
  0
LINE
  5
459
330
336
100
AcDbEntity
  8
TABLE_GRID
 62
5
100
AcDbLine
 10
112.0
 20
72.0
 30
0.0
 11
112.0
 21
68.0
 31
0.0
  0
LINE
  5
45A
330
336
100
AcDbEntity
  8
TABLE_GRID
 62
5
100
AcDbLine
 10
112.0
 20
68.0
 30
0.0
 11
112.0
 21
64.0
 31
0.0
  0
LINE
  5
45B
330
336
100
AcDbEntity
  8
TABLE_GRID
 62
5
100
AcDbLine
 10
112.0
 20
64.0
 30
0.0
 11
112.0
 21
60.0
 31
0.0
  0
LINE
  5
45C
330
336
100
AcDbEntity
  8
TABLE_GRID
 62
5
100
AcDbLine
 10
112.0
 20
60.0
 30
0.0
 11
112.0
 21
56.0
 31
0.0
  0
LINE
  5
45D
330
336
100
AcDbEntity
  8
TABLE_GRID
 62
5
100
AcDbLine
 10
112.0
 20
56.0
 30
0.0
 11
112.0
 21
52.0
 31
0.0
  0
LINE
  5
45E
330
336
100
AcDbEntity
  8
TABLE_GRID
 62
5
100
AcDbLine
 10
112.0
 20
52.0
 30
0.0
 11
112.0
 21
48.0
 31
0.0
  0
LINE
  5
45F
330
336
100
AcDbEntity
  8
TABLE_GRID
 62
5
100
AcDbLine
 10
112.0
 20
48.0
 30
0.0
 11
112.0
 21
44.0
 31
0.0
  0
LINE
  5
460
330
336
100
AcDbEntity
  8
TABLE_GRID
 62
5
100
AcDbLine
 10
112.0
 20
44.0
 30
0.0
 11
112.0
 21
40.0
 31
0.0
  0
LINE
  5
461
330
336
100
AcDbEntity
  8
TABLE_GRID
 62
5
100
AcDbLine
 10
112.0
 20
40.0
 30
0.0
 11
112.0
 21
36.0
 31
0.0
  0
LINE
  5
462
330
336
100
AcDbEntity
  8
TABLE_GRID
 62
5
100
AcDbLine
 10
112.0
 20
36.0
 30
0.0
 11
112.0
 21
32.0
 31
0.0
  0
LINE
  5
463
330
336
100
AcDbEntity
  8
TABLE_GRID
 62
5
100
AcDbLine
 10
112.0
 20
32.0
 30
0.0
 11
112.0
 21
28.0
 31
0.0
  0
LINE
  5
464
330
336
100
AcDbEntity
  8
TABLE_GRID
 62
5
100
AcDbLine
 10
112.0
 20
28.0
 30
0.0
 11
112.0
 21
24.0
 31
0.0
  0
LINE
  5
465
330
336
100
AcDbEntity
  8
TABLE_GRID
 62
5
100
AcDbLine
 10
112.0
 20
24.0
 30
0.0
 11
112.0
 21
20.0
 31
0.0
  0
LINE
  5
466
330
336
100
AcDbEntity
  8
TABLE_GRID
 62
5
100
AcDbLine
 10
112.0
 20
20.0
 30
0.0
 11
112.0
 21
16.0
 31
0.0
  0
LINE
  5
467
330
336
100
AcDbEntity
  8
TABLE_GRID
 62
5
100
AcDbLine
 10
112.0
 20
16.0
 30
0.0
 11
112.0
 21
12.0
 31
0.0
  0
LINE
  5
468
330
336
100
AcDbEntity
  8
TABLE_GRID
 62
5
100
AcDbLine
 10
112.0
 20
12.0
 30
0.0
 11
112.0
 21
8.0
 31
0.0
  0
LINE
  5
469
330
336
100
AcDbEntity
  8
TABLE_GRID
 62
5
100
AcDbLine
 10
112.0
 20
8.0
 30
0.0
 11
112.0
 21
4.0
 31
0.0
  0
LINE
  5
46A
330
336
100
AcDbEntity
  8
TABLE_GRID
 62
5
100
AcDbLine
 10
112.0
 20
4.0
 30
0.0
 11
112.0
 21
0.0
 31
0.0
  0
LINE
  5
46B
330
336
100
AcDbEntity
  8
TABLE_GRID
 62
5
100
AcDbLine
 10
126.0
 20
96.0
 30
0.0
 11
126.0
 21
92.0
 31
0.0
  0
LINE
  5
46C
330
336
100
AcDbEntity
  8
TABLE_GRID
 62
5
100
AcDbLine
 10
126.0
 20
92.0
 30
0.0
 11
126.0
 21
88.0
 31
0.0
  0
LINE
  5
46D
330
336
100
AcDbEntity
  8
TABLE_GRID
 62
5
100
AcDbLine
 10
126.0
 20
88.0
 30
0.0
 11
126.0
 21
84.0
 31
0.0
  0
LINE
  5
46E
330
336
100
AcDbEntity
  8
TABLE_GRID
 62
5
100
AcDbLine
 10
126.0
 20
84.0
 30
0.0
 11
126.0
 21
80.0
 31
0.0
  0
LINE
  5
46F
330
336
100
AcDbEntity
  8
TABLE_GRID
 62
5
100
AcDbLine
 10
126.0
 20
80.0
 30
0.0
 11
126.0
 21
76.0
 31
0.0
  0
LINE
  5
470
330
336
100
AcDbEntity
  8
TABLE_GRID
 62
5
100
AcDbLine
 10
126.0
 20
76.0
 30
0.0
 11
126.0
 21
72.0
 31
0.0
  0
LINE
  5
471
330
336
100
AcDbEntity
  8
TABLE_GRID
 62
5
100
AcDbLine
 10
126.0
 20
72.0
 30
0.0
 11
126.0
 21
68.0
 31
0.0
  0
LINE
  5
472
330
336
100
AcDbEntity
  8
TABLE_GRID
 62
5
100
AcDbLine
 10
126.0
 20
68.0
 30
0.0
 11
126.0
 21
64.0
 31
0.0
  0
LINE
  5
473
330
336
100
AcDbEntity
  8
TABLE_GRID
 62
5
100
AcDbLine
 10
126.0
 20
64.0
 30
0.0
 11
126.0
 21
60.0
 31
0.0
  0
LINE
  5
474
330
336
100
AcDbEntity
  8
TABLE_GRID
 62
5
100
AcDbLine
 10
126.0
 20
60.0
 30
0.0
 11
126.0
 21
56.0
 31
0.0
  0
LINE
  5
475
330
336
100
AcDbEntity
  8
TABLE_GRID
 62
5
100
AcDbLine
 10
126.0
 20
56.0
 30
0.0
 11
126.0
 21
52.0
 31
0.0
  0
LINE
  5
476
330
336
100
AcDbEntity
  8
TABLE_GRID
 62
5
100
AcDbLine
 10
126.0
 20
52.0
 30
0.0
 11
126.0
 21
48.0
 31
0.0
  0
LINE
  5
477
330
336
100
AcDbEntity
  8
TABLE_GRID
 62
5
100
AcDbLine
 10
126.0
 20
48.0
 30
0.0
 11
126.0
 21
44.0
 31
0.0
  0
LINE
  5
478
330
336
100
AcDbEntity
  8
TABLE_GRID
 62
5
100
AcDbLine
 10
126.0
 20
44.0
 30
0.0
 11
126.0
 21
40.0
 31
0.0
  0
LINE
  5
479
330
336
100
AcDbEntity
  8
TABLE_GRID
 62
5
100
AcDbLine
 10
126.0
 20
40.0
 30
0.0
 11
126.0
 21
36.0
 31
0.0
  0
LINE
  5
47A
330
336
100
AcDbEntity
  8
TABLE_GRID
 62
5
100
AcDbLine
 10
126.0
 20
36.0
 30
0.0
 11
126.0
 21
32.0
 31
0.0
  0
LINE
  5
47B
330
336
100
AcDbEntity
  8
TABLE_GRID
 62
5
100
AcDbLine
 10
126.0
 20
32.0
 30
0.0
 11
126.0
 21
28.0
 31
0.0
  0
LINE
  5
47C
330
336
100
AcDbEntity
  8
TABLE_GRID
 62
5
100
AcDbLine
 10
126.0
 20
28.0
 30
0.0
 11
126.0
 21
24.0
 31
0.0
  0
LINE
  5
47D
330
336
100
AcDbEntity
  8
TABLE_GRID
 62
5
100
AcDbLine
 10
126.0
 20
24.0
 30
0.0
 11
126.0
 21
20.0
 31
0.0
  0
LINE
  5
47E
330
336
100
AcDbEntity
  8
TABLE_GRID
 62
5
100
AcDbLine
 10
126.0
 20
20.0
 30
0.0
 11
126.0
 21
16.0
 31
0.0
  0
LINE
  5
47F
330
336
100
AcDbEntity
  8
TABLE_GRID
 62
5
100
AcDbLine
 10
126.0
 20
16.0
 30
0.0
 11
126.0
 21
12.0
 31
0.0
  0
LINE
  5
480
330
336
100
AcDbEntity
  8
TABLE_GRID
 62
5
100
AcDbLine
 10
126.0
 20
12.0
 30
0.0
 11
126.0
 21
8.0
 31
0.0
  0
LINE
  5
481
330
336
100
AcDbEntity
  8
TABLE_GRID
 62
5
100
AcDbLine
 10
126.0
 20
8.0
 30
0.0
 11
126.0
 21
4.0
 31
0.0
  0
LINE
  5
482
330
336
100
AcDbEntity
  8
TABLE_GRID
 62
5
100
AcDbLine
 10
126.0
 20
4.0
 30
0.0
 11
126.0
 21
0.0
 31
0.0
  0
LINE
  5
483
330
336
100
AcDbEntity
  8
TABLE_GRID
 62
5
100
AcDbLine
 10
148.0
 20
96.0
 30
0.0
 11
148.0
 21
92.0
 31
0.0
  0
LINE
  5
484
330
336
100
AcDbEntity
  8
TABLE_GRID
 62
5
100
AcDbLine
 10
148.0
 20
92.0
 30
0.0
 11
148.0
 21
88.0
 31
0.0
  0
LINE
  5
485
330
336
100
AcDbEntity
  8
TABLE_GRID
 62
5
100
AcDbLine
 10
148.0
 20
88.0
 30
0.0
 11
148.0
 21
84.0
 31
0.0
  0
LINE
  5
486
330
336
100
AcDbEntity
  8
TABLE_GRID
 62
5
100
AcDbLine
 10
148.0
 20
84.0
 30
0.0
 11
148.0
 21
80.0
 31
0.0
  0
LINE
  5
487
330
336
100
AcDbEntity
  8
TABLE_GRID
 62
5
100
AcDbLine
 10
148.0
 20
80.0
 30
0.0
 11
148.0
 21
76.0
 31
0.0
  0
LINE
  5
488
330
336
100
AcDbEntity
  8
TABLE_GRID
 62
5
100
AcDbLine
 10
148.0
 20
76.0
 30
0.0
 11
148.0
 21
72.0
 31
0.0
  0
LINE
  5
489
330
336
100
AcDbEntity
  8
TABLE_GRID
 62
5
100
AcDbLine
 10
148.0
 20
72.0
 30
0.0
 11
148.0
 21
68.0
 31
0.0
  0
LINE
  5
48A
330
336
100
AcDbEntity
  8
TABLE_GRID
 62
5
100
AcDbLine
 10
148.0
 20
68.0
 30
0.0
 11
148.0
 21
64.0
 31
0.0
  0
LINE
  5
48B
330
336
100
AcDbEntity
  8
TABLE_GRID
 62
5
100
AcDbLine
 10
148.0
 20
64.0
 30
0.0
 11
148.0
 21
60.0
 31
0.0
  0
LINE
  5
48C
330
336
100
AcDbEntity
  8
TABLE_GRID
 62
5
100
AcDbLine
 10
148.0
 20
60.0
 30
0.0
 11
148.0
 21
56.0
 31
0.0
  0
LINE
  5
48D
330
336
100
AcDbEntity
  8
TABLE_GRID
 62
5
100
AcDbLine
 10
148.0
 20
56.0
 30
0.0
 11
148.0
 21
52.0
 31
0.0
  0
LINE
  5
48E
330
336
100
AcDbEntity
  8
TABLE_GRID
 62
5
100
AcDbLine
 10
148.0
 20
52.0
 30
0.0
 11
148.0
 21
48.0
 31
0.0
  0
LINE
  5
48F
330
336
100
AcDbEntity
  8
TABLE_GRID
 62
5
100
AcDbLine
 10
148.0
 20
48.0
 30
0.0
 11
148.0
 21
44.0
 31
0.0
  0
LINE
  5
490
330
336
100
AcDbEntity
  8
TABLE_GRID
 62
5
100
AcDbLine
 10
148.0
 20
44.0
 30
0.0
 11
148.0
 21
40.0
 31
0.0
  0
LINE
  5
491
330
336
100
AcDbEntity
  8
TABLE_GRID
 62
5
100
AcDbLine
 10
148.0
 20
40.0
 30
0.0
 11
148.0
 21
36.0
 31
0.0
  0
LINE
  5
492
330
336
100
AcDbEntity
  8
TABLE_GRID
 62
5
100
AcDbLine
 10
148.0
 20
36.0
 30
0.0
 11
148.0
 21
32.0
 31
0.0
  0
LINE
  5
493
330
336
100
AcDbEntity
  8
TABLE_GRID
 62
5
100
AcDbLine
 10
148.0
 20
32.0
 30
0.0
 11
148.0
 21
28.0
 31
0.0
  0
LINE
  5
494
330
336
100
AcDbEntity
  8
TABLE_GRID
 62
5
100
AcDbLine
 10
148.0
 20
28.0
 30
0.0
 11
148.0
 21
24.0
 31
0.0
  0
LINE
  5
495
330
336
100
AcDbEntity
  8
TABLE_GRID
 62
5
100
AcDbLine
 10
148.0
 20
24.0
 30
0.0
 11
148.0
 21
20.0
 31
0.0
  0
LINE
  5
496
330
336
100
AcDbEntity
  8
TABLE_GRID
 62
5
100
AcDbLine
 10
148.0
 20
20.0
 30
0.0
 11
148.0
 21
16.0
 31
0.0
  0
LINE
  5
497
330
336
100
AcDbEntity
  8
TABLE_GRID
 62
5
100
AcDbLine
 10
148.0
 20
16.0
 30
0.0
 11
148.0
 21
12.0
 31
0.0
  0
LINE
  5
498
330
336
100
AcDbEntity
  8
TABLE_GRID
 62
5
100
AcDbLine
 10
148.0
 20
12.0
 30
0.0
 11
148.0
 21
8.0
 31
0.0
  0
LINE
  5
499
330
336
100
AcDbEntity
  8
TABLE_GRID
 62
5
100
AcDbLine
 10
148.0
 20
8.0
 30
0.0
 11
148.0
 21
4.0
 31
0.0
  0
LINE
  5
49A
330
336
100
AcDbEntity
  8
TABLE_GRID
 62
5
100
AcDbLine
 10
148.0
 20
4.0
 30
0.0
 11
148.0
 21
0.0
 31
0.0
  0
LINE
  5
49B
330
336
100
AcDbEntity
  8
TABLE_GRID
 62
5
100
AcDbLine
 10
168.0
 20
96.0
 30
0.0
 11
168.0
 21
92.0
 31
0.0
  0
LINE
  5
49C
330
336
100
AcDbEntity
  8
TABLE_GRID
 62
5
100
AcDbLine
 10
168.0
 20
92.0
 30
0.0
 11
168.0
 21
88.0
 31
0.0
  0
LINE
  5
49D
330
336
100
AcDbEntity
  8
TABLE_GRID
 62
5
100
AcDbLine
 10
168.0
 20
88.0
 30
0.0
 11
168.0
 21
84.0
 31
0.0
  0
LINE
  5
49E
330
336
100
AcDbEntity
  8
TABLE_GRID
 62
5
100
AcDbLine
 10
168.0
 20
84.0
 30
0.0
 11
168.0
 21
80.0
 31
0.0
  0
LINE
  5
49F
330
336
100
AcDbEntity
  8
TABLE_GRID
 62
5
100
AcDbLine
 10
168.0
 20
80.0
 30
0.0
 11
168.0
 21
76.0
 31
0.0
  0
LINE
  5
4A0
330
336
100
AcDbEntity
  8
TABLE_GRID
 62
5
100
AcDbLine
 10
168.0
 20
76.0
 30
0.0
 11
168.0
 21
72.0
 31
0.0
  0
LINE
  5
4A1
330
336
100
AcDbEntity
  8
TABLE_GRID
 62
5
100
AcDbLine
 10
168.0
 20
72.0
 30
0.0
 11
168.0
 21
68.0
 31
0.0
  0
LINE
  5
4A2
330
336
100
AcDbEntity
  8
TABLE_GRID
 62
5
100
AcDbLine
 10
168.0
 20
68.0
 30
0.0
 11
168.0
 21
64.0
 31
0.0
  0
LINE
  5
4A3
330
336
100
AcDbEntity
  8
TABLE_GRID
 62
5
100
AcDbLine
 10
168.0
 20
64.0
 30
0.0
 11
168.0
 21
60.0
 31
0.0
  0
LINE
  5
4A4
330
336
100
AcDbEntity
  8
TABLE_GRID
 62
5
100
AcDbLine
 10
168.0
 20
60.0
 30
0.0
 11
168.0
 21
56.0
 31
0.0
  0
LINE
  5
4A5
330
336
100
AcDbEntity
  8
TABLE_GRID
 62
5
100
AcDbLine
 10
168.0
 20
56.0
 30
0.0
 11
168.0
 21
52.0
 31
0.0
  0
LINE
  5
4A6
330
336
100
AcDbEntity
  8
TABLE_GRID
 62
5
100
AcDbLine
 10
168.0
 20
52.0
 30
0.0
 11
168.0
 21
48.0
 31
0.0
  0
LINE
  5
4A7
330
336
100
AcDbEntity
  8
TABLE_GRID
 62
5
100
AcDbLine
 10
168.0
 20
48.0
 30
0.0
 11
168.0
 21
44.0
 31
0.0
  0
LINE
  5
4A8
330
336
100
AcDbEntity
  8
TABLE_GRID
 62
5
100
AcDbLine
 10
168.0
 20
44.0
 30
0.0
 11
168.0
 21
40.0
 31
0.0
  0
LINE
  5
4A9
330
336
100
AcDbEntity
  8
TABLE_GRID
 62
5
100
AcDbLine
 10
168.0
 20
40.0
 30
0.0
 11
168.0
 21
36.0
 31
0.0
  0
LINE
  5
4AA
330
336
100
AcDbEntity
  8
TABLE_GRID
 62
5
100
AcDbLine
 10
168.0
 20
36.0
 30
0.0
 11
168.0
 21
32.0
 31
0.0
  0
LINE
  5
4AB
330
336
100
AcDbEntity
  8
TABLE_GRID
 62
5
100
AcDbLine
 10
168.0
 20
32.0
 30
0.0
 11
168.0
 21
28.0
 31
0.0
  0
LINE
  5
4AC
330
336
100
AcDbEntity
  8
TABLE_GRID
 62
5
100
AcDbLine
 10
168.0
 20
28.0
 30
0.0
 11
168.0
 21
24.0
 31
0.0
  0
LINE
  5
4AD
330
336
100
AcDbEntity
  8
TABLE_GRID
 62
5
100
AcDbLine
 10
168.0
 20
24.0
 30
0.0
 11
168.0
 21
20.0
 31
0.0
  0
LINE
  5
4AE
330
336
100
AcDbEntity
  8
TABLE_GRID
 62
5
100
AcDbLine
 10
168.0
 20
20.0
 30
0.0
 11
168.0
 21
16.0
 31
0.0
  0
LINE
  5
4AF
330
336
100
AcDbEntity
  8
TABLE_GRID
 62
5
100
AcDbLine
 10
168.0
 20
16.0
 30
0.0
 11
168.0
 21
12.0
 31
0.0
  0
LINE
  5
4B0
330
336
100
AcDbEntity
  8
TABLE_GRID
 62
5
100
AcDbLine
 10
168.0
 20
12.0
 30
0.0
 11
168.0
 21
8.0
 31
0.0
  0
LINE
  5
4B1
330
336
100
AcDbEntity
  8
TABLE_GRID
 62
5
100
AcDbLine
 10
168.0
 20
8.0
 30
0.0
 11
168.0
 21
4.0
 31
0.0
  0
LINE
  5
4B2
330
336
100
AcDbEntity
  8
TABLE_GRID
 62
5
100
AcDbLine
 10
168.0
 20
4.0
 30
0.0
 11
168.0
 21
0.0
 31
0.0
  0
ENDBLK
  5
338
330
336
100
AcDbEntity
  8
0
100
AcDbBlockEnd
  0
ENDSEC
  0
SECTION
  2
ENTITIES
  0
LWPOLYLINE
  5
97
330
17
100
AcDbEntity
  8
FRAME
 62
7
370
35
100
AcDbPolyline
 90
4
 70
1
 10
0.0
 20
0.0
 10
1189.0
 20
0.0
 10
1189.0
 20
841.0
 10
0.0
 20
841.0
  0
LWPOLYLINE
  5
98
330
17
100
AcDbEntity
  8
FRAME
 62
7
370
35
100
AcDbPolyline
 90
4
 70
1
 10
20.0
 20
20.0
 10
1169.0
 20
20.0
 10
1169.0
 20
821.0
 10
20.0
 20
821.0
  0
LWPOLYLINE
  5
99
330
17
100
AcDbEntity
  8
TITLE
 62
7
370
35
100
AcDbPolyline
 90
4
 70
1
 10
989.0
 20
20.0
 10
1169.0
 20
20.0
 10
1169.0
 20
75.0
 10
989.0
 20
75.0
  0
LINE
  5
9A
330
17
100
AcDbEntity
  8
TITLE
 62
7
100
AcDbLine
 10
989.0
 20
35.0
 30
0.0
 11
1169.0
 21
35.0
 31
0.0
  0
LINE
  5
9B
330
17
100
AcDbEntity
  8
TITLE
 62
7
100
AcDbLine
 10
989.0
 20
55.0
 30
0.0
 11
1169.0
 21
55.0
 31
0.0
  0
LINE
  5
9C
330
17
100
AcDbEntity
  8
TITLE
 62
7
100
AcDbLine
 10
1059.0
 20
20.0
 30
0.0
 11
1059.0
 21
75.0
 31
0.0
  0
MTEXT
  5
9D
330
17
100
AcDbEntity
  8
TITLE
 62
7
100
AcDbMText
 10
1114.0
 20
62.0
 30
0.0
 40
6.0
 41
50.0
 71
5
  1
КП17
  7
GOST
  0
MTEXT
  5
9E
330
17
100
AcDbEntity
  8
TITLE
 62
7
100
AcDbMText
 10
1114.0
 20
48.0
 30
0.0
 40
2.5
 41
100.0
 71
5
  1
Арматурный каркас КП17
  7
GOST
  0
MTEXT
  5
9F
330
17
100
AcDbEntity
  8
TITLE
 62
7
100
AcDbMText
 10
1114.0
 20
28.0
 30
0.0
 40
2.0
 41
100.0
 71
5
  1
Масса 6474.15 кг\PЛист 1  Листов 1
  7
GOST
  0
MTEXT
  5
A0
330
17
100
AcDbEntity
  8
TEXT
 62
7
100
AcDbMText
 10
1181.0
 20
6.0
 30
0.0
 40
2.5
 41
40.0
 71
6
  1
Формат А0
  7
GOST
  0
MTEXT
  5
A1
330
17
100
AcDbEntity
  8
TEXT
 62
7
100
AcDbMText
 10
45.0
 20
717.0
 30
0.0
 40
2.5
 41
70.0
 71
1
  1
Схема расположения рабочей арматуры\Pкаркаса КП17
  7
GOST
  0
LWPOLYLINE
  5
A2
330
17
100
AcDbEntity
  8
REBAR
 62
7
370
35
100
AcDbPolyline
 90
4
 70
1
 10
45.0
 20
90.0
 10
53.0
 20
90.0
 10
53.0
 20
709.0
 10
45.0
 20
709.0
  0
LWPOLYLINE
  5
A3
330
17
100
AcDbEntity
  8
REBAR
 62
7
370
35
100
AcDbPolyline
 90
4
 70
1
 10
63.0
 20
90.0
 10
71.0
 20
90.0
 10
71.0
 20
709.0
 10
63.0
 20
709.0
  0
LINE
  5
A4
330
17
100
AcDbEntity
  8
CENTER
  6
CENTER
 62
7
100
AcDbLine
 10
58.0
 20
90.0
 30
0.0
 11
58.0
 21
709.0
 31
0.0
  0
MTEXT
  5
A5
330
17
100
AcDbEntity
  8
TEXT
 62
7
100
AcDbMText
 10
43.0
 20
707.0
 30
0.0
 40
1.8
 41
20.0
 71
1
  1
Сторона\Pгрунта
  7
GOST
  0
MTEXT
  5
A6
330
17
100
AcDbEntity
  8
TEXT
 62
7
100
AcDbMText
 10
65.0
 20
707.0
 30
0.0
 40
1.8
 41
25.0
 71
1
  1
Сторона\Pкотлована
  7
GOST
  0
LWPOLYLINE
  5
A7
330
17
100
AcDbEntity
  8
REBAR
 62
7
370
35
100
AcDbPolyline
 90
4
 70
1
 10
45.0
 20
90.0
 10
53.0
 20
90.0
 10
53.0
 20
151.0
 10
45.0
 20
151.0
  0
MTEXT
  5
A8
330
17
100
AcDbEntity
  8
TEXT
 62
7
100
AcDbMText
 10
54.0
 20
120.5
 30
0.0
 40
1.6
 41
22.0
 71
4
  1
2  Ø22\P3050
  7
GOST
  0
DIMENSION
  5
A9
330
17
100
AcDbEntity
  8
DIMS
 62
7
100
AcDbDimension
280
0
  2
*D1
  3
KP17
 10
31.0
 20
90.0
 30
0.0
 11
29.15
 21
120.5
 31
0.0
 70
32
 71
5
  1
3050
100
AcDbAlignedDimension
 13
39.0
 23
90.0
 33
0.0
 14
39.0
 24
151.0
 34
0.0
 50
90.0
100
AcDbRotatedDimension
  0
LWPOLYLINE
  5
B8
330
17
100
AcDbEntity
  8
REBAR
 62
7
370
35
100
AcDbPolyline
 90
4
 70
1
 10
45.0
 20
151.0
 10
53.0
 20
151.0
 10
53.0
 20
385.0
 10
45.0
 20
385.0
  0
MTEXT
  5
B9
330
17
100
AcDbEntity
  8
TEXT
 62
7
100
AcDbMText
 10
54.0
 20
268.0
 30
0.0
 40
1.6
 41
22.0
 71
4
  1
4  Ø32\P11700
  7
GOST
  0
DIMENSION
  5
BA
330
17
100
AcDbEntity
  8
DIMS
 62
7
100
AcDbDimension
280
0
  2
*D2
  3
KP17
 10
31.0
 20
151.0
 30
0.0
 11
29.15
 21
268.0
 31
0.0
 70
32
 71
5
  1
11700
100
AcDbAlignedDimension
 13
39.0
 23
151.0
 33
0.0
 14
39.0
 24
385.0
 34
0.0
 50
90.0
100
AcDbRotatedDimension
  0
LWPOLYLINE
  5
C9
330
17
100
AcDbEntity
  8
REBAR
 62
7
370
35
100
AcDbPolyline
 90
4
 70
1
 10
45.0
 20
385.0
 10
53.0
 20
385.0
 10
53.0
 20
619.0
 10
45.0
 20
619.0
  0
MTEXT
  5
CA
330
17
100
AcDbEntity
  8
TEXT
 62
7
100
AcDbMText
 10
54.0
 20
502.0
 30
0.0
 40
1.6
 41
22.0
 71
4
  1
7  Ø25\P11700
  7
GOST
  0
DIMENSION
  5
CB
330
17
100
AcDbEntity
  8
DIMS
 62
7
100
AcDbDimension
280
0
  2
*D3
  3
KP17
 10
31.0
 20
385.0
 30
0.0
 11
29.15
 21
502.0
 31
0.0
 70
32
 71
5
  1
11700
100
AcDbAlignedDimension
 13
39.0
 23
385.0
 33
0.0
 14
39.0
 24
619.0
 34
0.0
 50
90.0
100
AcDbRotatedDimension
  0
LWPOLYLINE
  5
DA
330
17
100
AcDbEntity
  8
REBAR
 62
7
370
35
100
AcDbPolyline
 90
4
 70
1
 10
45.0
 20
619.0
 10
53.0
 20
619.0
 10
53.0
 20
736.0
 10
45.0
 20
736.0
  0
MTEXT
  5
DB
330
17
100
AcDbEntity
  8
TEXT
 62
7
100
AcDbMText
 10
54.0
 20
677.5
 30
0.0
 40
1.6
 41
22.0
 71
4
  1
1  Ø22\P5850
  7
GOST
  0
DIMENSION
  5
DC
330
17
100
AcDbEntity
  8
DIMS
 62
7
100
AcDbDimension
280
0
  2
*D4
  3
KP17
 10
31.0
 20
619.0
 30
0.0
 11
29.15
 21
677.5
 31
0.0
 70
32
 71
5
  1
5850
100
AcDbAlignedDimension
 13
39.0
 23
619.0
 33
0.0
 14
39.0
 24
736.0
 34
0.0
 50
90.0
100
AcDbRotatedDimension
  0
LWPOLYLINE
  5
EB
330
17
100
AcDbEntity
  8
REBAR
 62
7
370
35
100
AcDbPolyline
 90
4
 70
1
 10
63.0
 20
90.0
 10
71.0
 20
90.0
 10
71.0
 20
207.0
 10
63.0
 20
207.0
  0
MTEXT
  5
EC
330
17
100
AcDbEntity
  8
TEXT
 62
7
100
AcDbMText
 10
72.0
 20
148.5
 30
0.0
 40
1.6
 41
22.0
 71
4
  1
5  Ø36\P5850
  7
GOST
  0
DIMENSION
  5
ED
330
17
100
AcDbEntity
  8
DIMS
 62
7
100
AcDbDimension
280
0
  2
*D5
  3
KP17
 10
49.0
 20
90.0
 30
0.0
 11
47.15
 21
148.5
 31
0.0
 70
32
 71
5
  1
5850
100
AcDbAlignedDimension
 13
57.0
 23
90.0
 33
0.0
 14
57.0
 24
207.0
 34
0.0
 50
90.0
100
AcDbRotatedDimension
  0
LWPOLYLINE
  5
FC
330
17
100
AcDbEntity
  8
REBAR
 62
7
370
35
100
AcDbPolyline
 90
4
 70
1
 10
63.0
 20
207.0
 10
71.0
 20
207.0
 10
71.0
 20
376.0
 10
63.0
 20
376.0
  0
MTEXT
  5
FD
330
17
100
AcDbEntity
  8
TEXT
 62
7
100
AcDbMText
 10
72.0
 20
291.5
 30
0.0
 40
1.6
 41
22.0
 71
4
  1
8  Ø22\P8450
  7
GOST
  0
DIMENSION
  5
FE
330
17
100
AcDbEntity
  8
DIMS
 62
7
100
AcDbDimension
280
0
  2
*D6
  3
KP17
 10
49.0
 20
207.0
 30
0.0
 11
47.15
 21
291.5
 31
0.0
 70
32
 71
5
  1
8450
100
AcDbAlignedDimension
 13
57.0
 23
207.0
 33
0.0
 14
57.0
 24
376.0
 34
0.0
 50
90.0
100
AcDbRotatedDimension
  0
LWPOLYLINE
  5
10D
330
17
100
AcDbEntity
  8
REBAR
 62
7
370
35
100
AcDbPolyline
 90
4
 70
1
 10
63.0
 20
376.0
 10
71.0
 20
376.0
 10
71.0
 20
610.0
 10
63.0
 20
610.0
  0
MTEXT
  5
10E
330
17
100
AcDbEntity
  8
TEXT
 62
7
100
AcDbMText
 10
72.0
 20
493.0
 30
0.0
 40
1.6
 41
22.0
 71
4
  1
3  Ø36\P11700
  7
GOST
  0
DIMENSION
  5
10F
330
17
100
AcDbEntity
  8
DIMS
 62
7
100
AcDbDimension
280
0
  2
*D7
  3
KP17
 10
49.0
 20
376.0
 30
0.0
 11
47.15
 21
493.0
 31
0.0
 70
32
 71
5
  1
11700
100
AcDbAlignedDimension
 13
57.0
 23
376.0
 33
0.0
 14
57.0
 24
610.0
 34
0.0
 50
90.0
100
AcDbRotatedDimension
  0
LWPOLYLINE
  5
11E
330
17
100
AcDbEntity
  8
REBAR
 62
7
370
35
100
AcDbPolyline
 90
4
 70
1
 10
63.0
 20
610.0
 10
71.0
 20
610.0
 10
71.0
 20
727.0
 10
63.0
 20
727.0
  0
MTEXT
  5
11F
330
17
100
AcDbEntity
  8
TEXT
 62
7
100
AcDbMText
 10
72.0
 20
668.5
 30
0.0
 40
1.6
 41
22.0
 71
4
  1
1  Ø22\P5850
  7
GOST
  0
DIMENSION
  5
120
330
17
100
AcDbEntity
  8
DIMS
 62
7
100
AcDbDimension
280
0
  2
*D8
  3
KP17
 10
49.0
 20
610.0
 30
0.0
 11
47.15
 21
668.5
 31
0.0
 70
32
 71
5
  1
5850
100
AcDbAlignedDimension
 13
57.0
 23
610.0
 33
0.0
 14
57.0
 24
727.0
 34
0.0
 50
90.0
100
AcDbRotatedDimension
  0
DIMENSION
  5
12F
330
17
100
AcDbEntity
  8
DIMS
 62
7
100
AcDbDimension
280
0
  2
*D9
  3
KP17
 10
19.0
 20
90.0
 30
0.0
 11
17.15
 21
399.5
 31
0.0
 70
32
 71
5
  1
30950
100
AcDbAlignedDimension
 13
27.0
 23
90.0
 33
0.0
 14
27.0
 24
709.0
 34
0.0
 50
90.0
100
AcDbRotatedDimension
  0
LWPOLYLINE
  5
13E
330
17
100
AcDbEntity
  8
REBAR
 62
7
370
35
100
AcDbPolyline
 90
4
 70
1
 10
130.0
 20
90.0
 10
168.0
 20
90.0
 10
168.0
 20
709.0
 10
130.0
 20
709.0
  0
LINE
  5
13F
330
17
100
AcDbEntity
  8
CENTER
  6
CENTER
 62
7
100
AcDbLine
 10
149.0
 20
90.0
 30
0.0
 11
149.0
 21
709.0
 31
0.0
  0
MTEXT
  5
140
330
17
100
AcDbEntity
  8
TEXT
 62
7
100
AcDbMText
 10
130.0
 20
717.0
 30
0.0
 40
2.5
 41
152.0
 71
1
  1
Арматурный каркас КП17\P(вид со стороны котлована)
  7
GOST
  0
DIMENSION
  5
141
330
17
100
AcDbEntity
  8
DIMS
 62
7
100
AcDbDimension
280
0
  2
*D10
  3
KP17
 10
130.0
 20
76.0
 30
0.0
 11
149.0
 21
77.85
 31
0.0
 70
32
 71
5
  1
1900
100
AcDbAlignedDimension
 13
130.0
 23
84.0
 33
0.0
 14
168.0
 24
84.0
 34
0.0
 50
0.0
100
AcDbRotatedDimension
  0
DIMENSION
  5
150
330
17
100
AcDbEntity
  8
DIMS
 62
7
100
AcDbDimension
280
0
  2
*D11
  3
KP17
 10
112.0
 20
90.0
 30
0.0
 11
110.15
 21
399.5
 31
0.0
 70
32
 71
5
  1
30950
100
AcDbAlignedDimension
 13
120.0
 23
90.0
 33
0.0
 14
120.0
 24
709.0
 34
0.0
 50
90.0
100
AcDbRotatedDimension
  0
LWPOLYLINE
  5
15F
330
17
100
AcDbEntity
  8
REBAR
 62
7
370
35
100
AcDbPolyline
 90
4
 70
1
 10
200.0
 20
90.0
 10
238.0
 20
90.0
 10
238.0
 20
709.0
 10
200.0
 20
709.0
  0
LINE
  5
160
330
17
100
AcDbEntity
  8
CENTER
  6
CENTER
 62
7
100
AcDbLine
 10
219.0
 20
90.0
 30
0.0
 11
219.0
 21
709.0
 31
0.0
  0
MTEXT
  5
161
330
17
100
AcDbEntity
  8
TEXT
 62
7
100
AcDbMText
 10
200.0
 20
717.0
 30
0.0
 40
2.5
 41
152.0
 71
1
  1
Арматурный каркас КП17\P(вид со стороны грунта)
  7
GOST
  0
DIMENSION
  5
162
330
17
100
AcDbEntity
  8
DIMS
 62
7
100
AcDbDimension
280
0
  2
*D12
  3
KP17
 10
200.0
 20
76.0
 30
0.0
 11
219.0
 21
77.85
 31
0.0
 70
32
 71
5
  1
1900
100
AcDbAlignedDimension
 13
200.0
 23
84.0
 33
0.0
 14
238.0
 24
84.0
 34
0.0
 50
0.0
100
AcDbRotatedDimension
  0
DIMENSION
  5
171
330
17
100
AcDbEntity
  8
DIMS
 62
7
100
AcDbDimension
280
0
  2
*D13
  3
KP17
 10
182.0
 20
90.0
 30
0.0
 11
180.15
 21
399.5
 31
0.0
 70
32
 71
5
  1
30950
100
AcDbAlignedDimension
 13
190.0
 23
90.0
 33
0.0
 14
190.0
 24
709.0
 34
0.0
 50
90.0
100
AcDbRotatedDimension
  0
LWPOLYLINE
  5
180
330
17
100
AcDbEntity
  8
SECTION
 62
7
370
35
100
AcDbPolyline
 90
4
 70
1
 10
270.0
 20
90.0
 10
286.0
 20
90.0
 10
286.0
 20
709.0
 10
270.0
 20
709.0
  0
MTEXT
  5
181
330
17
100
AcDbEntity
  8
TEXT
 62
7
100
AcDbMText
 10
270.0
 20
717.0
 30
0.0
 40
2.5
 41
20.0
 71
1
  1
8-8
  7
GOST
  0
MTEXT
  5
182
330
17
100
AcDbEntity
  8
TEXT
 62
7
100
AcDbMText
 10
288.0
 20
699.0
 30
0.0
 40
1.6
 41
30.0
 71
1
  1
Сторона грунта
  7
GOST
  0
MTEXT
  5
183
330
17
100
AcDbEntity
  8
TEXT
 62
7
100
AcDbMText
 10
288.0
 20
95.0
 30
0.0
 40
1.6
 41
35.0
 71
1
  1
Сторона котлована
  7
GOST
  0
DIMENSION
  5
184
330
17
100
AcDbEntity
  8
DIMS
 62
7
100
AcDbDimension
280
0
  2
*D14
  3
KP17
 10
256.0
 20
90.0
 30
0.0
 11
254.15
 21
399.5
 31
0.0
 70
32
 71
5
  1
30950
100
AcDbAlignedDimension
 13
264.0
 23
90.0
 33
0.0
 14
264.0
 24
709.0
 34
0.0
 50
90.0
100
AcDbRotatedDimension
  0
LWPOLYLINE
  5
193
330
17
100
AcDbEntity
  8
SECTION
 62
7
370
35
100
AcDbPolyline
 90
4
 70
1
 10
320.0
 20
520.0
 10
396.0
 20
520.0
 10
396.0
 20
552.0
 10
320.0
 20
552.0
  0
CIRCLE
  5
194
330
17
100
AcDbEntity
  8
CENTER
  6
DASHED
 62
7
100
AcDbCircle
 10
358.0
 20
536.0
 30
0.0
 40
9.0
  0
MTEXT
  5
195
330
17
100
AcDbEntity
  8
TEXT
 62
7
100
AcDbMText
 10
358.0
 20
556.0
 30
0.0
 40
2.5
 41
20.0
 71
5
  1
1-1
  7
GOST
  0
MTEXT
  5
196
330
17
100
AcDbEntity
  8
TEXT
 62
7
100
AcDbMText
 10
319.0
 20
536.0
 30
0.0
 40
1.6
 41
15.0
 71
5
  1
Грунт
  7
GOST
 50
90.0
  0
MTEXT
  5
197
330
17
100
AcDbEntity
  8
TEXT
 62
7
100
AcDbMText
 10
398.0
 20
536.0
 30
0.0
 40
1.6
 41
18.0
 71
5
  1
Котлован
  7
GOST
 50
90.0
  0
MTEXT
  5
198
330
17
100
AcDbEntity
  8
TEXT
 62
7
100
AcDbMText
 10
358.0
 20
515.0
 30
0.0
 40
1.5
 41
40.0
 71
5
  1
Ф1
  7
GOST
  0
DIMENSION
  5
199
330
17
100
AcDbEntity
  8
DIMS
 62
7
100
AcDbDimension
280
0
  2
*D15
  3
KP17
 10
320.0
 20
504.0
 30
0.0
 11
358.0
 21
505.85
 31
0.0
 70
32
 71
5
  1
1900
100
AcDbAlignedDimension
 13
320.0
 23
512.0
 33
0.0
 14
396.0
 24
512.0
 34
0.0
 50
0.0
100
AcDbRotatedDimension
  0
DIMENSION
  5
1A8
330
17
100
AcDbEntity
  8
DIMS
 62
7
100
AcDbDimension
280
0
  2
*D16
  3
KP17
 10
394.0
 20
520.0
 30
0.0
 11
392.15
 21
536.0
 31
0.0
 70
32
 71
5
  1
800
100
AcDbAlignedDimension
 13
402.0
 23
520.0
 33
0.0
 14
402.0
 24
552.0
 34
0.0
 50
90.0
100
AcDbRotatedDimension
  0
LWPOLYLINE
  5
1B7
330
17
100
AcDbEntity
  8
SECTION
 62
7
370
35
100
AcDbPolyline
 90
4
 70
1
 10
420.0
 20
520.0
 10
496.0
 20
520.0
 10
496.0
 20
552.0
 10
420.0
 20
552.0
  0
CIRCLE
  5
1B8
330
17
100
AcDbEntity
  8
CENTER
  6
DASHED
 62
7
100
AcDbCircle
 10
458.0
 20
536.0
 30
0.0
 40
9.0
  0
MTEXT
  5
1B9
330
17
100
AcDbEntity
  8
TEXT
 62
7
100
AcDbMText
 10
458.0
 20
556.0
 30
0.0
 40
2.5
 41
20.0
 71
5
  1
2-2
  7
GOST
  0
MTEXT
  5
1BA
330
17
100
AcDbEntity
  8
TEXT
 62
7
100
AcDbMText
 10
419.0
 20
536.0
 30
0.0
 40
1.6
 41
15.0
 71
5
  1
Грунт
  7
GOST
 50
90.0
  0
MTEXT
  5
1BB
330
17
100
AcDbEntity
  8
TEXT
 62
7
100
AcDbMText
 10
498.0
 20
536.0
 30
0.0
 40
1.6
 41
18.0
 71
5
  1
Котлован
  7
GOST
 50
90.0
  0
MTEXT
  5
1BC
330
17
100
AcDbEntity
  8
TEXT
 62
7
100
AcDbMText
 10
458.0
 20
515.0
 30
0.0
 40
1.5
 41
40.0
 71
5
  1
Ф4
  7
GOST
  0
DIMENSION
  5
1BD
330
17
100
AcDbEntity
  8
DIMS
 62
7
100
AcDbDimension
280
0
  2
*D17
  3
KP17
 10
420.0
 20
504.0
 30
0.0
 11
458.0
 21
505.85
 31
0.0
 70
32
 71
5
  1
1900
100
AcDbAlignedDimension
 13
420.0
 23
512.0
 33
0.0
 14
496.0
 24
512.0
 34
0.0
 50
0.0
100
AcDbRotatedDimension
  0
DIMENSION
  5
1CC
330
17
100
AcDbEntity
  8
DIMS
 62
7
100
AcDbDimension
280
0
  2
*D18
  3
KP17
 10
494.0
 20
520.0
 30
0.0
 11
492.15
 21
536.0
 31
0.0
 70
32
 71
5
  1
800
100
AcDbAlignedDimension
 13
502.0
 23
520.0
 33
0.0
 14
502.0
 24
552.0
 34
0.0
 50
90.0
100
AcDbRotatedDimension
  0
LWPOLYLINE
  5
1DB
330
17
100
AcDbEntity
  8
SECTION
 62
7
370
35
100
AcDbPolyline
 90
4
 70
1
 10
320.0
 20
450.0
 10
396.0
 20
450.0
 10
396.0
 20
482.0
 10
320.0
 20
482.0
  0
CIRCLE
  5
1DC
330
17
100
AcDbEntity
  8
CENTER
  6
DASHED
 62
7
100
AcDbCircle
 10
358.0
 20
466.0
 30
0.0
 40
9.0
  0
MTEXT
  5
1DD
330
17
100
AcDbEntity
  8
TEXT
 62
7
100
AcDbMText
 10
358.0
 20
486.0
 30
0.0
 40
2.5
 41
20.0
 71
5
  1
3-3
  7
GOST
  0
MTEXT
  5
1DE
330
17
100
AcDbEntity
  8
TEXT
 62
7
100
AcDbMText
 10
319.0
 20
466.0
 30
0.0
 40
1.6
 41
15.0
 71
5
  1
Грунт
  7
GOST
 50
90.0
  0
MTEXT
  5
1DF
330
17
100
AcDbEntity
  8
TEXT
 62
7
100
AcDbMText
 10
398.0
 20
466.0
 30
0.0
 40
1.6
 41
18.0
 71
5
  1
Котлован
  7
GOST
 50
90.0
  0
MTEXT
  5
1E0
330
17
100
AcDbEntity
  8
TEXT
 62
7
100
AcDbMText
 10
358.0
 20
445.0
 30
0.0
 40
1.5
 41
40.0
 71
5
  1
Ф4
  7
GOST
  0
DIMENSION
  5
1E1
330
17
100
AcDbEntity
  8
DIMS
 62
7
100
AcDbDimension
280
0
  2
*D19
  3
KP17
 10
320.0
 20
434.0
 30
0.0
 11
358.0
 21
435.85
 31
0.0
 70
32
 71
5
  1
1900
100
AcDbAlignedDimension
 13
320.0
 23
442.0
 33
0.0
 14
396.0
 24
442.0
 34
0.0
 50
0.0
100
AcDbRotatedDimension
  0
DIMENSION
  5
1F0
330
17
100
AcDbEntity
  8
DIMS
 62
7
100
AcDbDimension
280
0
  2
*D20
  3
KP17
 10
394.0
 20
450.0
 30
0.0
 11
392.15
 21
466.0
 31
0.0
 70
32
 71
5
  1
800
100
AcDbAlignedDimension
 13
402.0
 23
450.0
 33
0.0
 14
402.0
 24
482.0
 34
0.0
 50
90.0
100
AcDbRotatedDimension
  0
LWPOLYLINE
  5
1FF
330
17
100
AcDbEntity
  8
SECTION
 62
7
370
35
100
AcDbPolyline
 90
4
 70
1
 10
420.0
 20
450.0
 10
496.0
 20
450.0
 10
496.0
 20
482.0
 10
420.0
 20
482.0
  0
CIRCLE
  5
200
330
17
100
AcDbEntity
  8
CENTER
  6
DASHED
 62
7
100
AcDbCircle
 10
458.0
 20
466.0
 30
0.0
 40
9.0
  0
MTEXT
  5
201
330
17
100
AcDbEntity
  8
TEXT
 62
7
100
AcDbMText
 10
458.0
 20
486.0
 30
0.0
 40
2.5
 41
20.0
 71
5
  1
4-4
  7
GOST
  0
MTEXT
  5
202
330
17
100
AcDbEntity
  8
TEXT
 62
7
100
AcDbMText
 10
419.0
 20
466.0
 30
0.0
 40
1.6
 41
15.0
 71
5
  1
Грунт
  7
GOST
 50
90.0
  0
MTEXT
  5
203
330
17
100
AcDbEntity
  8
TEXT
 62
7
100
AcDbMText
 10
498.0
 20
466.0
 30
0.0
 40
1.6
 41
18.0
 71
5
  1
Котлован
  7
GOST
 50
90.0
  0
MTEXT
  5
204
330
17
100
AcDbEntity
  8
TEXT
 62
7
100
AcDbMText
 10
458.0
 20
445.0
 30
0.0
 40
1.5
 41
40.0
 71
5
  1
Ф4
  7
GOST
  0
DIMENSION
  5
205
330
17
100
AcDbEntity
  8
DIMS
 62
7
100
AcDbDimension
280
0
  2
*D21
  3
KP17
 10
420.0
 20
434.0
 30
0.0
 11
458.0
 21
435.85
 31
0.0
 70
32
 71
5
  1
1900
100
AcDbAlignedDimension
 13
420.0
 23
442.0
 33
0.0
 14
496.0
 24
442.0
 34
0.0
 50
0.0
100
AcDbRotatedDimension
  0
DIMENSION
  5
214
330
17
100
AcDbEntity
  8
DIMS
 62
7
100
AcDbDimension
280
0
  2
*D22
  3
KP17
 10
494.0
 20
450.0
 30
0.0
 11
492.15
 21
466.0
 31
0.0
 70
32
 71
5
  1
800
100
AcDbAlignedDimension
 13
502.0
 23
450.0
 33
0.0
 14
502.0
 24
482.0
 34
0.0
 50
90.0
100
AcDbRotatedDimension
  0
LWPOLYLINE
  5
223
330
17
100
AcDbEntity
  8
SECTION
 62
7
370
35
100
AcDbPolyline
 90
4
 70
1
 10
320.0
 20
380.0
 10
396.0
 20
380.0
 10
396.0
 20
412.0
 10
320.0
 20
412.0
  0
CIRCLE
  5
224
330
17
100
AcDbEntity
  8
CENTER
  6
DASHED
 62
7
100
AcDbCircle
 10
358.0
 20
396.0
 30
0.0
 40
9.0
  0
MTEXT
  5
225
330
17
100
AcDbEntity
  8
TEXT
 62
7
100
AcDbMText
 10
358.0
 20
416.0
 30
0.0
 40
2.5
 41
20.0
 71
5
  1
5-5
  7
GOST
  0
MTEXT
  5
226
330
17
100
AcDbEntity
  8
TEXT
 62
7
100
AcDbMText
 10
319.0
 20
396.0
 30
0.0
 40
1.6
 41
15.0
 71
5
  1
Грунт
  7
GOST
 50
90.0
  0
MTEXT
  5
227
330
17
100
AcDbEntity
  8
TEXT
 62
7
100
AcDbMText
 10
398.0
 20
396.0
 30
0.0
 40
1.6
 41
18.0
 71
5
  1
Котлован
  7
GOST
 50
90.0
  0
MTEXT
  5
228
330
17
100
AcDbEntity
  8
TEXT
 62
7
100
AcDbMText
 10
358.0
 20
375.0
 30
0.0
 40
1.5
 41
40.0
 71
5
  1
Ф2 Ф4
  7
GOST
  0
DIMENSION
  5
229
330
17
100
AcDbEntity
  8
DIMS
 62
7
100
AcDbDimension
280
0
  2
*D23
  3
KP17
 10
320.0
 20
364.0
 30
0.0
 11
358.0
 21
365.85
 31
0.0
 70
32
 71
5
  1
1900
100
AcDbAlignedDimension
 13
320.0
 23
372.0
 33
0.0
 14
396.0
 24
372.0
 34
0.0
 50
0.0
100
AcDbRotatedDimension
  0
DIMENSION
  5
238
330
17
100
AcDbEntity
  8
DIMS
 62
7
100
AcDbDimension
280
0
  2
*D24
  3
KP17
 10
394.0
 20
380.0
 30
0.0
 11
392.15
 21
396.0
 31
0.0
 70
32
 71
5
  1
800
100
AcDbAlignedDimension
 13
402.0
 23
380.0
 33
0.0
 14
402.0
 24
412.0
 34
0.0
 50
90.0
100
AcDbRotatedDimension
  0
LWPOLYLINE
  5
247
330
17
100
AcDbEntity
  8
SECTION
 62
7
370
35
100
AcDbPolyline
 90
4
 70
1
 10
420.0
 20
380.0
 10
496.0
 20
380.0
 10
496.0
 20
412.0
 10
420.0
 20
412.0
  0
CIRCLE
  5
248
330
17
100
AcDbEntity
  8
CENTER
  6
DASHED
 62
7
100
AcDbCircle
 10
458.0
 20
396.0
 30
0.0
 40
9.0
  0
MTEXT
  5
249
330
17
100
AcDbEntity
  8
TEXT
 62
7
100
AcDbMText
 10
458.0
 20
416.0
 30
0.0
 40
2.5
 41
20.0
 71
5
  1
6-6
  7
GOST
  0
MTEXT
  5
24A
330
17
100
AcDbEntity
  8
TEXT
 62
7
100
AcDbMText
 10
419.0
 20
396.0
 30
0.0
 40
1.6
 41
15.0
 71
5
  1
Грунт
  7
GOST
 50
90.0
  0
MTEXT
  5
24B
330
17
100
AcDbEntity
  8
TEXT
 62
7
100
AcDbMText
 10
498.0
 20
396.0
 30
0.0
 40
1.6
 41
18.0
 71
5
  1
Котлован
  7
GOST
 50
90.0
  0
MTEXT
  5
24C
330
17
100
AcDbEntity
  8
TEXT
 62
7
100
AcDbMText
 10
458.0
 20
375.0
 30
0.0
 40
1.5
 41
40.0
 71
5
  1
Ф2 Ф1
  7
GOST
  0
DIMENSION
  5
24D
330
17
100
AcDbEntity
  8
DIMS
 62
7
100
AcDbDimension
280
0
  2
*D25
  3
KP17
 10
420.0
 20
364.0
 30
0.0
 11
458.0
 21
365.85
 31
0.0
 70
32
 71
5
  1
1900
100
AcDbAlignedDimension
 13
420.0
 23
372.0
 33
0.0
 14
496.0
 24
372.0
 34
0.0
 50
0.0
100
AcDbRotatedDimension
  0
DIMENSION
  5
25C
330
17
100
AcDbEntity
  8
DIMS
 62
7
100
AcDbDimension
280
0
  2
*D26
  3
KP17
 10
494.0
 20
380.0
 30
0.0
 11
492.15
 21
396.0
 31
0.0
 70
32
 71
5
  1
800
100
AcDbAlignedDimension
 13
502.0
 23
380.0
 33
0.0
 14
502.0
 24
412.0
 34
0.0
 50
90.0
100
AcDbRotatedDimension
  0
LWPOLYLINE
  5
26B
330
17
100
AcDbEntity
  8
SECTION
 62
7
370
35
100
AcDbPolyline
 90
4
 70
1
 10
320.0
 20
310.0
 10
396.0
 20
310.0
 10
396.0
 20
342.0
 10
320.0
 20
342.0
  0
CIRCLE
  5
26C
330
17
100
AcDbEntity
  8
CENTER
  6
DASHED
 62
7
100
AcDbCircle
 10
358.0
 20
326.0
 30
0.0
 40
9.0
  0
MTEXT
  5
26D
330
17
100
AcDbEntity
  8
TEXT
 62
7
100
AcDbMText
 10
358.0
 20
346.0
 30
0.0
 40
2.5
 41
20.0
 71
5
  1
7-7
  7
GOST
  0
MTEXT
  5
26E
330
17
100
AcDbEntity
  8
TEXT
 62
7
100
AcDbMText
 10
319.0
 20
326.0
 30
0.0
 40
1.6
 41
15.0
 71
5
  1
Грунт
  7
GOST
 50
90.0
  0
MTEXT
  5
26F
330
17
100
AcDbEntity
  8
TEXT
 62
7
100
AcDbMText
 10
398.0
 20
326.0
 30
0.0
 40
1.6
 41
18.0
 71
5
  1
Котлован
  7
GOST
 50
90.0
  0
MTEXT
  5
270
330
17
100
AcDbEntity
  8
TEXT
 62
7
100
AcDbMText
 10
358.0
 20
305.0
 30
0.0
 40
1.5
 41
40.0
 71
5
  1
Ф1
  7
GOST
  0
DIMENSION
  5
271
330
17
100
AcDbEntity
  8
DIMS
 62
7
100
AcDbDimension
280
0
  2
*D27
  3
KP17
 10
320.0
 20
294.0
 30
0.0
 11
358.0
 21
295.85
 31
0.0
 70
32
 71
5
  1
1900
100
AcDbAlignedDimension
 13
320.0
 23
302.0
 33
0.0
 14
396.0
 24
302.0
 34
0.0
 50
0.0
100
AcDbRotatedDimension
  0
DIMENSION
  5
280
330
17
100
AcDbEntity
  8
DIMS
 62
7
100
AcDbDimension
280
0
  2
*D28
  3
KP17
 10
394.0
 20
310.0
 30
0.0
 11
392.15
 21
326.0
 31
0.0
 70
32
 71
5
  1
800
100
AcDbAlignedDimension
 13
402.0
 23
310.0
 33
0.0
 14
402.0
 24
342.0
 34
0.0
 50
90.0
100
AcDbRotatedDimension
  0
LWPOLYLINE
  5
28F
330
17
100
AcDbEntity
  8
DETAILS
 62
7
370
35
100
AcDbPolyline
 90
4
 70
1
 10
520.0
 20
620.0
 10
710.0
 20
620.0
 10
710.0
 20
679.0
 10
520.0
 20
679.0
  0
LINE
  5
290
330
17
100
AcDbEntity
  8
DETAILS
 62
7
100
AcDbLine
 10
520.0
 20
649.5
 30
0.0
 11
710.0
 21
649.5
 31
0.0
  0
LINE
  5
291
330
17
100
AcDbEntity
  8
DETAILS
 62
7
100
AcDbLine
 10
530.0
 20
620.0
 30
0.0
 11
530.0
 21
679.0
 31
0.0
  0
LINE
  5
292
330
17
100
AcDbEntity
  8
DETAILS
 62
7
100
AcDbLine
 10
580.0
 20
620.0
 30
0.0
 11
580.0
 21
679.0
 31
0.0
  0
LINE
  5
293
330
17
100
AcDbEntity
  8
DETAILS
 62
7
100
AcDbLine
 10
650.0
 20
620.0
 30
0.0
 11
650.0
 21
679.0
 31
0.0
  0
LINE
  5
294
330
17
100
AcDbEntity
  8
DETAILS
 62
7
100
AcDbLine
 10
700.0
 20
620.0
 30
0.0
 11
700.0
 21
679.0
 31
0.0
  0
MTEXT
  5
295
330
17
100
AcDbEntity
  8
TEXT
 62
7
100
AcDbMText
 10
520.0
 20
684.0
 30
0.0
 40
2.5
 41
40.0
 71
1
  1
Рама Р17
  7
GOST
  0
DIMENSION
  5
296
330
17
100
AcDbEntity
  8
DIMS
 62
7
100
AcDbDimension
280
0
  2
*D29
  3
KP17
 10
520.0
 20
606.0
 30
0.0
 11
615.0
 21
607.85
 31
0.0
 70
32
 71
5
  1
1900
100
AcDbAlignedDimension
 13
520.0
 23
614.0
 33
0.0
 14
710.0
 24
614.0
 34
0.0
 50
0.0
100
AcDbRotatedDimension
  0
DIMENSION
  5
2A5
330
17
100
AcDbEntity
  8
DIMS
 62
7
100
AcDbDimension
280
0
  2
*D30
  3
KP17
 10
506.0
 20
620.0
 30
0.0
 11
504.15
 21
649.5
 31
0.0
 70
32
 71
5
  1
590
100
AcDbAlignedDimension
 13
514.0
 23
620.0
 33
0.0
 14
514.0
 24
679.0
 34
0.0
 50
90.0
100
AcDbRotatedDimension
  0
INSERT
  5
2F8
330
17
100
AcDbEntity
  8
TABLE
 62
7
100
AcDbBlockReference
  2
TABLE_STEEL_KP17
 10
700.0
 20
760.0
 30
0.0
  0
MTEXT
  5
2FA
330
17
100
AcDbEntity
  8
TEXT
 62
7
100
AcDbMText
 10
700.0
 20
775.0
 30
0.0
 40
2.5
 41
120.0
 71
1
  1
Ведомость расхода стали, кг
  7
GOST
  0
INSERT
  5
333
330
17
100
AcDbEntity
  8
TABLE
 62
7
100
AcDbBlockReference
  2
TABLE_WELDS_KP17
 10
700.0
 20
700.0
 30
0.0
  0
MTEXT
  5
335
330
17
100
AcDbEntity
  8
TEXT
 62
7
100
AcDbMText
 10
700.0
 20
725.0
 30
0.0
 40
2.5
 41
80.0
 71
1
  1
Таблица сварных швов
  7
GOST
  0
INSERT
  5
4B3
330
17
100
AcDbEntity
  8
TABLE
 62
7
100
AcDbBlockReference
  2
TABLE_SPEC_KP17
 10
700.0
 20
200.0
 30
0.0
  0
MTEXT
  5
4B5
330
17
100
AcDbEntity
  8
TEXT
 62
7
100
AcDbMText
 10
700.0
 20
302.0
 30
0.0
 40
3.0
 41
160.0
 71
1
  1
Спецификация пространственного каркаса КП17
  7
GOST
  0
MTEXT
  5
4B6
330
17
100
AcDbEntity
  8
TEXT
 62
7
100
AcDbMText
 10
700.0
 20
190.0
 30
0.0
 40
1.6
 41
220.0
 71
1
  3
Примечания\P1 Общие данные смотри лист 1.\P2 Чертеж с раскладкой каркасов смотри лист 2.\P3 Толщина защитного слоя бетона для стальной рабочей арматуры "стены в грунте" - не менее 70 мм.\P4 Все размеры отдельных стержней и каркасов даны в мм по осям 
  3
и торцам стержней, размеры гнутых стержней и деталей - по внешним граням.\P5 Сварку арматуры производить в соответствии с требованиями ГОСТ 5264-80 и ГОСТ 14098-2014.\P6 При ручной сварке использовать электроды Э46 по ГОСТ 9466-75, при сварке в среде
  3
 защитных газов использовать сварную проволоку СВ-08Г2С по ГОСТ 2246-70.\P7 Приварку петель (поз. 12 и поз. 13) к стержням каркаса производить по месту швом С23-Рэ по ГОСТ 14098-2014, длина шва не менее 300 мм.\P8 Рабочую арматуру соединять внахлест 
  3
(узел В) или стыковкой (узел Б) согласно Схеме расположения рабочей арматуры каркаса КП17. Допускается замена шва С15-Рс на шов С21-Рн.\P9 Поперечную арматуру приваривать к распределительной односторонним швом по типу К3-Рп по ГОСТ 14098-2014.\P10 Ра
  3
мки из поперечной и распределительной арматуры соединять с продольной арматуры контактной точечной сваркой К3 ГОСТ 14098-2014, в каждом перекрестии. Допускается локально сбивать шаг в местах стыковки рабочей арматуры (односторонний шов).\P11 При совп
  3
адении мест установки распределительной арматуры с рамой Р17, необходимо сместить распределительную арматуру выше или ниже рамы по месту.\P12 Соединения поперечной арматуры с рабочей выполнять в соответствии с требованиями ГОСТ 5264-80 и ГОСТ 14098-2
  3
014. Допускается сварку полуавтоматом в среде защитных газов.\P13 Установка поперечной арматуры в сечении допускается по месту без изменения общего количества стержней.\P14 Поз. 11 устанавливается крест-накрест на крайних стержнях каркаса.\P15 Точнос
  3
ть установки фиксаторов защитного слоя поз. Ф1, Ф2, Ф3, Ф4 ± 50 мм по высоте. Фиксаторы защитного слоя приваривать односторонним швом типа Н1-Рш по ГОСТ 14098-2014.\P16 Каркас маркировать со стороны котлована устойчивой краской.\P17 Продольную армату
  1
ру к раме стыковать при помощи сварного шва по типу Н1-РШ по ГОСТ 14098-2014 (односторонний шов).
  7
GOST
  0
ENDSEC
  0
SECTION
  2
OBJECTS
  0
DICTIONARY
  5
A
330
0
100
AcDbDictionary
281
1
  3
ACAD_COLOR
350
B
  3
ACAD_GROUP
350
C
  3
ACAD_LAYOUT
350
D
  3
ACAD_MATERIAL
350
E
  3
ACAD_MLEADERSTYLE
350
F
  3
ACAD_MLINESTYLE
350
10
  3
ACAD_PLOTSETTINGS
350
11
  3
ACAD_PLOTSTYLENAME
350
12
  3
ACAD_SCALELIST
350
14
  3
ACAD_TABLESTYLE
350
15
  3
ACAD_VISUALSTYLE
350
16
  3
EZDXF_META
350
2D
  0
DICTIONARY
  5
B
330
A
100
AcDbDictionary
281
1
  0
DICTIONARY
  5
C
330
A
100
AcDbDictionary
281
1
  0
DICTIONARY
  5
D
330
A
100
AcDbDictionary
281
1
  3
Model
350
1A
  3
Layout1
350
1E
  0
DICTIONARY
  5
E
330
A
100
AcDbDictionary
281
1
  3
ByBlock
350
1F
  3
ByLayer
350
20
  3
Global
350
21
  0
DICTIONARY
  5
F
330
A
100
AcDbDictionary
281
1
  3
Standard
350
2C
  0
DICTIONARY
  5
10
330
A
100
AcDbDictionary
281
1
  3
Standard
350
22
  0
DICTIONARY
  5
11
330
A
100
AcDbDictionary
281
1
  0
ACDBDICTIONARYWDFLT
  5
12
330
A
100
AcDbDictionary
281
1
  3
Normal
350
13
100
AcDbDictionaryWithDefault
340
13
  0
ACDBPLACEHOLDER
  5
13
330
12
  0
DICTIONARY
  5
14
330
A
100
AcDbDictionary
281
1
  0
DICTIONARY
  5
15
330
A
100
AcDbDictionary
281
1
  0
DICTIONARY
  5
16
330
A
100
AcDbDictionary
281
1
  3
2dWireframe
350
5A
  3
Basic
350
5B
  3
Brighten
350
5C
  3
ColorChange
350
5D
  3
Conceptual
350
5E
  3
Dim
350
5F
  3
EdgeColorOff
350
60
  3
Facepattern
350
61
  3
Flat
350
62
  3
FlatWithEdges
350
63
  3
Gouraud
350
64
  3
GouraudWithEdges
350
65
  3
Hidden
350
66
  3
JitterOff
350
67
  3
Linepattern
350
68
  3
Modeling
350
69
  3
OverhangOff
350
6A
  3
Realistic
350
6B
  3
Shaded
350
6C
  3
Shaded with edges
350
6D
  3
Shades of Gray
350
6E
  3
Sketchy
350
6F
  3
Thicken
350
70
  3
Wireframe
350
71
  3
X-Ray
350
72
  0
LAYOUT
  5
1A
330
D
100
AcDbPlotSettings
  1

  4
A3
  6

 40
7.5
 41
20.0
 42
7.5
 43
20.0
 44
420.0
 45
297.0
 46
0.0
 47
0.0
 48
0.0
 49
0.0
140
0.0
141
0.0
142
1.0
143
1.0
 70
1024
 72
1
 73
0
 74
5
  7

 75
16
 76
0
 77
2
 78
300
147
1.0
148
0.0
149
0.0
100
AcDbLayout
  1
Model
 70
1
 71
0
 10
0.0
 20
0.0
 11
420.0
 21
297.0
 12
0.0
 22
0.0
 32
0.0
 14
1e+20
 24
1e+20
 34
1e+20
 15
-1e+20
 25
-1e+20
 35
-1e+20
146
0.0
 13
0.0
 23
0.0
 33
0.0
 16
1.0
 26
0.0
 36
0.0
 17
0.0
 27
1.0
 37
0.0
 76
1
330
17
  0
LAYOUT
  5
1E
330
D
100
AcDbPlotSettings
  1

  4
A3
  6

 40
7.5
 41
20.0
 42
7.5
 43
20.0
 44
420.0
 45
297.0
 46
0.0
 47
0.0
 48
0.0
 49
0.0
140
0.0
141
0.0
142
1.0
143
1.0
 70
0
 72
1
 73
0
 74
5
  7

 75
16
 76
0
 77
2
 78
300
147
1.0
148
0.0
149
0.0
100
AcDbLayout
  1
Layout1
 70
1
 71
1
 10
0.0
 20
0.0
 11
420.0
 21
297.0
 12
0.0
 22
0.0
 32
0.0
 14
1e+20
 24
1e+20
 34
1e+20
 15
-1e+20
 25
-1e+20
 35
-1e+20
146
0.0
 13
0.0
 23
0.0
 33
0.0
 16
1.0
 26
0.0
 36
0.0
 17
0.0
 27
1.0
 37
0.0
 76
1
330
1B
  0
MATERIAL
  5
1F
102
{ACAD_REACTORS
330
E
102
}
330
E
100
AcDbMaterial
  1
ByBlock
  2

 70
0
 40
1.0
 71
1
 41
1.0
 91
-1023410177
 42
1.0
 72
1
  3

 73
1
 74
1
 75
1
 44
0.5
 73
0
 45
1.0
 46
1.0
 77
1
  4

 78
1
 79
1
170
1
 48
1.0
171
1
  6

172
1
173
1
174
1
140
1.0
141
1.0
175
1
  7

176
1
177
1
178
1
143
1.0
179
1
  8

270
1
271
1
272
1
145
1.0
146
1.0
273
1
  9

274
1
275
1
276
1
 42
1.0
 72
1
  3

 73
1
 74
1
 75
1
 94
63
  0
MATERIAL
  5
20
102
{ACAD_REACTORS
330
E
102
}
330
E
100
AcDbMaterial
  1
ByLayer
  2

 70
0
 40
1.0
 71
1
 41
1.0
 91
-1023410177
 42
1.0
 72
1
  3

 73
1
 74
1
 75
1
 44
0.5
 73
0
 45
1.0
 46
1.0
 77
1
  4

 78
1
 79
1
170
1
 48
1.0
171
1
  6

172
1
173
1
174
1
140
1.0
141
1.0
175
1
  7

176
1
177
1
178
1
143
1.0
179
1
  8

270
1
271
1
272
1
145
1.0
146
1.0
273
1
  9

274
1
275
1
276
1
 42
1.0
 72
1
  3

 73
1
 74
1
 75
1
 94
63
  0
MATERIAL
  5
21
102
{ACAD_REACTORS
330
E
102
}
330
E
100
AcDbMaterial
  1
Global
  2

 70
0
 40
1.0
 71
1
 41
1.0
 91
-1023410177
 42
1.0
 72
1
  3

 73
1
 74
1
 75
1
 44
0.5
 73
0
 45
1.0
 46
1.0
 77
1
  4

 78
1
 79
1
170
1
 48
1.0
171
1
  6

172
1
173
1
174
1
140
1.0
141
1.0
175
1
  7

176
1
177
1
178
1
143
1.0
179
1
  8

270
1
271
1
272
1
145
1.0
146
1.0
273
1
  9

274
1
275
1
276
1
 42
1.0
 72
1
  3

 73
1
 74
1
 75
1
 94
63
  0
MLINESTYLE
  5
22
102
{ACAD_REACTORS
330
10
102
}
330
10
100
AcDbMlineStyle
  2
Standard
 70
0
  3

 62
256
 51
90.0
 52
90.0
 71
2
 49
0.5
 62
256
  6
BYLAYER
 49
-0.5
 62
256
  6
BYLAYER
  0
MLEADERSTYLE
  5
2C
102
{ACAD_REACTORS
330
F
102
}
330
F
100
AcDbMLeaderStyle
179
2
170
2
171
1
172
0
 90
2
 40
0.0
 41
0.0
173
1
 91
-1056964608
 92
-2
290
1
 42
2.0
291
1
 43
8.0
  3
Standard
 44
4.0
300

342
29
174
1
175
1
176
0
178
1
 93
-1056964608
 45
4.0
292
0
297
0
 46
4.0
 94
-1056964608
 47
1.0
 49
1.0
140
1.0
294
1
141
0.0
177
0
142
1.0
295
0
296
0
143
3.75
271
0
272
9
273
9
  0
DICTIONARY
  5
2D
330
A
100
AcDbDictionary
280
1
281
1
  3
CREATED_BY_EZDXF
350
2E
  3
WRITTEN_BY_EZDXF
350
4B9
  0
DICTIONARYVAR
  5
2E
330
2D
100
DictionaryVariables
280
0
  1
1.4.4 @ 2026-07-20T11:37:00.077183+00:00
  0
VISUALSTYLE
  5
5A
102
{ACAD_REACTORS
330
16
102
}
330
16
100
AcDbVisualStyle
  2
2dWireframe
 70
4
177
3
291
0
 70
58
 90
2
176
1
 90
2
176
1
 90
0
176
1
 90
0
176
1
 40
0.6
176
1
 40
30.0
176
1
 62
7
420
16777215
176
1
 90
1
176
1
 90
4
176
1
 62
7
176
1
 62
257
176
1
 90
1
176
1
 90
1
176
1
 40
1.0
176
1
 90
8
176
1
 62
7
176
1
 40
1.0
176
1
 90
1
176
1
 90
6
176
1
 90
2
176
1
 62
7
176
1
 90
5
176
1
 90
0
176
1
 90
0
176
1
290
0
176
1
 90
1
176
1
 40
0.0
176
1
 90
0
176
1
290
1
176
1
290
1
176
1
290
0
176
1
290
0
176
1
290
0
176
1
290
0
176
1
290
0
176
1
290
0
176
1
290
0
176
1
 90
50
176
1
 40
0.0
176
1
 40
1.0
176
1
 90
0
176
1
 62
18
420
0
176
1
 90
50
176
1
 90
3
176
1
 62
5
420
255
176
1
290
0
176
1
 90
50
176
1
 90
50
176
1
 90
50
176
1
290
0
176
1
 90
50
176
1
 62
256
176
0
 40
1.0
176
0
 90
2
176
1
  1
strokes_ogs.tif
176
1
290
0
176
1
 40
1.0
176
1
 40
1.0
176
1
  0
VISUALSTYLE
  5
5B
102
{ACAD_REACTORS
330
16
102
}
330
16
100
AcDbVisualStyle
  2
Basic
 70
7
177
3
291
1
 70
58
 90
2
176
1
 90
2
176
1
 90
0
176
1
 90
1
176
1
 40
0.6
176
1
 40
30.0
176
1
 62
7
420
16777215
176
1
 90
1
176
1
 90
4
176
1
 62
7
176
1
 62
257
176
1
 90
1
176
1
 90
1
176
1
 40
1.0
176
1
 90
8
176
1
 62
7
176
1
 40
1.0
176
1
 90
1
176
1
 90
6
176
1
 90
2
176
1
 62
7
176
1
 90
5
176
1
 90
0
176
1
 90
0
176
1
290
0
176
1
 90
1
176
1
 40
0.0
176
1
 90
0
176
1
290
0
176
1
290
1
176
1
290
1
176
1
290
0
176
1
290
0
176
1
290
0
176
1
290
0
176
1
290
0
176
1
290
0
176
1
 90
50
176
1
 40
0.0
176
1
 40
1.0
176
1
 90
0
176
1
 62
18
420
0
176
1
 90
50
176
1
 90
3
176
1
 62
5
420
255
176
1
290
0
176
1
 90
50
176
1
 90
50
176
1
 90
50
176
1
290
0
176
1
 90
50
176
1
 62
256
176
0
 40
1.0
176
0
 90
2
176
1
  1
strokes_ogs.tif
176
1
290
0
176
1
 40
1.0
176
1
 40
1.0
176
1
  0
VISUALSTYLE
  5
5C
102
{ACAD_REACTORS
330
16
102
}
330
16
100
AcDbVisualStyle
  2
Brighten
 70
12
177
3
291
1
 70
58
 90
2
176
1
 90
2
176
1
 90
0
176
1
 90
2
176
1
 40
0.6
176
1
 40
30.0
176
1
 62
7
420
16777215
176
1
 90
1
176
1
 90
4
176
1
 62
7
176
1
 62
257
176
1
 90
1
176
1
 90
1
176
1
 40
1.0
176
1
 90
8
176
1
 62
7
176
1
 40
1.0
176
1
 90
1
176
1
 90
6
176
1
 90
2
176
1
 62
7
176
1
 90
5
176
1
 90
0
176
1
 90
0
176
1
290
0
176
1
 90
1
176
1
 40
0.0
176
1
 90
0
176
1
290
0
176
1
290
1
176
1
290
1
176
1
290
0
176
1
290
0
176
1
290
0
176
1
290
0
176
1
290
0
176
1
290
0
176
1
 90
50
176
1
 40
0.0
176
1
 40
1.0
176
1
 90
0
176
1
 62
18
420
0
176
1
 90
50
176
1
 90
3
176
1
 62
5
420
255
176
1
290
0
176
1
 90
50
176
1
 90
50
176
1
 90
50
176
1
290
0
176
1
 90
50
176
1
 62
256
176
0
 40
1.0
176
0
 90
2
176
1
  1
strokes_ogs.tif
176
1
290
0
176
1
 40
1.0
176
1
 40
1.0
176
1
  0
VISUALSTYLE
  5
5D
102
{ACAD_REACTORS
330
16
102
}
330
16
100
AcDbVisualStyle
  2
ColorChange
 70
16
177
3
291
1
 70
58
 90
2
176
1
 90
2
176
1
 90
0
176
1
 90
2
176
1
 40
0.6
176
1
 40
30.0
176
1
 62
7
420
16777215
176
1
 90
1
176
1
 90
4
176
1
 62
7
176
1
 62
257
176
1
 90
1
176
1
 90
1
176
1
 40
1.0
176
1
 90
8
176
1
 62
7
176
1
 40
1.0
176
1
 90
1
176
1
 90
6
176
1
 90
2
176
1
 62
7
176
1
 90
5
176
1
 90
0
176
1
 90
0
176
1
290
0
176
1
 90
1
176
1
 40
0.0
176
1
 90
0
176
1
290
0
176
1
290
1
176
1
290
1
176
1
290
0
176
1
290
0
176
1
290
0
176
1
290
0
176
1
290
0
176
1
290
0
176
1
 90
50
176
1
 40
0.0
176
1
 40
1.0
176
1
 90
0
176
1
 62
18
420
0
176
1
 90
50
176
1
 90
3
176
1
 62
5
420
255
176
1
290
0
176
1
 90
50
176
1
 90
50
176
1
 90
50
176
1
290
0
176
1
 90
50
176
1
 62
256
176
0
 40
1.0
176
0
 90
2
176
1
  1
strokes_ogs.tif
176
1
290
0
176
1
 40
1.0
176
1
 40
1.0
176
1
  0
VISUALSTYLE
  5
5E
102
{ACAD_REACTORS
330
16
102
}
330
16
100
AcDbVisualStyle
  2
Conceptual
 70
9
177
3
291
0
 70
58
 90
2
176
1
 90
2
176
1
 90
0
176
1
 90
3
176
1
 40
0.6
176
1
 40
30.0
176
1
 62
7
420
16777215
176
1
 90
1
176
1
 90
4
176
1
 62
7
176
1
 62
257
176
1
 90
1
176
1
 90
1
176
1
 40
1.0
176
1
 90
8
176
1
 62
7
176
1
 40
1.0
176
1
 90
1
176
1
 90
6
176
1
 90
2
176
1
 62
7
176
1
 90
5
176
1
 90
0
176
1
 90
0
176
1
290
0
176
1
 90
1
176
1
 40
0.0
176
1
 90
0
176
1
290
0
176
1
290
1
176
1
290
1
176
1
290
0
176
1
290
0
176
1
290
0
176
1
290
0
176
1
290
0
176
1
290
0
176
1
 90
50
176
1
 40
0.0
176
1
 40
1.0
176
1
 90
0
176
1
 62
18
420
0
176
1
 90
50
176
1
 90
3
176
1
 62
5
420
255
176
1
290
0
176
1
 90
50
176
1
 90
50
176
1
 90
50
176
1
290
0
176
1
 90
50
176
1
 62
256
176
0
 40
1.0
176
0
 90
2
176
1
  1
strokes_ogs.tif
176
1
290
0
176
1
 40
1.0
176
1
 40
1.0
176
1
  0
VISUALSTYLE
  5
5F
102
{ACAD_REACTORS
330
16
102
}
330
16
100
AcDbVisualStyle
  2
Dim
 70
11
177
3
291
1
 70
58
 90
2
176
1
 90
2
176
1
 90
0
176
1
 90
2
176
1
 40
0.6
176
1
 40
30.0
176
1
 62
7
420
16777215
176
1
 90
1
176
1
 90
4
176
1
 62
7
176
1
 62
257
176
1
 90
1
176
1
 90
1
176
1
 40
1.0
176
1
 90
8
176
1
 62
7
176
1
 40
1.0
176
1
 90
1
176
1
 90
6
176
1
 90
2
176
1
 62
7
176
1
 90
5
176
1
 90
0
176
1
 90
0
176
1
290
0
176
1
 90
1
176
1
 40
0.0
176
1
 90
0
176
1
290
0
176
1
290
1
176
1
290
1
176
1
290
0
176
1
290
0
176
1
290
0
176
1
290
0
176
1
290
0
176
1
290
0
176
1
 90
50
176
1
 40
0.0
176
1
 40
1.0
176
1
 90
0
176
1
 62
18
420
0
176
1
 90
50
176
1
 90
3
176
1
 62
5
420
255
176
1
290
0
176
1
 90
50
176
1
 90
50
176
1
 90
50
176
1
290
0
176
1
 90
50
176
1
 62
256
176
0
 40
1.0
176
0
 90
2
176
1
  1
strokes_ogs.tif
176
1
290
0
176
1
 40
1.0
176
1
 40
1.0
176
1
  0
VISUALSTYLE
  5
60
102
{ACAD_REACTORS
330
16
102
}
330
16
100
AcDbVisualStyle
  2
EdgeColorOff
 70
22
177
3
291
1
 70
58
 90
2
176
1
 90
2
176
1
 90
0
176
1
 90
2
176
1
 40
0.6
176
1
 40
30.0
176
1
 62
7
420
16777215
176
1
 90
1
176
1
 90
4
176
1
 62
7
176
1
 62
257
176
1
 90
1
176
1
 90
1
176
1
 40
1.0
176
1
 90
8
176
1
 62
7
176
1
 40
1.0
176
1
 90
1
176
1
 90
6
176
1
 90
2
176
1
 62
7
176
1
 90
5
176
1
 90
0
176
1
 90
0
176
1
290
0
176
1
 90
1
176
1
 40
0.0
176
1
 90
0
176
1
290
0
176
1
290
1
176
1
290
1
176
1
290
0
176
1
290
0
176
1
290
0
176
1
290
0
176
1
290
0
176
1
290
0
176
1
 90
50
176
1
 40
0.0
176
1
 40
1.0
176
1
 90
0
176
1
 62
18
420
0
176
1
 90
50
176
1
 90
3
176
1
 62
5
420
255
176
1
290
0
176
1
 90
50
176
1
 90
50
176
1
 90
50
176
1
290
0
176
1
 90
50
176
1
 62
256
176
0
 40
1.0
176
0
 90
2
176
1
  1
strokes_ogs.tif
176
1
290
0
176
1
 40
1.0
176
1
 40
1.0
176
1
  0
VISUALSTYLE
  5
61
102
{ACAD_REACTORS
330
16
102
}
330
16
100
AcDbVisualStyle
  2
Facepattern
 70
15
177
3
291
1
 70
58
 90
2
176
1
 90
2
176
1
 90
0
176
1
 90
2
176
1
 40
0.6
176
1
 40
30.0
176
1
 62
7
420
16777215
176
1
 90
1
176
1
 90
4
176
1
 62
7
176
1
 62
257
176
1
 90
1
176
1
 90
1
176
1
 40
1.0
176
1
 90
8
176
1
 62
7
176
1
 40
1.0
176
1
 90
1
176
1
 90
6
176
1
 90
2
176
1
 62
7
176
1
 90
5
176
1
 90
0
176
1
 90
0
176
1
290
0
176
1
 90
1
176
1
 40
0.0
176
1
 90
0
176
1
290
0
176
1
290
1
176
1
290
1
176
1
290
0
176
1
290
0
176
1
290
0
176
1
290
0
176
1
290
0
176
1
290
0
176
1
 90
50
176
1
 40
0.0
176
1
 40
1.0
176
1
 90
0
176
1
 62
18
420
0
176
1
 90
50
176
1
 90
3
176
1
 62
5
420
255
176
1
290
0
176
1
 90
50
176
1
 90
50
176
1
 90
50
176
1
290
0
176
1
 90
50
176
1
 62
256
176
0
 40
1.0
176
0
 90
2
176
1
  1
strokes_ogs.tif
176
1
290
0
176
1
 40
1.0
176
1
 40
1.0
176
1
  0
VISUALSTYLE
  5
62
102
{ACAD_REACTORS
330
16
102
}
330
16
100
AcDbVisualStyle
  2
Flat
 70
0
177
3
291
1
 70
58
 90
2
176
1
 90
2
176
1
 90
0
176
1
 90
2
176
1
 40
0.6
176
1
 40
30.0
176
1
 62
7
420
16777215
176
1
 90
1
176
1
 90
4
176
1
 62
7
176
1
 62
257
176
1
 90
1
176
1
 90
1
176
1
 40
1.0
176
1
 90
8
176
1
 62
7
176
1
 40
1.0
176
1
 90
1
176
1
 90
6
176
1
 90
2
176
1
 62
7
176
1
 90
5
176
1
 90
0
176
1
 90
0
176
1
290
0
176
1
 90
1
176
1
 40
0.0
176
1
 90
0
176
1
290
0
176
1
290
1
176
1
290
1
176
1
290
0
176
1
290
0
176
1
290
0
176
1
290
0
176
1
290
0
176
1
290
0
176
1
 90
50
176
1
 40
0.0
176
1
 40
1.0
176
1
 90
0
176
1
 62
18
420
0
176
1
 90
50
176
1
 90
3
176
1
 62
5
420
255
176
1
290
0
176
1
 90
50
176
1
 90
50
176
1
 90
50
176
1
290
0
176
1
 90
50
176
1
 62
256
176
0
 40
1.0
176
0
 90
2
176
1
  1
strokes_ogs.tif
176
1
290
0
176
1
 40
1.0
176
1
 40
1.0
176
1
  0
VISUALSTYLE
  5
63
102
{ACAD_REACTORS
330
16
102
}
330
16
100
AcDbVisualStyle
  2
FlatWithEdges
 70
1
177
3
291
1
 70
58
 90
2
176
1
 90
2
176
1
 90
0
176
1
 90
2
176
1
 40
0.6
176
1
 40
30.0
176
1
 62
7
420
16777215
176
1
 90
1
176
1
 90
4
176
1
 62
7
176
1
 62
257
176
1
 90
1
176
1
 90
1
176
1
 40
1.0
176
1
 90
8
176
1
 62
7
176
1
 40
1.0
176
1
 90
1
176
1
 90
6
176
1
 90
2
176
1
 62
7
176
1
 90
5
176
1
 90
0
176
1
 90
0
176
1
290
0
176
1
 90
1
176
1
 40
0.0
176
1
 90
0
176
1
290
0
176
1
290
1
176
1
290
1
176
1
290
0
176
1
290
0
176
1
290
0
176
1
290
0
176
1
290
0
176
1
290
0
176
1
 90
50
176
1
 40
0.0
176
1
 40
1.0
176
1
 90
0
176
1
 62
18
420
0
176
1
 90
50
176
1
 90
3
176
1
 62
5
420
255
176
1
290
0
176
1
 90
50
176
1
 90
50
176
1
 90
50
176
1
290
0
176
1
 90
50
176
1
 62
256
176
0
 40
1.0
176
0
 90
2
176
1
  1
strokes_ogs.tif
176
1
290
0
176
1
 40
1.0
176
1
 40
1.0
176
1
  0
VISUALSTYLE
  5
64
102
{ACAD_REACTORS
330
16
102
}
330
16
100
AcDbVisualStyle
  2
Gouraud
 70
2
177
3
291
1
 70
58
 90
2
176
1
 90
2
176
1
 90
0
176
1
 90
2
176
1
 40
0.6
176
1
 40
30.0
176
1
 62
7
420
16777215
176
1
 90
1
176
1
 90
4
176
1
 62
7
176
1
 62
257
176
1
 90
1
176
1
 90
1
176
1
 40
1.0
176
1
 90
8
176
1
 62
7
176
1
 40
1.0
176
1
 90
1
176
1
 90
6
176
1
 90
2
176
1
 62
7
176
1
 90
5
176
1
 90
0
176
1
 90
0
176
1
290
0
176
1
 90
1
176
1
 40
0.0
176
1
 90
0
176
1
290
0
176
1
290
1
176
1
290
1
176
1
290
0
176
1
290
0
176
1
290
0
176
1
290
0
176
1
290
0
176
1
290
0
176
1
 90
50
176
1
 40
0.0
176
1
 40
1.0
176
1
 90
0
176
1
 62
18
420
0
176
1
 90
50
176
1
 90
3
176
1
 62
5
420
255
176
1
290
0
176
1
 90
50
176
1
 90
50
176
1
 90
50
176
1
290
0
176
1
 90
50
176
1
 62
256
176
0
 40
1.0
176
0
 90
2
176
1
  1
strokes_ogs.tif
176
1
290
0
176
1
 40
1.0
176
1
 40
1.0
176
1
  0
VISUALSTYLE
  5
65
102
{ACAD_REACTORS
330
16
102
}
330
16
100
AcDbVisualStyle
  2
GouraudWithEdges
 70
3
177
3
291
1
 70
58
 90
2
176
1
 90
2
176
1
 90
0
176
1
 90
2
176
1
 40
0.6
176
1
 40
30.0
176
1
 62
7
420
16777215
176
1
 90
1
176
1
 90
4
176
1
 62
7
176
1
 62
257
176
1
 90
1
176
1
 90
1
176
1
 40
1.0
176
1
 90
8
176
1
 62
7
176
1
 40
1.0
176
1
 90
1
176
1
 90
6
176
1
 90
2
176
1
 62
7
176
1
 90
5
176
1
 90
0
176
1
 90
0
176
1
290
0
176
1
 90
1
176
1
 40
0.0
176
1
 90
0
176
1
290
0
176
1
290
1
176
1
290
1
176
1
290
0
176
1
290
0
176
1
290
0
176
1
290
0
176
1
290
0
176
1
290
0
176
1
 90
50
176
1
 40
0.0
176
1
 40
1.0
176
1
 90
0
176
1
 62
18
420
0
176
1
 90
50
176
1
 90
3
176
1
 62
5
420
255
176
1
290
0
176
1
 90
50
176
1
 90
50
176
1
 90
50
176
1
290
0
176
1
 90
50
176
1
 62
256
176
0
 40
1.0
176
0
 90
2
176
1
  1
strokes_ogs.tif
176
1
290
0
176
1
 40
1.0
176
1
 40
1.0
176
1
  0
VISUALSTYLE
  5
66
102
{ACAD_REACTORS
330
16
102
}
330
16
100
AcDbVisualStyle
  2
Hidden
 70
6
177
3
291
0
 70
58
 90
2
176
1
 90
2
176
1
 90
0
176
1
 90
1
176
1
 40
0.6
176
1
 40
30.0
176
1
 62
7
420
16777215
176
1
 90
1
176
1
 90
4
176
1
 62
7
176
1
 62
257
176
1
 90
1
176
1
 90
1
176
1
 40
1.0
176
1
 90
8
176
1
 62
7
176
1
 40
1.0
176
1
 90
1
176
1
 90
6
176
1
 90
2
176
1
 62
7
176
1
 90
5
176
1
 90
0
176
1
 90
0
176
1
290
0
176
1
 90
1
176
1
 40
0.0
176
1
 90
0
176
1
290
0
176
1
290
1
176
1
290
1
176
1
290
0
176
1
290
0
176
1
290
0
176
1
290
0
176
1
290
0
176
1
290
0
176
1
 90
50
176
1
 40
0.0
176
1
 40
1.0
176
1
 90
0
176
1
 62
18
420
0
176
1
 90
50
176
1
 90
3
176
1
 62
5
420
255
176
1
290
0
176
1
 90
50
176
1
 90
50
176
1
 90
50
176
1
290
0
176
1
 90
50
176
1
 62
256
176
0
 40
1.0
176
0
 90
2
176
1
  1
strokes_ogs.tif
176
1
290
0
176
1
 40
1.0
176
1
 40
1.0
176
1
  0
VISUALSTYLE
  5
67
102
{ACAD_REACTORS
330
16
102
}
330
16
100
AcDbVisualStyle
  2
JitterOff
 70
20
177
3
291
1
 70
58
 90
2
176
1
 90
2
176
1
 90
0
176
1
 90
2
176
1
 40
0.6
176
1
 40
30.0
176
1
 62
7
420
16777215
176
1
 90
1
176
1
 90
4
176
1
 62
7
176
1
 62
257
176
1
 90
1
176
1
 90
1
176
1
 40
1.0
176
1
 90
8
176
1
 62
7
176
1
 40
1.0
176
1
 90
1
176
1
 90
6
176
1
 90
2
176
1
 62
7
176
1
 90
5
176
1
 90
0
176
1
 90
0
176
1
290
0
176
1
 90
1
176
1
 40
0.0
176
1
 90
0
176
1
290
0
176
1
290
1
176
1
290
1
176
1
290
0
176
1
290
0
176
1
290
0
176
1
290
0
176
1
290
0
176
1
290
0
176
1
 90
50
176
1
 40
0.0
176
1
 40
1.0
176
1
 90
0
176
1
 62
18
420
0
176
1
 90
50
176
1
 90
3
176
1
 62
5
420
255
176
1
290
0
176
1
 90
50
176
1
 90
50
176
1
 90
50
176
1
290
0
176
1
 90
50
176
1
 62
256
176
0
 40
1.0
176
0
 90
2
176
1
  1
strokes_ogs.tif
176
1
290
0
176
1
 40
1.0
176
1
 40
1.0
176
1
  0
VISUALSTYLE
  5
68
102
{ACAD_REACTORS
330
16
102
}
330
16
100
AcDbVisualStyle
  2
Linepattern
 70
14
177
3
291
1
 70
58
 90
2
176
1
 90
2
176
1
 90
0
176
1
 90
2
176
1
 40
0.6
176
1
 40
30.0
176
1
 62
7
420
16777215
176
1
 90
1
176
1
 90
4
176
1
 62
7
176
1
 62
257
176
1
 90
1
176
1
 90
1
176
1
 40
1.0
176
1
 90
8
176
1
 62
7
176
1
 40
1.0
176
1
 90
1
176
1
 90
6
176
1
 90
2
176
1
 62
7
176
1
 90
5
176
1
 90
0
176
1
 90
0
176
1
290
0
176
1
 90
1
176
1
 40
0.0
176
1
 90
0
176
1
290
0
176
1
290
1
176
1
290
1
176
1
290
0
176
1
290
0
176
1
290
0
176
1
290
0
176
1
290
0
176
1
290
0
176
1
 90
50
176
1
 40
0.0
176
1
 40
1.0
176
1
 90
0
176
1
 62
18
420
0
176
1
 90
50
176
1
 90
3
176
1
 62
5
420
255
176
1
290
0
176
1
 90
50
176
1
 90
50
176
1
 90
50
176
1
290
0
176
1
 90
50
176
1
 62
256
176
0
 40
1.0
176
0
 90
2
176
1
  1
strokes_ogs.tif
176
1
290
0
176
1
 40
1.0
176
1
 40
1.0
176
1
  0
VISUALSTYLE
  5
69
102
{ACAD_REACTORS
330
16
102
}
330
16
100
AcDbVisualStyle
  2
Modeling
 70
10
177
3
291
0
 70
58
 90
2
176
1
 90
2
176
1
 90
0
176
1
 90
2
176
1
 40
0.6
176
1
 40
30.0
176
1
 62
7
420
16777215
176
1
 90
1
176
1
 90
4
176
1
 62
7
176
1
 62
257
176
1
 90
1
176
1
 90
1
176
1
 40
1.0
176
1
 90
8
176
1
 62
7
176
1
 40
1.0
176
1
 90
1
176
1
 90
6
176
1
 90
2
176
1
 62
7
176
1
 90
5
176
1
 90
0
176
1
 90
0
176
1
290
0
176
1
 90
1
176
1
 40
0.0
176
1
 90
0
176
1
290
0
176
1
290
1
176
1
290
1
176
1
290
0
176
1
290
0
176
1
290
0
176
1
290
0
176
1
290
0
176
1
290
0
176
1
 90
50
176
1
 40
0.0
176
1
 40
1.0
176
1
 90
0
176
1
 62
18
420
0
176
1
 90
50
176
1
 90
3
176
1
 62
5
420
255
176
1
290
0
176
1
 90
50
176
1
 90
50
176
1
 90
50
176
1
290
0
176
1
 90
50
176
1
 62
256
176
0
 40
1.0
176
0
 90
2
176
1
  1
strokes_ogs.tif
176
1
290
0
176
1
 40
1.0
176
1
 40
1.0
176
1
  0
VISUALSTYLE
  5
6A
102
{ACAD_REACTORS
330
16
102
}
330
16
100
AcDbVisualStyle
  2
OverhangOff
 70
21
177
3
291
1
 70
58
 90
2
176
1
 90
2
176
1
 90
0
176
1
 90
2
176
1
 40
0.6
176
1
 40
30.0
176
1
 62
7
420
16777215
176
1
 90
1
176
1
 90
4
176
1
 62
7
176
1
 62
257
176
1
 90
1
176
1
 90
1
176
1
 40
1.0
176
1
 90
8
176
1
 62
7
176
1
 40
1.0
176
1
 90
1
176
1
 90
6
176
1
 90
2
176
1
 62
7
176
1
 90
5
176
1
 90
0
176
1
 90
0
176
1
290
0
176
1
 90
1
176
1
 40
0.0
176
1
 90
0
176
1
290
0
176
1
290
1
176
1
290
1
176
1
290
0
176
1
290
0
176
1
290
0
176
1
290
0
176
1
290
0
176
1
290
0
176
1
 90
50
176
1
 40
0.0
176
1
 40
1.0
176
1
 90
0
176
1
 62
18
420
0
176
1
 90
50
176
1
 90
3
176
1
 62
5
420
255
176
1
290
0
176
1
 90
50
176
1
 90
50
176
1
 90
50
176
1
290
0
176
1
 90
50
176
1
 62
256
176
0
 40
1.0
176
0
 90
2
176
1
  1
strokes_ogs.tif
176
1
290
0
176
1
 40
1.0
176
1
 40
1.0
176
1
  0
VISUALSTYLE
  5
6B
102
{ACAD_REACTORS
330
16
102
}
330
16
100
AcDbVisualStyle
  2
Realistic
 70
8
177
3
291
0
 70
58
 90
2
176
1
 90
2
176
1
 90
0
176
1
 90
2
176
1
 40
0.6
176
1
 40
30.0
176
1
 62
7
420
16777215
176
1
 90
1
176
1
 90
4
176
1
 62
7
176
1
 62
257
176
1
 90
1
176
1
 90
1
176
1
 40
1.0
176
1
 90
8
176
1
 62
7
176
1
 40
1.0
176
1
 90
1
176
1
 90
6
176
1
 90
2
176
1
 62
7
176
1
 90
5
176
1
 90
0
176
1
 90
0
176
1
290
0
176
1
 90
1
176
1
 40
0.0
176
1
 90
0
176
1
290
0
176
1
290
1
176
1
290
1
176
1
290
0
176
1
290
0
176
1
290
0
176
1
290
0
176
1
290
0
176
1
290
0
176
1
 90
50
176
1
 40
0.0
176
1
 40
1.0
176
1
 90
0
176
1
 62
18
420
0
176
1
 90
50
176
1
 90
3
176
1
 62
5
420
255
176
1
290
0
176
1
 90
50
176
1
 90
50
176
1
 90
50
176
1
290
0
176
1
 90
50
176
1
 62
256
176
0
 40
1.0
176
0
 90
2
176
1
  1
strokes_ogs.tif
176
1
290
0
176
1
 40
1.0
176
1
 40
1.0
176
1
  0
VISUALSTYLE
  5
6C
102
{ACAD_REACTORS
330
16
102
}
330
16
100
AcDbVisualStyle
  2
Shaded
 70
27
177
3
291
0
 70
58
 90
2
176
1
 90
2
176
1
 90
0
176
1
 90
2
176
1
 40
0.6
176
1
 40
30.0
176
1
 62
7
420
16777215
176
1
 90
1
176
1
 90
4
176
1
 62
7
176
1
 62
257
176
1
 90
1
176
1
 90
1
176
1
 40
1.0
176
1
 90
8
176
1
 62
7
176
1
 40
1.0
176
1
 90
1
176
1
 90
6
176
1
 90
2
176
1
 62
7
176
1
 90
5
176
1
 90
0
176
1
 90
0
176
1
290
0
176
1
 90
1
176
1
 40
0.0
176
1
 90
0
176
1
290
0
176
1
290
1
176
1
290
1
176
1
290
0
176
1
290
0
176
1
290
0
176
1
290
0
176
1
290
0
176
1
290
0
176
1
 90
50
176
1
 40
0.0
176
1
 40
1.0
176
1
 90
0
176
1
 62
18
420
0
176
1
 90
50
176
1
 90
3
176
1
 62
5
420
255
176
1
290
0
176
1
 90
50
176
1
 90
50
176
1
 90
50
176
1
290
0
176
1
 90
50
176
1
 62
256
176
0
 40
1.0
176
0
 90
2
176
1
  1
strokes_ogs.tif
176
1
290
0
176
1
 40
1.0
176
1
 40
1.0
176
1
  0
VISUALSTYLE
  5
6D
102
{ACAD_REACTORS
330
16
102
}
330
16
100
AcDbVisualStyle
  2
Shaded with edges
 70
26
177
3
291
0
 70
58
 90
2
176
1
 90
2
176
1
 90
0
176
1
 90
2
176
1
 40
0.6
176
1
 40
30.0
176
1
 62
7
420
16777215
176
1
 90
1
176
1
 90
4
176
1
 62
7
176
1
 62
257
176
1
 90
1
176
1
 90
1
176
1
 40
1.0
176
1
 90
8
176
1
 62
7
176
1
 40
1.0
176
1
 90
1
176
1
 90
6
176
1
 90
2
176
1
 62
7
176
1
 90
5
176
1
 90
0
176
1
 90
0
176
1
290
0
176
1
 90
1
176
1
 40
0.0
176
1
 90
0
176
1
290
0
176
1
290
1
176
1
290
1
176
1
290
0
176
1
290
0
176
1
290
0
176
1
290
0
176
1
290
0
176
1
290
0
176
1
 90
50
176
1
 40
0.0
176
1
 40
1.0
176
1
 90
0
176
1
 62
18
420
0
176
1
 90
50
176
1
 90
3
176
1
 62
5
420
255
176
1
290
0
176
1
 90
50
176
1
 90
50
176
1
 90
50
176
1
290
0
176
1
 90
50
176
1
 62
256
176
0
 40
1.0
176
0
 90
2
176
1
  1
strokes_ogs.tif
176
1
290
0
176
1
 40
1.0
176
1
 40
1.0
176
1
  0
VISUALSTYLE
  5
6E
102
{ACAD_REACTORS
330
16
102
}
330
16
100
AcDbVisualStyle
  2
Shades of Gray
 70
23
177
3
291
0
 70
58
 90
2
176
1
 90
2
176
1
 90
0
176
1
 90
2
176
1
 40
0.6
176
1
 40
30.0
176
1
 62
7
420
16777215
176
1
 90
1
176
1
 90
4
176
1
 62
7
176
1
 62
257
176
1
 90
1
176
1
 90
1
176
1
 40
1.0
176
1
 90
8
176
1
 62
7
176
1
 40
1.0
176
1
 90
1
176
1
 90
6
176
1
 90
2
176
1
 62
7
176
1
 90
5
176
1
 90
0
176
1
 90
0
176
1
290
0
176
1
 90
1
176
1
 40
0.0
176
1
 90
0
176
1
290
0
176
1
290
1
176
1
290
1
176
1
290
0
176
1
290
0
176
1
290
0
176
1
290
0
176
1
290
0
176
1
290
0
176
1
 90
50
176
1
 40
0.0
176
1
 40
1.0
176
1
 90
0
176
1
 62
18
420
0
176
1
 90
50
176
1
 90
3
176
1
 62
5
420
255
176
1
290
0
176
1
 90
50
176
1
 90
50
176
1
 90
50
176
1
290
0
176
1
 90
50
176
1
 62
256
176
0
 40
1.0
176
0
 90
2
176
1
  1
strokes_ogs.tif
176
1
290
0
176
1
 40
1.0
176
1
 40
1.0
176
1
  0
VISUALSTYLE
  5
6F
102
{ACAD_REACTORS
330
16
102
}
330
16
100
AcDbVisualStyle
  2
Sketchy
 70
24
177
3
291
0
 70
58
 90
2
176
1
 90
2
176
1
 90
0
176
1
 90
1
176
1
 40
0.6
176
1
 40
30.0
176
1
 62
7
420
16777215
176
1
 90
1
176
1
 90
4
176
1
 62
7
176
1
 62
257
176
1
 90
1
176
1
 90
1
176
1
 40
1.0
176
1
 90
8
176
1
 62
7
176
1
 40
1.0
176
1
 90
1
176
1
 90
6
176
1
 90
2
176
1
 62
7
176
1
 90
5
176
1
 90
0
176
1
 90
0
176
1
290
0
176
1
 90
1
176
1
 40
0.0
176
1
 90
0
176
1
290
0
176
1
290
1
176
1
290
1
176
1
290
0
176
1
290
0
176
1
290
0
176
1
290
0
176
1
290
0
176
1
290
0
176
1
 90
50
176
1
 40
0.0
176
1
 40
1.0
176
1
 90
0
176
1
 62
18
420
0
176
1
 90
50
176
1
 90
3
176
1
 62
5
420
255
176
1
290
0
176
1
 90
50
176
1
 90
50
176
1
 90
50
176
1
290
0
176
1
 90
50
176
1
 62
256
176
0
 40
1.0
176
0
 90
2
176
1
  1
strokes_ogs.tif
176
1
290
0
176
1
 40
1.0
176
1
 40
1.0
176
1
  0
VISUALSTYLE
  5
70
102
{ACAD_REACTORS
330
16
102
}
330
16
100
AcDbVisualStyle
  2
Thicken
 70
13
177
3
291
1
 70
58
 90
2
176
1
 90
2
176
1
 90
0
176
1
 90
2
176
1
 40
0.6
176
1
 40
30.0
176
1
 62
7
420
16777215
176
1
 90
1
176
1
 90
4
176
1
 62
7
176
1
 62
257
176
1
 90
1
176
1
 90
1
176
1
 40
1.0
176
1
 90
8
176
1
 62
7
176
1
 40
1.0
176
1
 90
1
176
1
 90
6
176
1
 90
2
176
1
 62
7
176
1
 90
5
176
1
 90
0
176
1
 90
0
176
1
290
0
176
1
 90
1
176
1
 40
0.0
176
1
 90
0
176
1
290
0
176
1
290
1
176
1
290
1
176
1
290
0
176
1
290
0
176
1
290
0
176
1
290
0
176
1
290
0
176
1
290
0
176
1
 90
50
176
1
 40
0.0
176
1
 40
1.0
176
1
 90
0
176
1
 62
18
420
0
176
1
 90
50
176
1
 90
3
176
1
 62
5
420
255
176
1
290
0
176
1
 90
50
176
1
 90
50
176
1
 90
50
176
1
290
0
176
1
 90
50
176
1
 62
256
176
0
 40
1.0
176
0
 90
2
176
1
  1
strokes_ogs.tif
176
1
290
0
176
1
 40
1.0
176
1
 40
1.0
176
1
  0
VISUALSTYLE
  5
71
102
{ACAD_REACTORS
330
16
102
}
330
16
100
AcDbVisualStyle
  2
Wireframe
 70
5
177
3
291
0
 70
58
 90
2
176
1
 90
2
176
1
 90
0
176
1
 90
0
176
1
 40
0.6
176
1
 40
30.0
176
1
 62
7
420
16777215
176
1
 90
1
176
1
 90
4
176
1
 62
7
176
1
 62
257
176
1
 90
1
176
1
 90
1
176
1
 40
1.0
176
1
 90
8
176
1
 62
7
176
1
 40
1.0
176
1
 90
1
176
1
 90
6
176
1
 90
2
176
1
 62
7
176
1
 90
5
176
1
 90
0
176
1
 90
0
176
1
290
0
176
1
 90
1
176
1
 40
0.0
176
1
 90
0
176
1
290
0
176
1
290
1
176
1
290
1
176
1
290
0
176
1
290
0
176
1
290
0
176
1
290
0
176
1
290
0
176
1
290
0
176
1
 90
50
176
1
 40
0.0
176
1
 40
1.0
176
1
 90
0
176
1
 62
18
420
0
176
1
 90
50
176
1
 90
3
176
1
 62
5
420
255
176
1
290
0
176
1
 90
50
176
1
 90
50
176
1
 90
50
176
1
290
0
176
1
 90
50
176
1
 62
256
176
0
 40
1.0
176
0
 90
2
176
1
  1
strokes_ogs.tif
176
1
290
0
176
1
 40
1.0
176
1
 40
1.0
176
1
  0
VISUALSTYLE
  5
72
102
{ACAD_REACTORS
330
16
102
}
330
16
100
AcDbVisualStyle
  2
X-Ray
 70
25
177
3
291
0
 70
58
 90
2
176
1
 90
2
176
1
 90
0
176
1
 90
2
176
1
 40
0.5
176
1
 40
30.0
176
1
 62
7
420
16777215
176
1
 90
1
176
1
 90
4
176
1
 62
7
176
1
 62
257
176
1
 90
1
176
1
 90
1
176
1
 40
1.0
176
1
 90
8
176
1
 62
7
176
1
 40
1.0
176
1
 90
1
176
1
 90
6
176
1
 90
2
176
1
 62
7
176
1
 90
5
176
1
 90
0
176
1
 90
0
176
1
290
0
176
1
 90
1
176
1
 40
0.0
176
1
 90
0
176
1
290
0
176
1
290
1
176
1
290
1
176
1
290
0
176
1
290
0
176
1
290
0
176
1
290
0
176
1
290
0
176
1
290
0
176
1
 90
50
176
1
 40
0.0
176
1
 40
1.0
176
1
 90
0
176
1
 62
18
420
0
176
1
 90
50
176
1
 90
3
176
1
 62
5
420
255
176
1
290
0
176
1
 90
50
176
1
 90
50
176
1
 90
50
176
1
290
0
176
1
 90
50
176
1
 62
256
176
0
 40
1.0
176
0
 90
2
176
1
  1
strokes_ogs.tif
176
1
290
0
176
1
 40
1.0
176
1
 40
1.0
176
1
  0
DICTIONARYVAR
  5
4B9
330
2D
100
DictionaryVariables
280
0
  1
1.4.4 @ 2026-07-20T11:37:00.108722+00:00
  0
ENDSEC
  0
EOF
